<?xml version="1.0" standalone="no"?>
<!DOCTYPE svg PUBLIC "-//W3C//DTD SVG 1.1//EN" "http://www.w3.org/Graphics/SVG/1.1/DTD/svg11.dtd" >
<svg xmlns="http://www.w3.org/2000/svg" xmlns:xlink="http://www.w3.org/1999/xlink" version="1.1">
<metadata></metadata>
<defs>
<font id="ornitons-serial-extralightRg" horiz-adv-x="1234" >
<font-face units-per-em="2048" ascent="1638" descent="-410" />
<missing-glyph horiz-adv-x="593" />
<glyph horiz-adv-x="0" />
<glyph unicode="&#xd;" horiz-adv-x="593" />
<glyph unicode=" "  horiz-adv-x="593" />
<glyph unicode="&#x09;" horiz-adv-x="593" />
<glyph unicode="&#xa0;" horiz-adv-x="593" />
<glyph unicode="!" horiz-adv-x="487" d="M133 94q0 47 31 80t78 33t79.5 -33t32.5 -80q0 -45 -32.5 -77.5t-79.5 -32.5q-43 0 -76 32.5t-33 77.5zM162 1477h172l-39 -1147h-96z" />
<glyph unicode="&#x22;" horiz-adv-x="653" d="M45 1042q59 80 80.5 117t50.5 119q-102 0 -102 94l2 12q4 45 36.5 76t73.5 31q115 0 115 -127q0 -57 -32.5 -125t-63.5 -112t-101 -121zM354 1042q55 72 79 114t54 122q-104 0 -104 94l2 12q4 45 37 76t74 31q115 0 114 -127q0 -57 -31.5 -123.5t-62.5 -111t-102 -123.5z " />
<glyph unicode="#" horiz-adv-x="1292" d="M113 481l16 80h236l75 352h-237l18 80h236l92 441h80l-92 -441h231l92 441h80l-92 -441h235l-16 -80h-238l-73 -352h235l-16 -80h-236l-92 -440h-80l92 440h-231l-92 -440h-80l92 440h-235zM444 561h232l76 352h-232z" />
<glyph unicode="$" horiz-adv-x="1034" d="M45 168l100 102q33 -29 68 -57.5t55 -42.5q51 -33 93 -47t110 -14v593q-98 29 -153.5 50.5t-94.5 50.5q-135 98 -135 287q0 178 141 305q59 51 109.5 70.5t136.5 19.5v155h96l-2 -153h17q88 0 135 -12.5t147 -61.5l-49 -119q-47 25 -105.5 46.5t-82.5 25.5l-51 4h-11 v-545q104 -29 129 -37q61 -20 123 -58t101 -116.5t39 -173.5q0 -201 -152 -336q-51 -47 -103.5 -70.5t-142.5 -43.5v-180h-98v170q-152 16 -223.5 46.5t-196.5 141.5zM240 1102q0 -191 233 -250v518q-100 -25 -166.5 -101.5t-66.5 -166.5zM565 115q61 18 96 34.5t68 49.5 q84 84 84 215q0 61 -20 110q-27 66 -62 93.5t-115 48.5l-51 14v-565z" />
<glyph unicode="%" horiz-adv-x="1603" d="M59 1116q0 152 108.5 260.5t264.5 108.5q154 0 262.5 -108.5t108.5 -260.5q0 -154 -107.5 -263.5t-263.5 -109.5t-264.5 108.5t-108.5 264.5zM176 1116q0 -111 75 -187.5t181 -76.5q102 0 178 78t76 186q0 109 -74 186.5t-180 77.5q-104 0 -180 -77.5t-76 -186.5zM217 0 l1057 1477h110l-1054 -1477h-113zM801 354q0 154 108.5 260.5t264.5 106.5q154 0 262 -106.5t108 -260.5t-108.5 -260t-261.5 -106q-156 0 -264.5 106t-108.5 260zM918 354q0 -109 73.5 -186.5t182.5 -77.5q104 0 180 78t76 186q0 111 -75 187.5t-181 76.5t-181 -76.5 t-75 -187.5z" />
<glyph unicode="&#x26;" horiz-adv-x="1314" d="M59 408q0 96 47.5 181t129.5 138q29 20 59.5 34.5t91.5 37.5q-80 76 -129 172t-49 180q0 145 112.5 243.5t282.5 98.5q166 0 274.5 -98.5t108.5 -247.5q0 -170 -137 -275q-47 -37 -94 -62.5t-156 -68.5q125 -147 197 -227q53 -57 207 -217q68 63 93 95t74 116l97 -109 q-53 -74 -83 -107.5t-89 -90.5q55 -63 97 -104.5t107 -96.5h-208l-111 109q-45 -27 -63 -37q-31 -18 -48 -25q-154 -74 -313 -74q-209 0 -353.5 126t-144.5 309zM203 426q0 -139 106.5 -235.5t257.5 -96.5q51 0 86 6q39 10 58 15q53 14 85.5 30.5t102.5 57.5l-438 495 q-63 -25 -92 -39t-54 -32q-113 -78 -112 -201zM352 1169q0 -77 68 -188q18 -29 38.5 -58.5t61.5 -78.5q106 39 154.5 64.5t91.5 62.5t63.5 83t20.5 111q0 96 -67.5 157.5t-178.5 61.5t-181.5 -60t-70.5 -155z" />
<glyph unicode="'" horiz-adv-x="344" d="M45 1042q59 80 80.5 117t50.5 119q-102 0 -102 94l2 12q4 45 36.5 76t73.5 31q115 0 115 -127q0 -57 -32.5 -125t-63.5 -112t-101 -121z" />
<glyph unicode="(" horiz-adv-x="555" d="M88 717q0 258 74 437t297 468l82 -94q-180 -246 -248 -408t-68 -358q0 -236 61.5 -394.5t254.5 -420.5l-82 -92q-213 272 -292 454.5t-79 407.5z" />
<glyph unicode=")" horiz-adv-x="555" d="M16 -53q182 246 248 407.5t66 360.5q0 236 -60.5 394.5t-253.5 418.5l82 94q213 -274 291 -456.5t78 -407.5q0 -256 -74 -436.5t-295 -466.5z" />
<glyph unicode="*" horiz-adv-x="667" d="M39 1047q0 74 98 73h8l43 -2q74 0 74 47t-67 47l-50 -2h-8q-45 0 -71.5 19.5t-26.5 54.5q0 31 21.5 54.5t54.5 23.5q51 0 80 -51l22 -39q12 -20 28.5 -33.5t30.5 -13.5q39 0 39 41q0 10 -2 19t-16 42l-23 37q-18 37 -18 55q0 31 22.5 51.5t57.5 20.5q33 0 54.5 -19.5 t21.5 -52.5q0 -25 -19 -55l-18 -37q-18 -31 -19 -61q0 -41 35 -41q18 0 41 20q10 10 21 27l20 39q33 51 82 51q31 0 53.5 -22.5t22.5 -55.5q0 -74 -101 -74l-49 2q-74 0 -73 -47q0 -47 67 -47l49 2q51 0 79 -19.5t28 -53.5q0 -31 -22.5 -55.5t-53.5 -24.5q-23 0 -44.5 14 t-37.5 37l-20 41q-27 49 -60 49q-37 0 -37 -45q0 -29 19 -57l18 -41q18 -29 19 -56q0 -31 -21.5 -50t-56.5 -19q-33 0 -55.5 20.5t-22.5 48.5q0 12 4 25.5t14 30.5l23 41q6 14 12 30.5t6 26.5q0 18 -11 31.5t-28 13.5q-14 0 -29.5 -13.5t-29.5 -35.5l-22 -41 q-31 -51 -80 -51q-31 0 -53.5 23.5t-22.5 56.5z" />
<glyph unicode="+" d="M184 666v125h373v368h127v-366h369v-127h-367v-371h-133v371h-369z" />
<glyph unicode="," horiz-adv-x="329" d="M29 -242q59 74 79.5 109t55.5 125q-104 8 -105 94v12q4 47 37 78t76 31q51 0 82 -35t31 -94q0 -53 -30 -121t-60.5 -111t-106.5 -125z" />
<glyph unicode="-" horiz-adv-x="595" d="M45 537v143h506v-143h-506z" />
<glyph unicode="." horiz-adv-x="309" d="M45 94q0 47 30.5 80t78.5 33q47 0 79.5 -33t32.5 -80q0 -45 -32.5 -77.5t-79.5 -32.5t-78 32.5t-31 77.5z" />
<glyph unicode="/" horiz-adv-x="591" d="M59 0l363 1477h108l-362 -1477h-109z" />
<glyph unicode="0" d="M74 737q0 336 153.5 553t390.5 217q233 0 389 -218t156 -552t-153.5 -551t-391.5 -217t-391 217t-153 551zM221 737q0 -283 111.5 -466t285.5 -183q172 0 285 183.5t113 465.5q0 283 -113 467.5t-285 184.5t-284.5 -183.5t-112.5 -468.5z" />
<glyph unicode="1" d="M438 1339l41 138h242v-1477h-148v1339h-135z" />
<glyph unicode="2" d="M104 0l295 311q98 111 135 155t133.5 167t136.5 187.5t68 140.5q29 86 29 165q0 115 -67.5 186.5t-180.5 71.5q-129 0 -207 -94q-29 -39 -44 -83t-23 -124h-141q10 111 30.5 168.5t67.5 114.5q117 129 315 129q178 0 284.5 -102.5t106.5 -274.5q0 -184 -163 -411 q-68 -98 -158 -203q-117 -145 -330 -369h668l-43 -135h-912z" />
<glyph unicode="3" d="M156 446h139q0 -104 19.5 -157t72.5 -107q45 -47 107.5 -71.5t132.5 -24.5q135 0 222 93t87 237q0 154 -100.5 239.5t-282.5 85.5h-53v125l84 4q55 0 105 21.5t91 58.5q86 80 86 197q0 109 -74.5 175.5t-193.5 66.5q-70 0 -120 -26t-85 -65q-27 -33 -39 -64.5t-24 -96.5 h-140q14 90 34 138t65 97q113 131 313 131q178 0 294 -97t116 -249q0 -43 -10.5 -82t-30.5 -82q-29 -51 -78 -94q-31 -25 -68 -43t-104 -39q88 -12 131 -29.5t94 -58.5q135 -119 135 -303q0 -193 -130 -325t-322 -132q-96 0 -185.5 33t-158.5 92q-68 66 -98.5 141.5 t-30.5 210.5z" />
<glyph unicode="4" d="M106 387v121l648 969h172v-973h131v-119h-131v-385h-150v387h-670zM268 504h512v743q0 37 2 56.5t13 60.5l-21 -37l-37 -76z" />
<glyph unicode="5" d="M129 117l68 121l94 -70q109 -78 258 -78q162 0 268.5 96.5t106.5 243.5q0 152 -112 243t-296 91q-66 0 -108.5 -8t-163.5 -41l90 762h667l-38 -138h-510l-56 -491q98 20 172 20q223 0 359.5 -119.5t136.5 -316.5q0 -201 -145.5 -332t-370.5 -131q-92 0 -172 23.5 t-126 46.5t-122 78z" />
<glyph unicode="6" d="M104 469q0 184 144 385q68 92 146.5 187.5t148.5 168.5l250 267h174l-170 -177q-113 -119 -173.5 -185t-166.5 -197q76 16 126 23t93 7q172 0 299 -139t127 -330q0 -211 -143.5 -354t-354.5 -143q-209 0 -354.5 141t-145.5 346zM238 463q0 -147 106.5 -252t259.5 -105 q154 0 260.5 111t106.5 268q0 147 -108.5 250t-264.5 103q-150 0 -255 -110t-105 -265z" />
<glyph unicode="7" d="M141 1343l45 134h938l-807 -1477h-170l719 1298q10 16 24.5 33t41.5 39q-43 -16 -60.5 -21.5t-31.5 -5.5h-699z" />
<glyph unicode="8" d="M154 430q0 100 41 188q39 76 91 118t158 79q-25 10 -47 21q-39 18 -61 34q-47 37 -78 104.5t-31 145.5q0 158 113 268.5t278 110.5q166 0 278 -109.5t112 -271.5q0 -41 -8.5 -76.5t-22.5 -70.5q-25 -57 -64 -90t-122 -66q96 -31 141 -59q66 -43 108.5 -133.5t42.5 -188.5 q0 -195 -133 -326t-332 -131t-331.5 129.5t-132.5 323.5zM295 434q0 -137 94 -231t229 -94t227.5 94t92.5 231q0 135 -91 228.5t-224 93.5q-141 0 -234.5 -91.5t-93.5 -230.5zM360 1124q0 -111 74 -184.5t184 -73.5q109 0 182.5 74t73.5 182q0 106 -73.5 182t-179.5 76 q-111 0 -186 -74.5t-75 -181.5z" />
<glyph unicode="9" d="M133 993q0 205 145.5 348.5t356.5 143.5q205 0 350 -141.5t145 -339.5q0 -190 -145 -392q-47 -66 -117.5 -150.5t-167.5 -191.5l-243 -270h-189l170 174q123 133 170 184q67 76 176 205q-141 -43 -227 -43q-166 0 -295 143.5t-129 329.5zM266 981q0 -145 108.5 -247.5 t264.5 -102.5q150 0 256 108.5t106 264.5q0 147 -107 252.5t-261 105.5q-152 0 -259.5 -111.5t-107.5 -269.5z" />
<glyph unicode=":" horiz-adv-x="372" d="M74 938q0 47 32.5 78t79.5 31q45 0 78 -31t33 -78t-32 -79t-79 -32t-79.5 31t-32.5 80zM78 94q0 47 30.5 80t75.5 33q49 0 82 -33t33 -80q0 -45 -33 -77.5t-80 -32.5q-43 0 -75.5 32.5t-32.5 77.5z" />
<glyph unicode=";" horiz-adv-x="403" d="M74 -242q59 74 79.5 109t55.5 125q-104 8 -105 94v12q4 47 37 78t76 31q51 0 82 -35t31 -94q0 -53 -30 -120t-62.5 -112t-104.5 -125zM104 938q0 47 31 78t80 31q45 0 76 -31t31 -78q0 -43 -31 -76t-76 -33q-47 0 -79 32t-32 77z" />
<glyph unicode="&#x3c;" horiz-adv-x="575" d="M45 502l401 463l84 -80l-331 -383l329 -377l-86 -78z" />
<glyph unicode="=" d="M182 567v115h873v-115h-873zM184 776v115h869v-115h-869z" />
<glyph unicode="&#x3e;" horiz-adv-x="571" d="M45 129l330 373l-330 383l86 78l395 -461l-395 -453z" />
<glyph unicode="?" horiz-adv-x="733" d="M-16 1380l77 47q125 72 267 72q147 0 246.5 -97t99.5 -243q0 -63 -24.5 -130.5t-67.5 -125.5l-90 -119q-20 -27 -42 -56.5t-44 -63.5q-39 -57 -53.5 -93t-14.5 -75q0 -37 24 -172h-100q-37 145 -37 202q0 59 17.5 102.5t83.5 135.5l82 119l79 121q47 84 48 151 q0 102 -66 170t-168 68q-18 0 -38.5 -1t-55.5 -16q-45 -12 -85 -38.5t-97 -82.5zM199 94q0 47 30.5 80t77.5 33t80 -33t33 -80q0 -45 -33 -77.5t-80 -32.5q-43 0 -75.5 32.5t-32.5 77.5z" />
<glyph unicode="@" horiz-adv-x="1699" d="M119 696.5v40.5q0 127 39 247t110 220q94 129 223.5 205t270.5 92q20 2 40.5 3t45.5 1q270 0 443 -177t173 -458q0 -53 -10 -129q-29 -199 -125 -319q-88 -113 -205 -129q-10 -2 -28 -2q-74 0 -125 49t-51 115q2 12 2 18q-12 -41 -43 -76q-70 -82 -168 -82q-49 0 -103 25 q-145 70 -145 360l6 74q18 129 71.5 229.5t127.5 153.5q39 29 78.5 43t76.5 14q115 0 174 -116l9 -21l20 131l96 -2l-80 -450l-2 -13l-26 -174q-4 -37 -4 -53q0 -39 10 -76q20 -70 90 -69q14 0 31 6q29 12 56.5 33.5t68.5 70.5q31 39 57.5 111t40.5 168q6 55 6 108 q0 248 -145.5 402.5t-370.5 154.5q-25 0 -53.5 -3t-44.5 -5q-227 -35 -380 -228.5t-153 -453.5q0 -96 25 -198q55 -225 218 -356.5t368 -131.5q80 0 156.5 20.5t152.5 65.5q31 16 53 33q8 6 49 39q66 53 117 115l49 -46l-53 -59q-123 -125 -255 -184.5t-280 -59.5 q-274 0 -470.5 186.5t-229.5 485.5q-4 25 -4 51.5zM569 594q0 -47 6.5 -73.5t18.5 -55.5q35 -76 119 -76q55 0 96 39q31 31 51.5 63.5t44.5 106.5q12 39 22.5 80t18.5 88l4 20l13 88q6 43 6 74q0 74 -49 133q-41 47 -99 47q-76 0 -135 -77q-20 -29 -40.5 -70t-39.5 -98 q-25 -70 -33 -170q-4 -23 -4 -45.5v-34.5v-39z" />
<glyph unicode="A" horiz-adv-x="1173" d="M0 0l510 1477h154l510 -1477h-164l-168 522h-510l-168 -522h-164zM371 637h436l-197 623q-8 23 -14 46t-6 64q-4 -31 -10.5 -57t-12.5 -53z" />
<glyph unicode="B" horiz-adv-x="1120" d="M162 0v1477h385q182 0 292.5 -102.5t110.5 -272.5q0 -150 -106 -250q-35 -33 -63.5 -49.5t-88.5 -34.5q111 -16 182 -66q158 -109 158 -290q0 -190 -125 -301t-338 -111h-407zM309 127h232q170 0 241 59q94 78 95 230q0 135 -86 208.5t-244 73.5h-238v-571zM309 821h207 q135 0 213 74t78 199q0 121 -71.5 188.5t-198.5 67.5h-228v-529z" />
<glyph unicode="C" horiz-adv-x="1368" d="M88 733q0 313 225.5 538.5t540.5 225.5q59 0 118.5 -10t121.5 -31q92 -33 217 -121l-86 -106l-62 47q-143 90 -313 90q-254 0 -432 -184.5t-178 -452.5q0 -260 184 -444.5t446 -184.5q96 0 177 27q78 20 188 94l74 -96q-43 -31 -66.5 -46.5t-48.5 -27.5 q-156 -78 -344 -78q-313 0 -537.5 222.5t-224.5 537.5z" />
<glyph unicode="D" horiz-adv-x="1261" d="M162 0v1477h254q324 0 541 -211t217 -529q0 -305 -218.5 -521t-523.5 -216h-270zM309 127h113q252 0 428 178t176 432q0 258 -177 435.5t-433 177.5h-107v-1223z" />
<glyph unicode="E" horiz-adv-x="1011" d="M162 0v1477h772l-33 -127h-592v-537h559v-125h-559v-561h629l-35 -127h-741z" />
<glyph unicode="F" horiz-adv-x="901" d="M162 0v1477h751l-34 -127h-570v-539h518l-30 -127h-488v-684h-147z" />
<glyph unicode="G" horiz-adv-x="1687" d="M88 733q0 315 225.5 540.5t542.5 225.5q141 0 272 -51q82 -33 135.5 -70t151.5 -127l-100 -104q-31 35 -35 39q-31 33 -55 51q-74 63 -173.5 100t-197.5 37q-252 0 -432 -188.5t-180 -450.5q0 -260 181 -443t435 -183q233 0 403.5 161.5t204.5 417.5h-620v127h768 q0 -172 -22.5 -262t-90.5 -203q-106 -178 -276 -276.5t-375 -98.5q-315 0 -538.5 221.5t-223.5 536.5z" />
<glyph unicode="H" horiz-adv-x="1353" d="M162 0v1477h147v-658h733v658h148v-1477h-148v692h-733v-692h-147z" />
<glyph unicode="I" horiz-adv-x="471" d="M162 0v1477h147v-1477h-147z" />
<glyph unicode="J" horiz-adv-x="727" d="M-29 86l74 115q27 -20 66 -46t61.5 -36t46 -14.5t49.5 -4.5q41 0 72 13q47 23 61.5 56.5t14.5 123.5v1184h147v-1194q0 -84 -10 -125t-41 -82q-78 -102 -242 -103q-55 0 -103 13.5t-88 34t-108 65.5z" />
<glyph unicode="K" horiz-adv-x="989" d="M162 0v1477h147v-637l453 637h178l-510 -674l604 -803h-190l-535 756v-756h-147z" />
<glyph unicode="L" horiz-adv-x="923" d="M162 0v1477h147v-1350h629l-37 -127h-739z" />
<glyph unicode="M" horiz-adv-x="1785" d="M100 0l179 1477h143l452 -1284l19 -68l10 -59q0 47 4 71.5t17 55.5l450 1284h148l176 -1477h-144l-127 1159l-2 76v76l-12 -72l-20 -82l-406 -1157h-176l-408 1157q-8 25 -13 50.5t-17 103.5v-72l-2 -80l-125 -1159h-146z" />
<glyph unicode="N" horiz-adv-x="1552" d="M162 0v1477h196l826 -1235q23 -33 38 -61.5t35 -82.5l-8 74l-8 68v1237h150v-1477h-187l-842 1249q-20 31 -31.5 55.5t-31.5 88.5l6 -62l4 -80v-1251h-147z" />
<glyph unicode="O" horiz-adv-x="1697" d="M88 737q0 322 221 541t545 219q317 0 536.5 -221t219.5 -539q0 -315 -221.5 -536t-540.5 -221t-539.5 220t-220.5 537zM238 737q0 -260 180 -446.5t430 -186.5q252 0 431 185.5t179 447.5t-180 448.5t-434 186.5q-248 0 -427 -187.5t-179 -447.5z" />
<glyph unicode="P" horiz-adv-x="1046" d="M162 0v1477h411q221 0 340 -106.5t119 -303.5q0 -184 -110.5 -297t-294.5 -113h-318v-657h-147zM309 782h258q94 0 137.5 13.5t88.5 54.5q86 84 86 217q0 141 -91 219q-39 35 -89 49.5t-136 14.5h-254v-568z" />
<glyph unicode="Q" horiz-adv-x="1697" d="M88 737q0 319 220 539.5t540 220.5q317 0 539.5 -218t222.5 -534q0 -193 -51 -307t-213 -284l184 -148l-80 -106l-223 178q-258 -100 -418 -101q-289 0 -505 226.5t-216 533.5zM238 737q0 -260 180 -446.5t432 -186.5t429 185.5t177 447.5q0 264 -179 449.5t-433 185.5 q-248 0 -427 -187.5t-179 -447.5z" />
<glyph unicode="R" horiz-adv-x="1042" d="M162 0v1477h362q96 0 162 -18.5t123 -61.5q141 -104 141 -287q0 -100 -45 -192.5t-121 -143.5q-57 -37 -123.5 -50t-185.5 -13l553 -711h-184l-535 739v-739h-147zM309 819h201q131 0 215 78t84 201q0 121 -78 186.5t-221 65.5h-201v-531z" />
<glyph unicode="S" horiz-adv-x="1034" d="M45 168l100 102q39 -35 56 -49q35 -29 67 -51q96 -61 211 -61q141 0 236.5 88t95.5 221q0 61 -26.5 117.5t-69.5 89.5q-33 23 -78 39t-158.5 42.5t-161 44t-94.5 52.5q-61 47 -98 124t-37 163q0 174 129 292.5t320 118.5q59 0 80.5 -3t78 -17.5t97.5 -30.5q37 -18 75 -37 l-49 -119q-168 86 -291 86q-127 0 -211 -81.5t-84 -202.5q0 -109 86 -174q43 -33 75 -46.5t173 -50.5q88 -23 146.5 -44t103.5 -48q66 -41 105 -119.5t39 -173.5q0 -197 -139.5 -327.5t-350.5 -130.5q-86 0 -182.5 28.5t-243.5 157.5z" />
<glyph unicode="T" horiz-adv-x="802" d="M-16 1350v127h847l-36 -127h-324v-1350h-145v1350h-342z" />
<glyph unicode="U" horiz-adv-x="1355" d="M162 457v1020h147v-1020q0 -94 18.5 -147.5t69.5 -98.5q53 -51 126 -78t155 -27q172 0 280 105q45 43 65.5 99.5t20.5 146.5v1020h150v-1020q0 -229 -137 -348q-145 -127 -379 -127q-111 0 -208 32.5t-170 93t-105.5 144.5t-32.5 205z" />
<glyph unicode="V" horiz-adv-x="1009" d="M16 1477h150l321 -1229l11 -86l6 -72l8 72l10 86l322 1229h149l-411 -1477h-156z" />
<glyph unicode="W" horiz-adv-x="1677" d="M45 1477h148l237 -1162l10 -90l6 -88q8 72 14.5 118t10.5 62l285 1160h168l282 -1160q0 -4 7.5 -47t17.5 -133l6 88l12 90l236 1162h149l-331 -1477h-156l-291 1184q-8 37 -12 67.5t-4 98.5q-8 -84 -12.5 -113t-10.5 -53l-287 -1184h-153z" />
<glyph unicode="X" horiz-adv-x="1067" d="M-29 0l473 764l-452 713h174l332 -543q27 -41 37 -98q8 57 34 98l332 543h174l-452 -713l473 -764h-174l-349 578q-33 53 -38 112q-6 -41 -12.5 -58.5t-28.5 -53.5l-349 -578h-174z" />
<glyph unicode="Y" horiz-adv-x="1013" d="M-59 1477h186l352 -633q6 -12 11.5 -34t11.5 -83q4 45 10 68.5t23 50.5l358 631h180l-495 -822v-655h-146v655z" />
<glyph unicode="Z" horiz-adv-x="1097" d="M6 0l805 1307q20 35 68 65q-57 -22 -88 -22h-3h-677l36 127h936l-802 -1289l-31 -55l-37 -31q23 6 54.5 15.5t56.5 9.5h747l-39 -127h-1026z" />
<glyph unicode="[" horiz-adv-x="520" d="M162 -137v1751h342v-107h-182v-1538h182v-106h-342z" />
<glyph unicode="\" horiz-adv-x="622" d="M113 1475h92l258 -1475h-92z" />
<glyph unicode="]" horiz-adv-x="520" d="M16 -31h183v1538h-183v107h342v-1751h-342v106z" />
<glyph unicode="^" horiz-adv-x="432" d="M-117 1204l334 228l332 -228l-41 -82l-291 164l-293 -164z" />
<glyph unicode="_" horiz-adv-x="1040" d="M113 0h737v-47h-737v47z" />
<glyph unicode="`" horiz-adv-x="258" d="M-51 1356l100 82l330 -248l-76 -66z" />
<glyph unicode="a" horiz-adv-x="1198" d="M88 510q0 231 139.5 382.5t352.5 151.5q49 0 80.5 -4t72.5 -20q63 -18 95 -39t75 -78v131h133v-1034h-133v129l-39 -53q-43 -49 -124 -78t-171 -29q-215 0 -348 149.5t-133 391.5zM236 514q0 -195 98 -313.5t262 -118.5q135 0 216 70.5t81 199.5l6 201q0 119 -6 161 t-35 87q-35 61 -108.5 100t-157.5 39q-160 0 -258 -116.5t-98 -309.5z" />
<glyph unicode="b" horiz-adv-x="1185" d="M162 0v1462l133 43v-579q74 72 143.5 100.5t171.5 28.5q215 0 351.5 -148.5t136.5 -380.5q0 -248 -136.5 -400.5t-355.5 -152.5q-45 0 -94 10.5t-91 28t-66.5 38t-59.5 67.5v-117h-133zM293 373q0 -119 90 -203t217 -84q160 0 258 116.5t98 309.5q0 199 -99 318.5 t-265 119.5q-86 0 -160.5 -38t-103.5 -99q-23 -43 -29 -95t-6 -196v-149z" />
<glyph unicode="c" horiz-adv-x="999" d="M88 512q0 227 160 389t387 162q84 0 138 -15.5t165 -72.5l-55 -117l-56 35q-94 45 -192 45q-168 0 -288 -124t-120 -298t125 -301t301 -127q55 0 107.5 16.5t122.5 55.5l55 -105q-98 -49 -161.5 -67.5t-139.5 -18.5q-227 0 -388 159t-161 384z" />
<glyph unicode="d" horiz-adv-x="1191" d="M88 518q0 233 137 385t350 152q47 0 82 -5.5t86 -21.5q53 -20 79 -36.5t73 -63.5v534l133 43v-1505h-133v127l-41 -49q-45 -47 -121 -76t-160 -29q-207 0 -346 156t-139 389zM233 524q0 -195 98.5 -315.5t262.5 -120.5q182 0 264 150q25 45 33 86t8 129v75l-4 156 q0 111 -92 188.5t-221 77.5q-158 0 -253.5 -115.5t-95.5 -310.5z" />
<glyph unicode="e" horiz-adv-x="1191" d="M88 518q0 227 157.5 383t389.5 156q207 0 356 -131q47 -41 75.5 -79t63.5 -112l-845 -440l49 -62q127 -145 313 -145q84 0 168 39q57 27 94 59.5t99 112.5l102 -66q-14 -23 -28.5 -40t-47.5 -58q-154 -166 -391 -166q-236 0 -395.5 158t-159.5 391zM225 539 q0 -31 7.5 -69t11.5 -67l710 365q-45 63 -81.5 94t-96.5 51q-66 27 -143 27q-164 0 -286 -120t-122 -281z" />
<glyph unicode="f" horiz-adv-x="493" d="M45 913l25 121h94v150q0 125 24.5 183t88 95t141.5 37q41 0 62.5 -4t70.5 -27l-35 -118q-53 30 -95 30h-3q-68 0 -94.5 -47t-26.5 -168v-131h207l-23 -121h-184v-913h-133v913h-119z" />
<glyph unicode="g" horiz-adv-x="1185" d="M88 516q0 233 139.5 385t356.5 152q92 0 174 -35q65 -27 135 -90v106h133v-1054q0 -113 -20.5 -171.5t-81.5 -111.5q-117 -104 -338 -105q-98 0 -171 18.5t-122 42t-137 85.5l65 108q59 -43 98 -65.5t78 -34.5q96 -39 197 -39q139 0 219 69.5t80 194.5v150l-35 -41 q-90 -109 -287 -109q-213 0 -348 151.5t-135 393.5zM229 524q0 -201 98.5 -321.5t258.5 -120.5q94 0 166.5 37t105.5 102q23 43 29 73.5t6 98.5v125l-2 174q0 78 -30 126t-101 87q-80 45 -166 45q-164 0 -264.5 -116.5t-100.5 -309.5z" />
<glyph unicode="h" horiz-adv-x="1210" d="M162 0v1462l133 43v-626q133 178 358 178q182 0 288 -91.5t106 -248.5v-717h-134v698q0 113 -73.5 180.5t-200.5 67.5q-147 0 -245.5 -77.5t-98.5 -194.5v-674h-133z" />
<glyph unicode="i" horiz-adv-x="415" d="M117 1278q0 41 26.5 67.5t65.5 26.5q37 0 64.5 -25.5t27.5 -64.5t-24.5 -65.5t-63.5 -26.5t-67.5 24.5t-28.5 63.5zM141 0v1018l133 45v-1063h-133z" />
<glyph unicode="j" horiz-adv-x="415" d="M117 1282q0 37 26.5 63.5t65.5 26.5q37 0 64.5 -27.5t27.5 -66.5q0 -37 -27.5 -62.5t-62.5 -25.5q-37 0 -65.5 26.5t-28.5 65.5zM141 -371v1389l133 45v-1434h-133z" />
<glyph unicode="k" horiz-adv-x="905" d="M162 0v1462l133 43v-872l395 401h164l-434 -436l530 -598h-182l-473 567v-567h-133z" />
<glyph unicode="l" horiz-adv-x="458" d="M162 0v1462l133 43v-1505h-133z" />
<glyph unicode="m" horiz-adv-x="1832" d="M162 0v1018l133 45v-141q39 41 63.5 59t70.5 37.5t96 31t91 11.5q68 0 128.5 -20.5t97.5 -49t92 -94.5q57 78 145 119t197 41q180 0 299 -103q51 -45 73.5 -103t22.5 -153v-698h-133v684q0 74 -12.5 109.5t-50.5 74.5q-76 76 -213 76q-281 0 -281 -262v-682h-133v668 q0 80 -12.5 118.5t-49 75.5t-95 57.5t-120.5 20.5q-129 0 -206 -70q-37 -33 -53.5 -74.5t-16.5 -111.5v-684h-133z" />
<glyph unicode="n" horiz-adv-x="1206" d="M162 0v1018l133 45v-184l67 73q113 102 289 103q182 0 287.5 -97.5t105.5 -265.5v-692h-133v657q0 129 -53 191q-37 43 -99.5 67.5t-135.5 24.5q-113 0 -203 -66q-68 -47 -96.5 -104t-28.5 -141v-629h-133z" />
<glyph unicode="o" horiz-adv-x="1286" d="M88 512q0 225 163 386t394 161q227 0 390 -161t163 -386q0 -227 -162 -387t-391 -160t-393 160t-164 387zM233 510q0 -182 117 -305t293 -123t294 124t118 306t-117 305t-293 123t-294 -122t-118 -308z" />
<glyph unicode="p" horiz-adv-x="1198" d="M162 -399v1433h133v-131q6 6 27 31q14 16 24 24q96 100 277 101q217 0 352 -149.5t135 -389.5q0 -233 -139.5 -386.5t-354.5 -153.5q-90 0 -180 36q-68 25 -141 101v-471zM295 510l4 -162q0 -35 9 -64.5t26 -60.5q35 -59 109.5 -98t158.5 -39q160 0 260.5 116.5 t100.5 309.5q0 195 -100.5 315.5t-262.5 120.5q-86 0 -157.5 -37t-108.5 -100q-27 -49 -33 -85.5t-6 -147.5v-68z" />
<glyph unicode="q" horiz-adv-x="1193" d="M88 508q0 240 137 395.5t350 155.5q88 0 181 -33q47 -18 76.5 -42t66.5 -75v125h133v-1388l-133 -45v516l-35 -39q-45 -41 -128 -69.5t-161 -28.5q-215 0 -351 148t-136 380zM233 510q0 -190 100.5 -307t266.5 -117q125 0 205 67.5t90 182.5q2 31 4 122t2 117v113 q0 37 -14.5 71t-38.5 66q-88 123 -254 123q-164 0 -262.5 -120.5t-98.5 -317.5z" />
<glyph unicode="r" horiz-adv-x="595" d="M162 0v1018l133 45v-201q31 66 53.5 91.5t72.5 53t91 40t113 20.5v-131l-72 -10q-84 -23 -145 -76q-113 -90 -113 -252v-598h-133z" />
<glyph unicode="s" horiz-adv-x="862" d="M51 57l43 136q59 -43 96 -64q80 -43 187 -43q121 0 198.5 55.5t77.5 143.5q0 127 -151 168l-111 30q-313 90 -313 289q0 125 100.5 209t251.5 84q57 0 125 -10q92 -18 193 -72l-43 -115l-82 41q-98 43 -197 43q-90 0 -148.5 -47t-58.5 -119q0 -68 76 -118 q35 -23 54.5 -31t135.5 -43q135 -45 195 -78q115 -61 115 -209q0 -154 -113 -246t-301 -92q-82 0 -138.5 12.5t-90 25.5t-101.5 50z" />
<glyph unicode="t" horiz-adv-x="479" d="M45 913l256 433v-312h193l-33 -121h-160v-913h-133v913h-123z" />
<glyph unicode="u" horiz-adv-x="1200" d="M162 350v684h133v-680q0 -147 84 -210.5t221 -63.5q61 0 121.5 16.5t99.5 44.5q82 63 82 213v680h133v-684q0 -113 -24.5 -179.5t-85.5 -113.5q-117 -92 -326 -92q-201 0 -326 92q-59 45 -85.5 113t-26.5 180z" />
<glyph unicode="v" horiz-adv-x="931" d="M-29 1034h150l313 -811q12 -35 18.5 -60.5t12.5 -76.5q6 33 13 70t20 67l311 811h152l-418 -1034h-154z" />
<glyph unicode="w" horiz-adv-x="1523" d="M45 1034h145l195 -792l8 -72l8 -59q8 80 27 135l260 788h143l261 -788q12 -33 18 -67t10 -68l6 59q0 51 11 72l196 792h146l-262 -1034h-179l-254 784q-10 31 -16 62t-6 80l-12 -60q-4 -35 -6.5 -47t-8.5 -35l-270 -784h-156z" />
<glyph unicode="x" horiz-adv-x="897" d="M-45 0l407 528l-397 506h176l262 -350q14 -18 24.5 -40.5t21.5 -61.5q12 45 20 62.5t25 39.5l264 350h174l-397 -506l405 -528h-170l-278 367q-27 39 -43 100q-10 -41 -16.5 -56.5t-26.5 -43.5l-277 -367h-174z" />
<glyph unicode="y" horiz-adv-x="897" d="M-45 1034h145l314 -784q20 -45 30 -150l15 72l20 76l332 786h145l-591 -1405h-152l162 371z" />
<glyph unicode="z" horiz-adv-x="931" d="M-37 0l674 856q16 20 34.5 35.5t67.5 48.5q-45 -12 -70.5 -19.5t-60.5 -7.5h-502l39 121h795l-668 -854q-8 -10 -25.5 -26.5t-43.5 -34.5l-41 -33q37 18 64.5 24.5t70.5 6.5h573l-34 -117h-873z" />
<glyph unicode="{" horiz-adv-x="645" d="M113 737q55 0 90 41t35 105v696q0 119 149 119h96v-53h-22q-76 0 -98.5 -25t-22.5 -104v-627q0 -96 -78 -135q-27 -14 -51 -17q57 -6 93 -48t36 -103v-627q0 -82 21.5 -105.5t99.5 -23.5h22v-53h-96q-150 0 -149 119v696q0 98 -80 133z" />
<glyph unicode="|" horiz-adv-x="344" d="M113 0v1475h92v-1475h-92z" />
<glyph unicode="}" horiz-adv-x="645" d="M113 -170h22q76 0 98.5 24.5t22.5 104.5v627q0 61 36 103t93 48q-57 6 -93 48t-36 104v627q0 82 -21.5 105.5t-99.5 23.5h-22v53h96q150 0 149 -119v-696q0 -63 34 -102.5t91 -43.5q-55 -4 -90 -43t-35 -102v-696q0 -119 -149 -119h-96v53z" />
<glyph unicode="~" horiz-adv-x="501" d="M-16 1583v127q55 14 83.5 18.5t67.5 4.5q23 0 50.5 -2t54.5 -9l75 -18q68 -16 121 -16q61 0 97 8t88 37v-127q-59 -16 -100.5 -23.5t-74.5 -7.5q-45 0 -61 2q-49 10 -86 16q-109 27 -164 27q-41 0 -65.5 -6t-85.5 -31z" />
<glyph unicode="&#xa1;" horiz-adv-x="487" d="M133 1382q0 45 34 77t79 32t76.5 -32t31.5 -77q0 -49 -30.5 -79.5t-77.5 -30.5t-80 30.5t-33 79.5zM154 0l39 1147h96l37 -1147h-172z" />
<glyph unicode="&#xa2;" horiz-adv-x="999" d="M88 512q0 223 156 385q66 70 122 99.5t171 56.5v127h88v-123q111 0 163 -15.5t150 -66.5l-55 -117q-80 49 -123 61.5t-139 12.5v-840q94 0 137 11.5t125 56.5l55 -105q-76 -41 -115 -55q-78 -31 -213 -31v-110h-88v121q-90 25 -140 49t-106 73q-90 80 -139 185.5 t-49 224.5zM233 516q0 -143 81 -254.5t212 -146.5v805q-141 -53 -217 -157t-76 -247z" />
<glyph unicode="&#xa3;" horiz-adv-x="927" d="M59 43l29 104q70 -16 105 -16q76 0 127 53.5t51 134.5q0 76 -64 250l-45 123h-158v90h129q-59 156 -69 203q-20 86 -21 150q0 154 104.5 258t256.5 104q43 0 71.5 -5t73.5 -21.5t72 -32t72 -58.5l-37 -120q-49 49 -82 73q-80 59 -174 60q-92 0 -155.5 -68t-63.5 -170 q0 -61 22.5 -142t81.5 -237h324v-86h-291l31 -96q27 -82 40 -142.5t13 -101.5q0 -111 -70 -186q-37 -37 -115 -66q82 -14 148 -14l100 4q106 10 168 25.5t166 60.5l-25 -137q-135 -41 -222 -55.5t-197 -14.5q-139 0 -232 23q-51 12 -164 53z" />
<glyph unicode="&#xa4;" horiz-adv-x="1009" d="M113 440l135 135q-57 70 -58 162q0 92 56 164l-133 125l12 16l12 17l15 14l14 12l135 -129q74 55 168 56q16 0 35.5 -3t54.5 -13.5t74 -39.5l131 131q35 -27 57 -59l-135 -127q51 -72 51 -164q0 -94 -53 -162l135 -137l-14 -12l-12 -14l-17 -15l-16 -12l-131 133 q-76 -55 -164 -55q-90 0 -164 57l-135 -133q-25 18 -41 39zM276 737q0 -76 55.5 -131t133.5 -55t131 55q55 53 55 131t-54 132.5t-132 54.5q-80 0 -134.5 -54.5t-54.5 -132.5z" />
<glyph unicode="&#xa5;" horiz-adv-x="1236" d="M53 1477h187l350 -633q8 -18 14 -44t12 -73q0 68 31 119l359 631h178l-381 -633l334 -2v-129h-412l-35 -58l-2 -32h442v-144h-442l2 -479h-147v479l-434 2v144h434v30l-29 52h-403v137h329z" />
<glyph unicode="&#xa7;" horiz-adv-x="1146" d="M70 551q0 113 67 199q33 41 69.5 65t104.5 51l-55 54q-80 90 -80 210q0 152 123 258.5t299 106.5q184 0 311 -127q57 -59 78 -109.5t31 -154.5h-148q-8 72 -22 110.5t-47 73.5q-39 43 -94.5 68.5t-112.5 25.5q-102 0 -180 -73.5t-78 -167.5q0 -96 72 -164q23 -25 45 -39 t65 -29l338 -110q219 -72 219 -305q0 -94 -53 -172q-29 -45 -64.5 -71t-113.5 -56l63 -64q66 -82 66 -201q0 -158 -118 -261t-298 -103t-305 108q-68 59 -93.5 119t-25.5 170l146 -2q0 -76 15 -115t58 -83t96.5 -65.5t108.5 -21.5q109 0 182.5 70t73.5 172q0 172 -184 236 l-338 108q-221 66 -221 289zM225 573q0 -74 48.5 -133t129.5 -82l289 -84q90 0 132 20.5t77 80.5q25 47 25 100q0 74 -43 131t-119 82l-303 96h-25q-70 0 -103.5 -14t-62.5 -57q-45 -61 -45 -140z" />
<glyph unicode="&#xa8;" horiz-adv-x="489" d="M-16 1217q0 37 27.5 64.5t64.5 27.5q39 0 67.5 -29t28.5 -70q0 -35 -26.5 -59.5t-65.5 -24.5t-67.5 27t-28.5 64zM319 1210q0 41 27 70t70 29q37 0 62.5 -28t25.5 -64q0 -37 -26.5 -64t-65.5 -27q-37 0 -65 25.5t-28 58.5z" />
<glyph unicode="&#xa9;" horiz-adv-x="1908" d="M119 739q0 317 223 541q109 109 251 166t290 57q152 0 289 -55t249.5 -167t169 -251t56.5 -291q0 -150 -55.5 -289t-166 -249.5t-252 -169t-290.5 -58.5q-152 0 -290 56.5t-251 169.5q-223 223 -223 540zM203 739q0 -139 51 -263t149.5 -224t220 -150.5t259.5 -50.5 q135 0 258 50.5t220 149.5t149.5 226t52.5 262q0 283 -201 488q-94 96 -220 148t-259 52q-279 0 -480 -200q-94 -96 -147 -224.5t-53 -263.5zM389 723q0 100 35 197q57 154 187 242.5t296 88.5q55 0 99 -8q136 -21 247 -117l-49 -69q-86 80 -205 102q-41 8 -88 8 q-158 0 -275.5 -101t-143.5 -261q-6 -41 -7 -82q0 -88 33 -168t92 -139q125 -119 299 -119q129 0 234 65q10 6 25.5 16.5t31.5 27.5l51 -68q-72 -61 -155.5 -93t-180.5 -32q-225 0 -375.5 146.5t-150.5 363.5z" />
<glyph unicode="&#xaa;" horiz-adv-x="978" d="M113 1147q0 35 6 70q25 127 114 203.5t203 76.5q29 0 60 -6q127 -27 184 -139l10 -17l6 -14v154h97v-656h-99v164l-6 -16q-31 -74 -102.5 -119t-155.5 -45q-90 0 -174 55q-109 74 -137 219q-6 35 -6 70zM135 625v90h658v-90h-658zM215 1149q0 -33 4 -49q23 -109 103 -164 q66 -43 135 -43q72 0 135 45q76 53 98 158q6 29 6 57q0 25 -6 53.5t-16 53.5l-21 38q-31 51 -86 81t-112 30q-96 0 -168 -74q-55 -59 -68 -139q-4 -16 -4 -47z" />
<glyph unicode="&#xab;" horiz-adv-x="872" d="M45 502l401 463l84 -80l-331 -383l329 -377l-86 -78zM338 502l405 463l84 -80l-331 -383l327 -377l-86 -78z" />
<glyph unicode="&#xac;" horiz-adv-x="1226" d="M113 737v92h909v-387h-86v295h-823z" />
<glyph unicode="&#xad;" horiz-adv-x="595" d="M45 537v143h506v-143h-506z" />
<glyph unicode="&#xae;" horiz-adv-x="1908" d="M119 739q0 317 223 541q109 109 251 166t290 57q152 0 289 -55t249.5 -167t169 -251t56.5 -291q0 -150 -55.5 -289t-166 -249.5t-252 -169t-290.5 -58.5q-152 0 -290 56.5t-251 169.5q-223 223 -223 540zM203 739q0 -139 51 -263t149.5 -224t220 -150.5t259.5 -50.5 q135 0 258 50.5t220 149.5t149.5 226t52.5 262q0 283 -201 488q-94 96 -220 148t-259 52q-279 0 -480 -200q-94 -96 -147 -224.5t-53 -263.5zM662 250v999h202q82 0 129 -13t88 -48q66 -53 84 -148q4 -14 4 -29.5v-29.5q0 -109 -63.5 -178.5t-173.5 -81.5h-41l328 -471h-117 l-344 508v-508h-96zM758 784h86q229 0 229 189q0 92 -55 143t-158 51h-102v-383z" />
<glyph unicode="&#xaf;" horiz-adv-x="419" d="M-10 1149v117h444v-117h-444z" />
<glyph unicode="&#xb1;" horiz-adv-x="1216" d="M90 39v139h946v-139h-946zM90 539v139h404v250h139v-250h403v-139h-403v-250h-139v250h-404z" />
<glyph unicode="&#xb4;" horiz-adv-x="333" d="M25 1186l329 252l99 -88l-359 -226z" />
<glyph unicode="&#xb5;" horiz-adv-x="1275" d="M150 -285l4 119l4 182l-2 207l-4 195v502h188v-607q0 -145 28.5 -194t102.5 -49q117 0 194.5 165.5t77.5 417.5v267h189v-672q0 -92 19.5 -135t58.5 -43q41 0 64.5 42t23.5 126v28h43l2 -18v-27q0 -113 -48 -176t-137 -63q-100 0 -154 88t-54 264q-47 -182 -126 -267 t-198 -85q-86 0 -150 53q-57 55 -81 158l-2 -58q0 -133 65.5 -290.5t65.5 -186.5q0 -41 -22.5 -63.5t-63.5 -22.5q-47 0 -67.5 35t-20.5 108z" />
<glyph unicode="&#xb6;" horiz-adv-x="1292" d="M113 1100q0 156 109 265.5t263 109.5h598v-82h-600q-119 0 -202.5 -86t-83.5 -213q0 -119 85 -204t203 -85h150v512h82v-1317h-82v723h-150q-154 0 -263 109.5t-109 267.5zM862 0v1317h82v-1317h-82z" />
<glyph unicode="&#xb7;" horiz-adv-x="370" d="M74 610q0 49 30.5 80t77.5 31t80 -31t33 -80q0 -43 -33 -75.5t-80 -32.5t-77.5 30.5t-30.5 77.5z" />
<glyph unicode="&#xb8;" horiz-adv-x="272" d="M-16 -338l196 287l105 -35l-215 -274z" />
<glyph unicode="&#xba;" horiz-adv-x="983" d="M113 1153l6 68q20 111 88.5 183.5t175.5 94.5q16 2 32.5 5t39.5 3q12 0 29.5 -2t39.5 -6q106 -23 176 -94.5t91 -183.5q6 -35 6 -68t-6 -68q-20 -109 -90 -181.5t-177 -96.5q-35 -6 -69 -6q-35 0 -70 6q-106 23 -176 95.5t-90 182.5zM125 625v90h659v-90h-659zM213 1153 q0 -111 67.5 -185.5t172.5 -74.5q61 0 117.5 31.5t91 90t34.5 138.5q0 82 -34.5 140.5t-91 90t-117.5 31.5q-102 0 -171 -74.5t-69 -187.5z" />
<glyph unicode="&#xbb;" horiz-adv-x="866" d="M45 129l330 373l-330 383l86 78l395 -461l-395 -453zM338 129l330 373l-330 383l88 78l395 -461l-393 -453z" />
<glyph unicode="&#xbf;" horiz-adv-x="733" d="M57 324q0 141 95 258l90 120l84 117q39 57 53 93t14 75q0 53 -6 88q-14 51 -20 84h104q18 -74 25.5 -117t7.5 -86q0 -61 -15.5 -100t-82.5 -137l-82 -117l-78 -121q-49 -78 -49 -153q0 -102 65.5 -170t167.5 -68q23 0 36 2t60 14q80 27 181 121l38 -121 q-16 -12 -43.5 -29.5t-33.5 -21.5q-123 -72 -262 -71q-150 0 -249.5 97t-99.5 243zM311 1391q0 45 34 76.5t81 31.5q45 0 77 -31.5t32 -76.5q0 -47 -32 -79t-77 -32q-49 0 -82 31t-33 80z" />
<glyph unicode="&#xc0;" horiz-adv-x="1173" d="M0 0l510 1477h154l510 -1477h-164l-168 522h-510l-168 -522h-164zM371 637h436l-197 623q-8 23 -14 46t-6 64q-4 -31 -10.5 -57t-12.5 -53zM406 1841l100 82l330 -248l-76 -66z" />
<glyph unicode="&#xc1;" horiz-adv-x="1173" d="M0 0l510 1477h154l510 -1477h-164l-168 522h-510l-168 -522h-164zM371 637h436l-197 623q-8 23 -14 46t-6 64q-4 -31 -10.5 -57t-12.5 -53zM445 1671l329 252l99 -88l-359 -226z" />
<glyph unicode="&#xc2;" horiz-adv-x="1173" d="M0 0l510 1477h154l510 -1477h-164l-168 522h-510l-168 -522h-164zM254 1689l334 228l332 -228l-41 -82l-291 164l-293 -164zM371 637h436l-197 623q-8 23 -14 46t-6 64q-4 -31 -10.5 -57t-12.5 -53z" />
<glyph unicode="&#xc3;" horiz-adv-x="1173" d="M0 0l510 1477h154l510 -1477h-164l-168 522h-510l-168 -522h-164zM313 1632v108q76 23 127 23q33 0 54.5 -4t101.5 -23q37 -10 55.5 -12t48.5 -2q63 0 93 9t69 30v-111q-49 -12 -89 -19t-62 -7q-45 0 -116 15t-94.5 19.5t-58.5 4.5q-31 0 -57.5 -6.5t-71.5 -24.5z M371 637h436l-197 623q-8 23 -14 46t-6 64q-4 -31 -10.5 -57t-12.5 -53z" />
<glyph unicode="&#xc4;" horiz-adv-x="1173" d="M0 0l510 1477h154l510 -1477h-164l-168 522h-510l-168 -522h-164zM301 1567q0 43 28.5 71.5t71.5 28.5q41 0 69 -29.5t28 -70.5t-29 -67.5t-70 -26.5q-39 0 -68.5 27.5t-29.5 66.5zM371 637h436l-197 623q-8 23 -14 46t-6 64q-4 -31 -10.5 -57t-12.5 -53zM678 1567 q0 43 26.5 71.5t67.5 28.5q43 0 71.5 -28.5t28.5 -71.5q0 -41 -26.5 -67.5t-69.5 -26.5q-41 0 -69.5 26.5t-28.5 67.5z" />
<glyph unicode="&#xc5;" horiz-adv-x="1173" d="M0 0l510 1477h154l510 -1477h-164l-168 522h-510l-168 -522h-164zM371 637h436l-197 623q-8 23 -14 46t-6 64q-4 -31 -10.5 -57t-12.5 -53zM410 1724q0 74 53 123t129 49q72 0 125 -49t53 -121t-53 -121t-127 -49t-127 49t-53 119zM496 1726q0 -39 26.5 -65.5t67.5 -26.5 q37 0 64.5 28t27.5 64q0 37 -26.5 66t-65.5 29t-66.5 -28t-27.5 -67z" />
<glyph unicode="&#xc6;" horiz-adv-x="1763" d="M0 0l846 1477h842l-37 -127h-592v-533h557v-127h-557v-563h629l-37 -127h-742v514h-456l-279 -514h-174zM522 633h387v700z" />
<glyph unicode="&#xc7;" horiz-adv-x="1368" d="M88 733q0 313 225.5 538.5t540.5 225.5q59 0 118.5 -10t121.5 -31q92 -33 217 -121l-86 -106l-62 47q-143 90 -313 90q-254 0 -432 -184.5t-178 -452.5q0 -260 184 -444.5t446 -184.5q96 0 177 27q78 20 188 94l74 -96q-43 -31 -66.5 -46.5t-48.5 -27.5 q-156 -78 -344 -78q-313 0 -537.5 222.5t-224.5 537.5zM602 -338l195 287l106 -35l-217 -274z" />
<glyph unicode="&#xc8;" horiz-adv-x="1011" d="M162 0v1477h772l-33 -127h-592v-537h559v-125h-559v-561h629l-35 -127h-741zM326 1841l100 82l330 -248l-76 -66z" />
<glyph unicode="&#xc9;" horiz-adv-x="1011" d="M162 0v1477h772l-33 -127h-592v-537h559v-125h-559v-561h629l-35 -127h-741zM363 1671l329 252l99 -88l-359 -226z" />
<glyph unicode="&#xca;" horiz-adv-x="1011" d="M162 0v1477h772l-33 -127h-592v-537h559v-125h-559v-561h629l-35 -127h-741zM172 1689l334 228l332 -228l-41 -82l-291 164l-293 -164z" />
<glyph unicode="&#xcb;" horiz-adv-x="1011" d="M162 0v1477h772l-33 -127h-592v-537h559v-125h-559v-561h629l-35 -127h-741zM244 1702q0 37 27.5 64.5t64.5 27.5q39 0 67.5 -29t28.5 -70q0 -35 -26.5 -59.5t-65.5 -24.5t-67.5 27t-28.5 64zM579 1695q0 41 27 70t70 29q37 0 62.5 -28t25.5 -64q0 -37 -26.5 -64 t-65.5 -27q-37 0 -65 25.5t-28 58.5z" />
<glyph unicode="&#xcc;" horiz-adv-x="471" d="M55 1841l100 82l330 -248l-76 -66zM162 0v1477h147v-1477h-147z" />
<glyph unicode="&#xcd;" horiz-adv-x="471" d="M93 1671l329 252l99 -88l-359 -226zM162 0v1477h147v-1477h-147z" />
<glyph unicode="&#xce;" horiz-adv-x="471" d="M-99 1689l334 228l332 -228l-41 -82l-291 164l-293 -164zM162 0v1477h147v-1477h-147z" />
<glyph unicode="&#xcf;" horiz-adv-x="471" d="M-24 1702q0 37 27.5 64.5t64.5 27.5q39 0 67.5 -29t28.5 -70q0 -35 -26.5 -59.5t-65.5 -24.5t-67.5 27t-28.5 64zM162 0v1477h147v-1477h-147zM311 1695q0 41 27 70t70 29q37 0 62.5 -28t25.5 -64q0 -37 -26.5 -64t-65.5 -27q-37 0 -65 25.5t-28 58.5z" />
<glyph unicode="&#xd1;" horiz-adv-x="1552" d="M162 0v1477h196l826 -1235q23 -33 38 -61.5t35 -82.5l-8 74l-8 68v1237h150v-1477h-187l-842 1249q-20 31 -31.5 55.5t-31.5 88.5l6 -62l4 -80v-1251h-147zM504 1632v108q76 23 127 23q33 0 54.5 -4t101.5 -23q37 -10 55.5 -12t48.5 -2q63 0 93 9t69 30v-111 q-49 -12 -89 -19t-62 -7q-45 0 -116 15t-94.5 19.5t-58.5 4.5q-31 0 -57.5 -6.5t-71.5 -24.5z" />
<glyph unicode="&#xd2;" horiz-adv-x="1697" d="M88 737q0 322 221 541t545 219q317 0 536.5 -221t219.5 -539q0 -315 -221.5 -536t-540.5 -221t-539.5 220t-220.5 537zM238 737q0 -260 180 -446.5t430 -186.5q252 0 431 185.5t179 447.5t-180 448.5t-434 186.5q-248 0 -427 -187.5t-179 -447.5zM668 1841l100 82 l330 -248l-76 -66z" />
<glyph unicode="&#xd3;" horiz-adv-x="1697" d="M88 737q0 322 221 541t545 219q317 0 536.5 -221t219.5 -539q0 -315 -221.5 -536t-540.5 -221t-539.5 220t-220.5 537zM238 737q0 -260 180 -446.5t430 -186.5q252 0 431 185.5t179 447.5t-180 448.5t-434 186.5q-248 0 -427 -187.5t-179 -447.5zM707 1671l329 252 l99 -88l-359 -226z" />
<glyph unicode="&#xd4;" horiz-adv-x="1697" d="M88 737q0 322 221 541t545 219q317 0 536.5 -221t219.5 -539q0 -315 -221.5 -536t-540.5 -221t-539.5 220t-220.5 537zM238 737q0 -260 180 -446.5t430 -186.5q252 0 431 185.5t179 447.5t-180 448.5t-434 186.5q-248 0 -427 -187.5t-179 -447.5zM516 1689l334 228 l332 -228l-41 -82l-291 164l-293 -164z" />
<glyph unicode="&#xd5;" horiz-adv-x="1697" d="M88 737q0 322 221 541t545 219q317 0 536.5 -221t219.5 -539q0 -315 -221.5 -536t-540.5 -221t-539.5 220t-220.5 537zM238 737q0 -260 180 -446.5t430 -186.5q252 0 431 185.5t179 447.5t-180 448.5t-434 186.5q-248 0 -427 -187.5t-179 -447.5zM575 1632v108 q76 23 127 23q33 0 54.5 -4t101.5 -23q37 -10 55.5 -12t48.5 -2q63 0 93 9t69 30v-111q-49 -12 -89 -19t-62 -7q-45 0 -116 15t-94.5 19.5t-58.5 4.5q-31 0 -57.5 -6.5t-71.5 -24.5z" />
<glyph unicode="&#xd6;" horiz-adv-x="1697" d="M88 737q0 322 221 541t545 219q317 0 536.5 -221t219.5 -539q0 -315 -221.5 -536t-540.5 -221t-539.5 220t-220.5 537zM238 737q0 -260 180 -446.5t430 -186.5q252 0 431 185.5t179 447.5t-180 448.5t-434 186.5q-248 0 -427 -187.5t-179 -447.5zM371 1569 q0 43 26.5 71.5t67.5 28.5t69.5 -28.5t28.5 -71.5q0 -39 -28.5 -67.5t-69.5 -28.5t-67.5 28.5t-26.5 67.5zM1135 1569q0 43 26.5 71.5t69.5 28.5q41 0 69.5 -28.5t28.5 -71.5q0 -41 -27.5 -68.5t-68.5 -27.5t-69.5 28.5t-28.5 67.5z" />
<glyph unicode="&#xd8;" horiz-adv-x="1710" d="M84 795q0 133 57.5 256t167.5 225q236 223 490 223q96 0 236 -49t308 -141l213 223l64 -66l-205 -217q90 -162 143.5 -315.5t53.5 -249.5q0 -133 -57.5 -258t-168 -229.5t-238.5 -162t-253 -57.5q-199 0 -533 170l-196 -210l-72 67l201 217q-96 162 -153.5 318.5 t-57.5 255.5zM242 782q-1 -170 149 -463l860 898q-281 152 -434 151q-213 0 -401 -188q-174 -174 -174 -398zM465 254q266 -152 416 -152q209 0 405 197q176 172 176 393q0 80 -37.5 195t-113.5 260z" />
<glyph unicode="&#xd9;" horiz-adv-x="1355" d="M162 457v1020h147v-1020q0 -94 18.5 -147.5t69.5 -98.5q53 -51 126 -78t155 -27q172 0 280 105q45 43 65.5 99.5t20.5 146.5v1020h150v-1020q0 -229 -137 -348q-145 -127 -379 -127q-111 0 -208 32.5t-170 93t-105.5 144.5t-32.5 205zM498 1841l100 82l330 -248l-76 -66z " />
<glyph unicode="&#xda;" horiz-adv-x="1355" d="M162 457v1020h147v-1020q0 -94 18.5 -147.5t69.5 -98.5q53 -51 126 -78t155 -27q172 0 280 105q45 43 65.5 99.5t20.5 146.5v1020h150v-1020q0 -229 -137 -348q-145 -127 -379 -127q-111 0 -208 32.5t-170 93t-105.5 144.5t-32.5 205zM535 1671l329 252l99 -88l-359 -226 z" />
<glyph unicode="&#xdb;" horiz-adv-x="1355" d="M162 457v1020h147v-1020q0 -94 18.5 -147.5t69.5 -98.5q53 -51 126 -78t155 -27q172 0 280 105q45 43 65.5 99.5t20.5 146.5v1020h150v-1020q0 -229 -137 -348q-145 -127 -379 -127q-111 0 -208 32.5t-170 93t-105.5 144.5t-32.5 205zM344 1689l334 228l332 -228l-41 -82 l-291 164l-293 -164z" />
<glyph unicode="&#xdc;" horiz-adv-x="1355" d="M162 457v1020h147v-1020q0 -94 18.5 -147.5t69.5 -98.5q53 -51 126 -78t155 -27q172 0 280 105q45 43 65.5 99.5t20.5 146.5v1020h150v-1020q0 -229 -137 -348q-145 -127 -379 -127q-111 0 -208 32.5t-170 93t-105.5 144.5t-32.5 205zM397 1563q0 43 27 71.5t70 28.5 q39 0 67.5 -28.5t28.5 -69.5t-29 -68t-69 -27q-41 0 -68 27t-27 66zM766 1563q0 41 27.5 70.5t70.5 29.5q41 0 70 -28.5t29 -71.5q0 -41 -28 -67t-69 -26t-70.5 28t-29.5 65z" />
<glyph unicode="&#xdf;" horiz-adv-x="1134" d="M162 0v1110q0 109 18.5 167t69.5 114q106 106 295 106q166 0 272.5 -96t106.5 -246q0 -76 -29 -136.5t-96 -115.5q-35 -29 -66 -46t-80 -34q70 0 102.5 -7t82.5 -34q100 -51 153 -143t53 -213q0 -190 -126.5 -321.5t-309.5 -131.5q-70 0 -182 27l29 115q94 -23 143 -23 q127 0 215 96.5t88 237.5q0 150 -100.5 236t-278.5 86l-110 -5v127q176 0 270 74t94 207q0 100 -67.5 167.5t-171.5 67.5q-123 0 -193 -81q-29 -33 -39 -71t-10 -120v-1114h-133z" />
<glyph unicode="&#xe0;" horiz-adv-x="1198" d="M88 510q0 231 139.5 382.5t352.5 151.5q49 0 80.5 -4t72.5 -20q63 -18 95 -39t75 -78v131h133v-1034h-133v129l-39 -53q-43 -49 -124 -78t-171 -29q-215 0 -348 149.5t-133 391.5zM236 514q0 -195 98 -313.5t262 -118.5q135 0 216 70.5t81 199.5l6 201q0 119 -6 161 t-35 87q-35 61 -108.5 100t-157.5 39q-160 0 -258 -116.5t-98 -309.5zM418 1356l100 82l330 -248l-76 -66z" />
<glyph unicode="&#xe1;" horiz-adv-x="1198" d="M88 510q0 231 139.5 382.5t352.5 151.5q49 0 80.5 -4t72.5 -20q63 -18 95 -39t75 -78v131h133v-1034h-133v129l-39 -53q-43 -49 -124 -78t-171 -29q-215 0 -348 149.5t-133 391.5zM236 514q0 -195 98 -313.5t262 -118.5q135 0 216 70.5t81 199.5l6 201q0 119 -6 161 t-35 87q-35 61 -108.5 100t-157.5 39q-160 0 -258 -116.5t-98 -309.5zM457 1186l329 252l99 -88l-359 -226z" />
<glyph unicode="&#xe2;" horiz-adv-x="1198" d="M88 510q0 231 139.5 382.5t352.5 151.5q49 0 80.5 -4t72.5 -20q63 -18 95 -39t75 -78v131h133v-1034h-133v129l-39 -53q-43 -49 -124 -78t-171 -29q-215 0 -348 149.5t-133 391.5zM236 514q0 -195 98 -313.5t262 -118.5q135 0 216 70.5t81 199.5l6 201q0 119 -6 161 t-35 87q-35 61 -108.5 100t-157.5 39q-160 0 -258 -116.5t-98 -309.5zM266 1204l334 228l332 -228l-41 -82l-291 164l-293 -164z" />
<glyph unicode="&#xe3;" horiz-adv-x="1198" d="M88 510q0 231 139.5 382.5t352.5 151.5q49 0 80.5 -4t72.5 -20q63 -18 95 -39t75 -78v131h133v-1034h-133v129l-39 -53q-43 -49 -124 -78t-171 -29q-215 0 -348 149.5t-133 391.5zM236 514q0 -195 98 -313.5t262 -118.5q135 0 216 70.5t81 199.5l6 201q0 119 -6 161 t-35 87q-35 61 -108.5 100t-157.5 39q-160 0 -258 -116.5t-98 -309.5zM325 1147v108q76 23 127 23q33 0 54.5 -4t101.5 -23q37 -10 55.5 -12t48.5 -2q63 0 93 9t69 30v-111q-49 -12 -89 -19t-62 -7q-45 0 -116 15t-94.5 19.5t-58.5 4.5q-31 0 -57.5 -6.5t-71.5 -24.5z" />
<glyph unicode="&#xe4;" horiz-adv-x="1196" d="M88 510q0 231 139.5 382.5t354.5 151.5q86 0 151 -24q51 -16 85 -35.5t85 -64.5v114h129v-1034h-131v121l-37 -45q-49 -49 -128 -78t-167 -29q-217 0 -349 148.5t-132 392.5zM236 514q0 -195 98 -313.5t262 -118.5q193 0 262 137q23 41 33 120t10 224q0 98 -8 145.5 t-35 92.5q-35 61 -107.5 100t-158.5 39q-160 0 -258 -116.5t-98 -309.5zM360 1227q0 39 27 65.5t66 26.5q41 0 68.5 -27.5t27.5 -68.5q0 -35 -26.5 -59.5t-65.5 -24.5t-68 24.5t-29 63.5zM694 1223q0 39 29 67.5t70 28.5q37 0 62.5 -27.5t25.5 -64.5t-28 -62.5t-65 -25.5 q-35 0 -63.5 24.5t-30.5 59.5z" />
<glyph unicode="&#xe5;" horiz-adv-x="1196" d="M88 510q0 231 139.5 382.5t354.5 151.5q86 0 151 -24q51 -16 85 -35.5t85 -64.5v114h129v-1034h-131v121l-37 -45q-49 -49 -128 -78t-167 -29q-217 0 -349 148.5t-132 392.5zM236 514q0 -195 98 -313.5t262 -118.5q193 0 262 137q23 41 33 120t10 224q0 98 -8 145.5 t-35 92.5q-35 61 -107.5 100t-158.5 39q-160 0 -258 -116.5t-98 -309.5zM453 1276q0 72 52 122t128 50q74 0 126 -50t52 -120q0 -72 -51 -121t-129 -49q-76 0 -127 47t-51 121zM539 1278q0 -37 26.5 -65.5t63.5 -28.5q41 0 66.5 27.5t25.5 66.5t-24.5 65.5t-65.5 26.5 q-39 0 -65.5 -26.5t-26.5 -65.5z" />
<glyph unicode="&#xe6;" horiz-adv-x="2000" d="M88 518q0 227 142.5 382t353.5 155q90 0 176 -35q49 -16 73.5 -32.5t67.5 -63.5v110h131v-166l64 68q63 59 153 92t189 33q109 0 217 -45q90 -37 149.5 -94.5t139.5 -184.5l-859 -444l68 -80q55 -55 134 -89t159 -34q88 0 183 44t181 165l103 -57q-37 -63 -66 -99 q-70 -80 -177 -127t-224 -47q-115 0 -217 47q-63 27 -99 52.5t-98 89.5v-158h-135v111l-39 -39q-49 -41 -132 -70t-159 -29q-209 0 -344 154t-135 391zM229 514q0 -190 101.5 -308t263.5 -118q133 0 216 70.5t83 191.5q4 41 6 104.5t2 118.5q0 111 -8 154t-41 90 q-43 61 -113.5 96t-152.5 35q-156 0 -256.5 -120.5t-100.5 -313.5zM1028 545q0 -58 14 -142l723 373q-45 63 -79.5 92t-101 53.5t-142.5 24.5q-172 0 -293 -118.5t-121 -282.5z" />
<glyph unicode="&#xe7;" horiz-adv-x="999" d="M88 512q0 227 160 389t387 162q84 0 138 -15.5t165 -72.5l-55 -117l-56 35q-94 45 -192 45q-168 0 -288 -124t-120 -298t125 -301t301 -127q55 0 107.5 16.5t122.5 55.5l55 -105q-98 -49 -161.5 -67.5t-139.5 -18.5q-227 0 -388 159t-161 384zM379 -338l194 287l107 -35 l-217 -274z" />
<glyph unicode="&#xe8;" horiz-adv-x="1191" d="M88 518q0 227 157.5 383t389.5 156q207 0 356 -131q47 -41 75.5 -79t63.5 -112l-845 -440l49 -62q127 -145 313 -145q84 0 168 39q57 27 94 59.5t99 112.5l102 -66q-14 -23 -28.5 -40t-47.5 -58q-154 -166 -391 -166q-236 0 -395.5 158t-159.5 391zM225 539 q0 -31 7.5 -69t11.5 -67l710 365q-45 63 -81.5 94t-96.5 51q-66 27 -143 27q-164 0 -286 -120t-122 -281zM416 1356l100 82l330 -248l-76 -66z" />
<glyph unicode="&#xe9;" horiz-adv-x="1191" d="M88 518q0 227 157.5 383t389.5 156q207 0 356 -131q47 -41 75.5 -79t63.5 -112l-845 -440l49 -62q127 -145 313 -145q84 0 168 39q57 27 94 59.5t99 112.5l102 -66q-14 -23 -28.5 -40t-47.5 -58q-154 -166 -391 -166q-236 0 -395.5 158t-159.5 391zM225 539 q0 -31 7.5 -69t11.5 -67l710 365q-45 63 -81.5 94t-96.5 51q-66 27 -143 27q-164 0 -286 -120t-122 -281zM453 1186l329 252l99 -88l-359 -226z" />
<glyph unicode="&#xea;" horiz-adv-x="1191" d="M88 518q0 227 157.5 383t389.5 156q207 0 356 -131q47 -41 75.5 -79t63.5 -112l-845 -440l49 -62q127 -145 313 -145q84 0 168 39q57 27 94 59.5t99 112.5l102 -66q-14 -23 -28.5 -40t-47.5 -58q-154 -166 -391 -166q-236 0 -395.5 158t-159.5 391zM225 539 q0 -31 7.5 -69t11.5 -67l710 365q-45 63 -81.5 94t-96.5 51q-66 27 -143 27q-164 0 -286 -120t-122 -281zM262 1204l334 228l332 -228l-41 -82l-291 164l-293 -164z" />
<glyph unicode="&#xeb;" horiz-adv-x="1191" d="M88 518q0 227 157.5 383t389.5 156q207 0 356 -131q47 -41 75.5 -79t63.5 -112l-845 -440l49 -62q127 -145 313 -145q84 0 168 39q57 27 94 59.5t99 112.5l102 -66q-14 -23 -28.5 -40t-47.5 -58q-154 -166 -391 -166q-236 0 -395.5 158t-159.5 391zM225 539 q0 -31 7.5 -69t11.5 -67l710 365q-45 63 -81.5 94t-96.5 51q-66 27 -143 27q-164 0 -286 -120t-122 -281zM334 1217q0 37 27.5 64.5t64.5 27.5q39 0 67.5 -29t28.5 -70q0 -35 -26.5 -59.5t-65.5 -24.5t-67.5 27t-28.5 64zM669 1210q0 41 27 70t70 29q37 0 62.5 -28t25.5 -64 q0 -37 -26.5 -64t-65.5 -27q-37 0 -65 25.5t-28 58.5z" />
<glyph unicode="&#xec;" horiz-adv-x="462" d="M51 1356l100 82l330 -248l-76 -66zM162 0v1018l139 45v-1063h-139z" />
<glyph unicode="&#xed;" horiz-adv-x="462" d="M88 1186l329 252l99 -88l-359 -226zM162 0v1018l139 45v-1063h-139z" />
<glyph unicode="&#xee;" horiz-adv-x="462" d="M-103 1204l334 228l332 -228l-41 -82l-291 164l-293 -164zM162 0v1018l139 45v-1063h-139z" />
<glyph unicode="&#xef;" horiz-adv-x="462" d="M-28 1217q0 37 27.5 64.5t64.5 27.5q39 0 67.5 -29t28.5 -70q0 -35 -26.5 -59.5t-65.5 -24.5t-67.5 27t-28.5 64zM162 0v1018l139 45v-1063h-139zM307 1210q0 41 27 70t70 29q37 0 62.5 -28t25.5 -64q0 -37 -26.5 -64t-65.5 -27q-37 0 -65 25.5t-28 58.5z" />
<glyph unicode="&#xf1;" horiz-adv-x="1206" d="M162 0v1018l133 45v-184l67 73q113 102 289 103q182 0 287.5 -97.5t105.5 -265.5v-692h-133v657q0 129 -53 191q-37 43 -99.5 67.5t-135.5 24.5q-113 0 -203 -66q-68 -47 -96.5 -104t-28.5 -141v-629h-133zM329 1147v108q76 23 127 23q33 0 54.5 -4t101.5 -23 q37 -10 55.5 -12t48.5 -2q63 0 93 9t69 30v-111q-49 -12 -89 -19t-62 -7q-45 0 -116 15t-94.5 19.5t-58.5 4.5q-31 0 -57.5 -6.5t-71.5 -24.5z" />
<glyph unicode="&#xf2;" horiz-adv-x="1286" d="M88 512q0 225 163 386t394 161q227 0 390 -161t163 -386q0 -227 -162 -387t-391 -160t-393 160t-164 387zM233 510q0 -182 117 -305t293 -123t294 124t118 306t-117 305t-293 123t-294 -122t-118 -308zM463 1356l100 82l330 -248l-76 -66z" />
<glyph unicode="&#xf3;" horiz-adv-x="1286" d="M88 512q0 225 163 386t394 161q227 0 390 -161t163 -386q0 -227 -162 -387t-391 -160t-393 160t-164 387zM233 510q0 -182 117 -305t293 -123t294 124t118 306t-117 305t-293 123t-294 -122t-118 -308zM500 1186l329 252l99 -88l-359 -226z" />
<glyph unicode="&#xf4;" horiz-adv-x="1286" d="M88 512q0 225 163 386t394 161q227 0 390 -161t163 -386q0 -227 -162 -387t-391 -160t-393 160t-164 387zM233 510q0 -182 117 -305t293 -123t294 124t118 306t-117 305t-293 123t-294 -122t-118 -308zM309 1204l334 228l332 -228l-41 -82l-291 164l-293 -164z" />
<glyph unicode="&#xf5;" horiz-adv-x="1286" d="M88 512q0 225 163 386t394 161q227 0 390 -161t163 -386q0 -227 -162 -387t-391 -160t-393 160t-164 387zM233 510q0 -182 117 -305t293 -123t294 124t118 306t-117 305t-293 123t-294 -122t-118 -308zM370 1147v108q76 23 127 23q33 0 54.5 -4t101.5 -23 q37 -10 55.5 -12t48.5 -2q63 0 93 9t69 30v-111q-49 -12 -89 -19t-62 -7q-45 0 -116 15t-94.5 19.5t-58.5 4.5q-31 0 -57.5 -6.5t-71.5 -24.5z" />
<glyph unicode="&#xf6;" horiz-adv-x="1286" d="M88 512q0 225 163 386t394 161q227 0 390 -161t163 -386q0 -227 -162 -387t-391 -160t-393 160t-164 387zM233 510q0 -182 117 -305t293 -123t294 124t118 306t-117 305t-293 123t-294 -122t-118 -308zM385 1229q0 39 25.5 68.5t62.5 29.5q39 0 67.5 -28.5t28.5 -69.5 q0 -37 -26.5 -61.5t-63.5 -24.5t-65.5 24.5t-28.5 61.5zM717 1229q0 41 26.5 69.5t69.5 28.5q37 0 62.5 -27.5t25.5 -68.5q0 -37 -25.5 -62.5t-64.5 -25.5q-37 0 -65.5 24.5t-28.5 61.5z" />
<glyph unicode="&#xf7;" horiz-adv-x="1216" d="M88 414v139h948v-139h-948zM446 207q0 49 33 82q39 35 84 35q49 0 82 -33t33 -84q0 -49 -35 -82q-31 -35 -80 -35t-83 36t-34 81zM446 758q0 49 33 82q39 35 84 34q49 0 80 -34q35 -35 35 -82q0 -49 -35 -82q-31 -35 -80 -35t-83 34t-34 83z" />
<glyph unicode="&#xf8;" horiz-adv-x="1286" d="M86 547q0 197 166 350q176 164 358 164q133 0 377 -133l111 116l71 -55l-112 -123q66 -111 104.5 -219t38.5 -176q0 -197 -164 -344q-176 -164 -362 -164q-137 0 -371 117l-106 -115l-68 66l107 106q-150 256 -150 410zM233 541q1 -115 89 -308l577 611q-176 90 -283 90 q-154 0 -268.5 -119t-114.5 -274zM385 166q176 -86 279 -86q152 0 272.5 123t120.5 278q0 49 -24.5 129t-65.5 166z" />
<glyph unicode="&#xf9;" horiz-adv-x="1200" d="M162 350v684h133v-680q0 -147 84 -210.5t221 -63.5q61 0 121.5 16.5t99.5 44.5q82 63 82 213v680h133v-684q0 -113 -24.5 -179.5t-85.5 -113.5q-117 -92 -326 -92q-201 0 -326 92q-59 45 -85.5 113t-26.5 180zM420 1356l100 82l330 -248l-76 -66z" />
<glyph unicode="&#xfa;" horiz-adv-x="1200" d="M162 350v684h133v-680q0 -147 84 -210.5t221 -63.5q61 0 121.5 16.5t99.5 44.5q82 63 82 213v680h133v-684q0 -113 -24.5 -179.5t-85.5 -113.5q-117 -92 -326 -92q-201 0 -326 92q-59 45 -85.5 113t-26.5 180zM457 1186l329 252l99 -88l-359 -226z" />
<glyph unicode="&#xfb;" horiz-adv-x="1200" d="M162 350v684h133v-680q0 -147 84 -210.5t221 -63.5q61 0 121.5 16.5t99.5 44.5q82 63 82 213v680h133v-684q0 -113 -24.5 -179.5t-85.5 -113.5q-117 -92 -326 -92q-201 0 -326 92q-59 45 -85.5 113t-26.5 180zM266 1204l334 228l332 -228l-41 -82l-291 164l-293 -164z " />
<glyph unicode="&#xfc;" horiz-adv-x="1208" d="M162 350v684h139v-680q0 -150 82 -213q35 -25 98.5 -43t122.5 -18q63 0 121.5 16.5t99.5 44.5q84 66 84 213v680h138v-684q0 -115 -25 -179.5t-88 -113.5q-121 -92 -330 -92q-203 0 -330 92q-59 45 -85.5 113t-26.5 180zM338 1227q0 39 26.5 65.5t65.5 26.5 q41 0 68.5 -27.5t27.5 -68.5q0 -35 -26.5 -59.5t-65.5 -24.5t-67.5 24.5t-28.5 63.5zM674 1223q0 41 27.5 68.5t68.5 27.5q37 0 62.5 -27.5t25.5 -64.5t-27.5 -62.5t-64.5 -25.5q-35 0 -63.5 24.5t-28.5 59.5z" />
<glyph unicode="&#xff;" horiz-adv-x="897" d="M-45 1034h145l314 -784q20 -45 30 -150l15 72l20 76l332 786h145l-591 -1405h-152l162 371zM187 1217q0 37 27.5 64.5t64.5 27.5q39 0 67.5 -29t28.5 -70q0 -35 -26.5 -59.5t-65.5 -24.5t-67.5 27t-28.5 64zM522 1210q0 41 27 70t70 29q37 0 62.5 -28t25.5 -64 q0 -37 -26.5 -64t-65.5 -27q-37 0 -65 25.5t-28 58.5z" />
<glyph unicode="&#x152;" horiz-adv-x="1878" d="M88 739q0 305 219 526.5t520 221.5q76 0 156 -8q18 -2 45 -4t45 -2h31l74 4h622l-35 -127h-591v-529h555v-127h-555v-567h630l-37 -127h-587h-80h-31h-25l-59 -8q-59 -12 -127 -12q-322 0 -546 220t-224 539zM242 733q0 -260 187 -443.5t450 -183.5q106 0 131 27 q8 8 12 27.5t4 64.5v1051q0 35 -4 39q-4 18 -16 24q-39 27 -156 27q-252 0 -430 -184.5t-178 -448.5z" />
<glyph unicode="&#x153;" horiz-adv-x="2156" d="M88 512q0 229 160 387t395 158q121 0 229 -49q88 -39 134.5 -82t109.5 -152q33 61 49.5 84t59.5 62q156 145 374 145q100 0 202 -38t160 -93t138 -195l-858 -444l45 -62q53 -59 136 -96t173 -37q100 0 187 39q59 27 95 59.5t83 104.5l106 -61q-18 -33 -33.5 -54.5 t-21.5 -29.5q-68 -84 -178.5 -135.5t-230.5 -51.5q-123 0 -236 54q-86 39 -133 82t-113 143q-45 -70 -80 -111q-66 -78 -178 -125t-227 -47q-231 0 -389 156t-158 389zM221 489q0 -168 123 -284.5t293 -116.5q182 0 299 119t117 307q0 193 -111 307.5t-297 114.5 q-182 0 -303 -121t-121 -305v-21zM1180 547q0 -41 2 -64t14 -80l723 377q-43 59 -82 90t-88 48.5t-88 24.5t-78 7q-90 0 -158.5 -31.5t-130.5 -99.5q-115 -127 -114 -272z" />
<glyph unicode="&#x178;" horiz-adv-x="1013" d="M-59 1477h186l352 -633q6 -12 11.5 -34t11.5 -83q4 45 10 68.5t23 50.5l358 631h180l-495 -822v-655h-146v655zM246 1702q0 37 27.5 64.5t64.5 27.5q39 0 67.5 -29t28.5 -70q0 -35 -26.5 -59.5t-65.5 -24.5t-67.5 27t-28.5 64zM581 1695q0 41 27 70t70 29q37 0 62.5 -28 t25.5 -64q0 -37 -26.5 -64t-65.5 -27q-37 0 -65 25.5t-28 58.5z" />
<glyph unicode="&#x2c6;" horiz-adv-x="432" d="M-117 1204l334 228l332 -228l-41 -82l-291 164l-293 -164z" />
<glyph unicode="&#x2dc;" horiz-adv-x="311" d="M-117 1147v108q76 23 127 23q33 0 54.5 -4t101.5 -23q37 -10 55.5 -12t48.5 -2q63 0 93 9t69 30v-111q-49 -12 -89 -19t-62 -7q-45 0 -116 15t-94.5 19.5t-58.5 4.5q-31 0 -57.5 -6.5t-71.5 -24.5z" />
<glyph unicode="&#x2000;" horiz-adv-x="961" />
<glyph unicode="&#x2001;" horiz-adv-x="1923" />
<glyph unicode="&#x2002;" horiz-adv-x="961" />
<glyph unicode="&#x2003;" horiz-adv-x="1923" />
<glyph unicode="&#x2004;" horiz-adv-x="641" />
<glyph unicode="&#x2005;" horiz-adv-x="480" />
<glyph unicode="&#x2006;" horiz-adv-x="320" />
<glyph unicode="&#x2007;" horiz-adv-x="320" />
<glyph unicode="&#x2008;" horiz-adv-x="240" />
<glyph unicode="&#x2009;" horiz-adv-x="384" />
<glyph unicode="&#x200a;" horiz-adv-x="106" />
<glyph unicode="&#x2010;" horiz-adv-x="595" d="M45 537v143h506v-143h-506z" />
<glyph unicode="&#x2011;" horiz-adv-x="595" d="M45 537v143h506v-143h-506z" />
<glyph unicode="&#x2012;" horiz-adv-x="595" d="M45 537v143h506v-143h-506z" />
<glyph unicode="&#x2013;" d="M182 674v112h873v-112h-873z" />
<glyph unicode="&#x2014;" horiz-adv-x="2039" d="M61 705v65h1917v-65h-1917z" />
<glyph unicode="&#x2018;" horiz-adv-x="344" d="M45 1130q0 31 6 60t23 63q29 63 62.5 112.5t103.5 125.5l59 -39q-57 -72 -79.5 -112t-53.5 -119q104 -12 104 -99v-8q-6 -47 -36.5 -77.5t-75.5 -30.5q-53 0 -83 33.5t-30 90.5z" />
<glyph unicode="&#x2019;" horiz-adv-x="344" d="M45 1042q59 80 80.5 117t50.5 119q-102 0 -102 94l2 12q4 45 36.5 76t73.5 31q115 0 115 -127q0 -57 -32.5 -125t-63.5 -112t-101 -121z" />
<glyph unicode="&#x201a;" horiz-adv-x="329" d="M29 -242q59 74 79.5 109t55.5 125q-104 8 -105 94v12q4 47 37 78t76 31q51 0 82 -35t31 -94q0 -53 -30 -121t-60.5 -111t-106.5 -125z" />
<glyph unicode="&#x201c;" horiz-adv-x="653" d="M45 1130q0 31 6 60t23 63q29 63 62.5 112.5t103.5 125.5l59 -39q-57 -72 -79.5 -112t-53.5 -119q104 -12 104 -99v-8q-6 -47 -36.5 -77.5t-75.5 -30.5q-53 0 -83 33.5t-30 90.5zM354 1130q0 31 6.5 60t22.5 63q35 72 63.5 113t102.5 125l59 -39q-57 -72 -79.5 -112 t-53.5 -119q104 -12 105 -99v-8q-4 -47 -37 -77.5t-76 -30.5q-51 0 -82 33.5t-31 90.5z" />
<glyph unicode="&#x201d;" horiz-adv-x="653" d="M45 1042q59 80 80.5 117t50.5 119q-102 0 -102 94l2 12q4 45 36.5 76t73.5 31q115 0 115 -127q0 -57 -32.5 -125t-63.5 -112t-101 -121zM354 1042q55 72 79 114t54 122q-104 0 -104 94l2 12q4 45 37 76t74 31q115 0 114 -127q0 -57 -31.5 -123.5t-62.5 -111t-102 -123.5z " />
<glyph unicode="&#x201e;" horiz-adv-x="638" d="M29 -242q59 74 79.5 109t55.5 125q-104 8 -105 94v12q4 47 37 78t76 31q51 0 82 -35t31 -94q0 -53 -30 -121t-60.5 -111t-106.5 -125zM338 -242q57 72 80.5 112t54.5 122q-102 8 -102 94v12q4 47 36.5 78t75.5 31q51 0 82 -34t31 -93q0 -55 -29.5 -122t-62.5 -112 t-105 -125z" />
<glyph unicode="&#x2022;" horiz-adv-x="370" d="M74 610q0 49 30.5 80t77.5 31t80 -31t33 -80q0 -43 -33 -75.5t-80 -32.5t-77.5 30.5t-30.5 77.5z" />
<glyph unicode="&#x2026;" horiz-adv-x="2039" d="M268 70q0 37 24.5 61.5t61.5 24.5t61.5 -27t24.5 -59q0 -35 -25.5 -60.5t-60.5 -25.5q-37 0 -61.5 24.5t-24.5 61.5zM950 70q0 37 24.5 61.5t61.5 24.5t61.5 -27t24.5 -59q0 -35 -25.5 -60.5t-60.5 -25.5q-37 0 -61.5 24.5t-24.5 61.5zM1620 70q0 37 24.5 61.5t61.5 24.5 t61.5 -25t24.5 -61q0 -37 -24.5 -61.5t-61.5 -24.5t-61.5 24.5t-24.5 61.5z" />
<glyph unicode="&#x202f;" horiz-adv-x="384" />
<glyph unicode="&#x2039;" horiz-adv-x="575" d="M45 502l401 463l84 -80l-331 -383l329 -377l-86 -78z" />
<glyph unicode="&#x203a;" horiz-adv-x="571" d="M45 129l330 373l-330 383l86 78l395 -461l-395 -453z" />
<glyph unicode="&#x205f;" horiz-adv-x="480" />
<glyph unicode="&#x2122;" horiz-adv-x="1640" d="M113 1389v86h438v-86h-172v-652h-96v652h-170zM526 737l152 764h20l238 -518l14 -29l2 -8q12 -37 13 -67q0 16 3 33.5t11 35.5l4 10l10 25l240 518h20l152 -764h-100l-80 449l-4 31q-2 12 -2 34q0 20 2 31l-19 -61l-6 -21l-4 -8l-219 -477h-15l-219 477l-4 12l-8 19 l-16 59q0 -16 2 -32.5t0 -28.5l-6 -35l-80 -449h-101z" />
<glyph unicode="&#x25fc;" horiz-adv-x="1034" d="M0 0v1034h1034v-1034h-1034z" />
</font>
</defs>
</svg>
