<?xml version="1.0" standalone="no"?>
<!DOCTYPE svg PUBLIC "-//W3C//DTD SVG 1.1//EN" "http://www.w3.org/Graphics/SVG/1.1/DTD/svg11.dtd" >
<svg xmlns="http://www.w3.org/2000/svg" xmlns:xlink="http://www.w3.org/1999/xlink" version="1.1">
<metadata></metadata>
<defs>
<font id="ornitons-serial-heavyregular" horiz-adv-x="1517" >
<font-face units-per-em="2048" ascent="1638" descent="-410" />
<missing-glyph horiz-adv-x="593" />
<glyph horiz-adv-x="0" />
<glyph unicode="&#xd;" horiz-adv-x="593" />
<glyph unicode=" "  horiz-adv-x="593" />
<glyph unicode="&#x09;" horiz-adv-x="593" />
<glyph unicode="&#xa0;" horiz-adv-x="593" />
<glyph unicode="!" horiz-adv-x="712" d="M88 1477h537l-68 -920h-387zM104 229q0 106 74 180t182 74q104 0 180 -75.5t76 -180.5q0 -106 -76.5 -181t-183.5 -75q-106 0 -179 74.5t-73 183.5z" />
<glyph unicode="&#x22;" horiz-adv-x="1165" d="M45 786q66 63 100.5 104.5t81.5 115.5q-16 8 -41.5 20t-33.5 18q-47 31 -76 86.5t-29 114.5q0 109 74 184.5t178 75.5q109 0 186.5 -88t77.5 -211q0 -86 -42 -172t-94 -152.5t-181 -197.5zM604 786q70 66 99.5 102t84.5 118q-29 12 -46 21t-31 17q-45 31 -75 87.5 t-30 113.5q0 109 74 184.5t178 75.5q109 0 186.5 -88t77.5 -211q0 -92 -41 -175t-93 -149.5t-181 -197.5z" />
<glyph unicode="#" horiz-adv-x="1298" d="M59 414l31 147h238l73 352h-235l31 148h237l86 414h148l-86 -414h176l88 414h147l-88 -414h236l-31 -148h-236l-75 -352h235l-30 -147h-236l-88 -414h-148l89 414h-179l-88 -414h-147l88 414h-236zM475 561h176l76 352h-178z" />
<glyph unicode="$" horiz-adv-x="1265" d="M23 139l141 436q59 -47 93 -70.5t81 -47.5q113 -63 205 -64q49 0 77.5 20.5t28.5 57.5q0 29 -24.5 45t-101.5 32.5t-103.5 25t-73.5 26.5q-281 98 -280 371q0 109 44 206t134 179q47 43 109.5 75.5t99.5 32.5l41 -2v154l286 2v-141q135 0 221 -37q18 -8 162 -86 l-121 -383q-102 66 -161 90q-84 37 -148 37q-117 0 -117 -78q0 -23 24 -38t87 -32l113 -28q80 -23 120.5 -38.5t77.5 -35.5q84 -47 131.5 -135t47.5 -199q0 -121 -57.5 -233.5t-140.5 -176t-251 -122.5l-2 -129h-281v114q-174 33 -248.5 60.5t-213.5 111.5z" />
<glyph unicode="%" horiz-adv-x="1589" d="M59 1120q0 152 107.5 259.5t263.5 107.5q154 0 262.5 -106.5t108.5 -260.5q0 -152 -107.5 -259t-263.5 -107q-154 0 -262.5 106t-108.5 260zM162 0l1059 1477h211l-1055 -1477h-215zM330 1120q0 -72 28.5 -123t71.5 -51q41 0 70.5 50.5t29.5 123.5q0 74 -28.5 123 t-71.5 49t-71.5 -49t-28.5 -123zM799 354q0 152 106.5 258.5t259.5 106.5q152 0 259.5 -105.5t107.5 -259.5q0 -152 -106.5 -258t-260.5 -106q-152 0 -259 105t-107 259zM1063 354q0 -74 30.5 -127t71.5 -53q43 0 72 51t29 129q0 74 -29 125t-72 51q-41 0 -71.5 -51 t-30.5 -125z" />
<glyph unicode="&#x26;" horiz-adv-x="1812" d="M57 434q0 82 37 158t107 133q45 37 86 57t131 49q-57 49 -92 116t-35 134q0 184 154.5 302t396.5 118q233 0 386.5 -118.5t153.5 -301.5q0 -242 -288 -362q4 -6 43 -47t71 -74q84 61 125 98t113 115l276 -303q-68 -72 -108.5 -106.5t-122.5 -92.5q109 -104 176 -164 q61 -53 178 -145h-637l-94 88l-82 -37q-193 -80 -383 -80q-250 0 -421 133.5t-171 329.5zM573 467q0 -51 40 -85t98 -34q61 0 116 29l-180 194q-20 -12 -24 -18l-25 -18q-25 -25 -25 -68zM772 1104q0 -49 84 -125q20 16 43 33q14 14 23 22q10 16 18 33.5t8 34.5 q0 37 -26.5 63.5t-63.5 26.5q-33 0 -59.5 -26.5t-26.5 -61.5z" />
<glyph unicode="'" horiz-adv-x="604" d="M45 786q66 63 100.5 104.5t81.5 115.5q-16 8 -41.5 20t-33.5 18q-47 31 -76 86.5t-29 114.5q0 109 74 184.5t178 75.5q109 0 186.5 -88t77.5 -211q0 -86 -42 -172t-94 -152.5t-181 -197.5z" />
<glyph unicode="(" horiz-adv-x="768" d="M74 711q0 307 89 504.5t372 506.5l233 -258q-184 -225 -248.5 -371.5t-64.5 -334.5q0 -219 61.5 -365.5t251.5 -384.5l-233 -256q-268 293 -364.5 493.5t-96.5 465.5z" />
<glyph unicode=")" horiz-adv-x="770" d="M0 8q188 231 256 381t68 340q0 205 -65.5 352.5t-258.5 386.5l219 252q281 -289 380 -486.5t99 -465.5q0 -315 -94 -513t-385 -501z" />
<glyph unicode="*" horiz-adv-x="899" d="M29 922q0 57 42 95t105 38l33 -6l49 -19l37 -4q55 0 55 33q0 35 -55 35l-37 -7l-49 -18l-33 -6q-61 0 -104 39t-43 96q0 66 41 109t102 43q63 0 104 -41q12 -12 21.5 -26.5t11.5 -29.5l17 -55q12 -57 49 -57q31 0 31 39q0 20 -33 49q-78 72 -78 143q0 133 164 133 q66 0 104.5 -36.5t38.5 -96.5q0 -72 -78 -143q-31 -29 -30 -49q0 -39 30 -39q37 0 49 57l13 55q14 43 51 70t88 27q61 0 102 -43t41 -109q0 -57 -41 -96t-106 -39l-33 6l-51 18q-12 6 -33 7q-55 0 -55 -35q0 -33 55 -33l33 4l51 19l33 6q63 0 105 -38t42 -97q0 -66 -41 -109 t-102 -43q-59 0 -102 43q-6 4 -17.5 19.5t-19.5 35.5l-13 54q-12 57 -49 57q-31 0 -30 -39q0 -23 30 -49q78 -70 78 -146q0 -133 -162 -133q-66 0 -104.5 37t-38.5 98q0 76 76 144q33 25 33 47q0 41 -31 41q-37 0 -49 -57l-17 -54q-10 -43 -50 -70.5t-87 -27.5 q-61 0 -102 43t-41 111z" />
<glyph unicode="+" d="M238 612v400h325v317h398v-317h319v-396h-317v-321h-402v317h-323z" />
<glyph unicode="," horiz-adv-x="604" d="M45 -254q68 66 101.5 105.5t80.5 115.5q-25 8 -42 17.5t-33 19.5q-47 33 -76 87t-29 116q0 106 74 182t178 76q109 0 186.5 -88t77.5 -211q0 -86 -42 -172t-94 -152.5t-181 -197.5z" />
<glyph unicode="-" horiz-adv-x="675" d="M45 397v328h586v-328h-586z" />
<glyph unicode="." horiz-adv-x="600" d="M45 229q0 106 74 180t182 74q104 0 179 -74.5t75 -181.5q0 -106 -74.5 -181t-183.5 -75q-106 0 -179 74.5t-73 183.5z" />
<glyph unicode="/" horiz-adv-x="749" d="M45 0l365 1546l297 -69l-363 -1547z" />
<glyph unicode="0" d="M59 737q0 330 201 553t500 223q297 0 497.5 -221t200.5 -553q0 -330 -200.5 -553t-497.5 -223q-299 0 -500 221t-201 553zM584 737q0 -141 47 -222t129 -81q78 0 125 83t47 220q0 139 -46 220t-126 81q-82 0 -129 -79.5t-47 -221.5z" />
<glyph unicode="1" d="M358 1034l154 443h573v-1477h-518v1034h-209z" />
<glyph unicode="2" d="M-23 0q190 160 304 258q92 80 193 173t175 166t134.5 141.5t85 112.5t24.5 85q0 51 -31 82t-82 31q-41 0 -71.5 -18.5t-43 -47.5t-20.5 -102h-518q23 188 64.5 282t142.5 183q84 74 201.5 114.5t246.5 40.5q272 0 455.5 -154.5t183.5 -383.5q0 -102 -47 -206t-129 -173 q-66 -59 -231 -162h403l-119 -422h-1321z" />
<glyph unicode="3" d="M80 551h522q0 -174 146 -174q63 0 103 38t40 97q0 55 -43 94t-107 39q-29 0 -51 -6v309l17 -2q137 0 137 103q0 37 -29 63.5t-65 26.5q-84 0 -113 -105h-494q23 150 61 222.5t126 136.5q168 119 418 118q262 0 438 -120.5t176 -303.5q0 -133 -100 -217q-27 -25 -78 -53 q240 -84 239 -348q0 -215 -182 -356.5t-461 -141.5q-137 0 -273 41t-239.5 117t-145.5 165t-42 257z" />
<glyph unicode="4" d="M37 297v389l596 791h624v-797h164v-383h-161v-297h-517v297h-706zM481 678h262v201q0 27 15 96l16 160l-80 -150l-49 -88z" />
<glyph unicode="5" d="M125 90l57 426q111 -49 170.5 -69.5t132.5 -38.5q41 -10 81 -14.5t73 -4.5q223 0 223 121q0 66 -74.5 104.5t-203.5 38.5l-101 -6q-96 -14 -159 -29q-31 -8 -131 -34l118 893h1018l-123 -420h-522l-22 -133q66 18 103.5 24t98.5 6q236 0 383.5 -120.5t147.5 -315.5 q0 -238 -199 -395.5t-498 -157.5q-55 0 -113.5 6t-127.5 21q-127 24 -332 98z" />
<glyph unicode="6" d="M57 569q0 88 29 177.5t80 166.5q31 45 91 120t116 134l284 310h682l-149 -150l-154 -147l-139 -131h61q215 0 359.5 -140.5t144.5 -353.5q0 -256 -195.5 -421t-498.5 -165q-301 0 -506 172t-205 428zM596 563q0 -66 49 -113t119 -47t119 47.5t49 116.5q0 70 -49 119 t-121 49q-70 0 -118 -50t-48 -122z" />
<glyph unicode="7" d="M39 1034l137 443h1331l-807 -1477h-610l588 961q29 51 139 139q-86 -39 -127 -52.5t-65 -13.5h-586z" />
<glyph unicode="8" d="M84 426q0 111 64.5 203t205.5 137q-43 12 -73 27q-68 35 -111 108.5t-43 157.5q0 193 178 317.5t455 124.5q274 0 452.5 -125t178.5 -317q0 -92 -56 -176q-33 -49 -65.5 -72t-106.5 -45l78 -29q84 -39 137.5 -125t53.5 -186q0 -207 -184.5 -334t-487.5 -127 q-305 0 -490.5 125t-185.5 336zM612 483q0 -59 43 -102t105 -43q61 0 102 41t41 104q0 59 -41 102.5t-102 43.5t-104.5 -43t-43.5 -103zM637 1020q0 -49 35 -86t88 -37q51 0 85 36t34 87q0 49 -35 84t-86 35q-47 0 -84 -35t-37 -84z" />
<glyph unicode="9" d="M57 913q0 260 192.5 424t498.5 164q301 0 505.5 -172t204.5 -426q0 -86 -31 -182q-47 -143 -192 -307l-94 -107l-275 -307h-686l150 147l291 275l-86 -4q-203 0 -340.5 141t-137.5 354zM586 901q0 -70 47 -119t117 -49q72 0 121 49t49 123q0 68 -48 114t-116 46 q-72 0 -121 -47t-49 -117z" />
<glyph unicode=":" horiz-adv-x="661" d="M74 809q0 106 73.5 180t184.5 74q104 0 179 -75t75 -181t-75 -181t-179 -75q-109 0 -183.5 74.5t-74.5 183.5zM76 229q0 106 73.5 180t182.5 74q104 0 179 -74.5t75 -181.5q0 -106 -75 -181t-183 -75q-106 0 -179 74.5t-73 183.5z" />
<glyph unicode=";" horiz-adv-x="665" d="M74 807q0 106 74.5 181t181.5 75q106 0 180 -76t74 -184q0 -104 -74 -180t-180 -76q-104 0 -180 75.5t-76 184.5zM78 221q0 106 73.5 184t180.5 78q109 0 186.5 -88t77.5 -211q0 -88 -42 -174t-92 -149.5t-183 -198.5l-201 100q76 76 102.5 108t81.5 112q-23 10 -44 20 t-34 21q-49 31 -77.5 84t-28.5 114z" />
<glyph unicode="&#x3c;" horiz-adv-x="831" d="M45 516l524 524l219 -217l-309 -309l307 -303l-219 -217z" />
<glyph unicode="=" d="M238 432v338h1044v-338h-1044zM238 856v338h1042v-338h-1042z" />
<glyph unicode="&#x3e;" horiz-adv-x="823" d="M45 823l217 215l518 -522l-522 -520l-211 217l305 305z" />
<glyph unicode="?" horiz-adv-x="1019" d="M-16 1374l122 58q186 78 357 77q227 0 371.5 -117.5t144.5 -301.5q0 -33 -7 -69t-22 -73q-20 -55 -51 -95t-90 -83l-61 -49q-33 -27 -60 -62q-16 -25 -22.5 -42t-10.5 -56h-389q0 59 7.5 91t23.5 79t82 115q41 39 64.5 64.5t45.5 60.5q8 16 14.5 33.5t6.5 35.5 q0 39 -36 68t-87 29q-18 0 -44 -5.5t-58 -15.5q-66 -25 -174 -98zM197 229q0 106 73.5 180t184.5 74q104 0 179 -74.5t75 -181.5q0 -104 -76 -180t-184 -76q-106 0 -179 74.5t-73 183.5z" />
<glyph unicode="@" horiz-adv-x="1771" d="M117 686.5v46.5q0 225 96 394t283 276q92 53 201.5 76.5t234.5 23.5q260 0 432 -181t172 -437q0 -121 -42 -239t-112.5 -201t-154.5 -117q-20 -8 -53 -15.5t-54 -7.5q-70 0 -116 37t-52 96l-2 25l-12 -25q-20 -33 -23 -37q-14 -16 -20 -22q-29 -33 -72 -51.5t-88 -18.5 q-119 0 -192.5 98.5t-73.5 288.5q0 37 5 70t18 78q27 94 79 173t115 122q41 29 85 43t85 14q66 0 116 -30.5t68 -86.5l15 92h110l-73 -417l-25 -162l-6 -88q0 -43 20.5 -65.5t57.5 -22.5q18 0 35.5 6t37 21.5t56.5 54.5q20 20 32.5 36.5t28.5 49.5q45 78 64 172q6 35 7 46 t1 36q0 236 -140.5 384t-365.5 148q-47 0 -96 -6q-229 -33 -376 -210t-147 -431v-35q4 -25 5 -37q12 -117 57 -211q80 -168 219 -259t307 -91q195 0 383 127q121 82 201 203l22 -137l-49 -62q-236 -254 -567 -254q-293 0 -500 185.5t-233 476.5q-4 27 -4 57.5zM608 600 q0 -35 7.5 -66.5t19.5 -54.5q35 -70 119 -69q53 0 90 36q23 25 39 54.5t47 115.5q8 20 19.5 61.5t17.5 80.5l6 35l12 67q8 63 8 115q0 55 -35.5 89t-89.5 34q-27 0 -57 -13q-51 -20 -89 -69t-73 -148q-4 -14 -13 -44.5t-13 -53.5q-10 -47 -12.5 -83t-2.5 -87z" />
<glyph unicode="A" horiz-adv-x="1499" d="M-59 0l524 1477h569l522 -1477h-585l-43 190h-357l-43 -190h-587zM637 561h227l-80 352l-20 86l-10 99l-17 -103l-20 -82z" />
<glyph unicode="B" horiz-adv-x="1386" d="M74 0v1477h727q221 0 346 -102.5t125 -287.5q0 -137 -80 -237q-25 -29 -50.5 -45.5t-78.5 -36.5q63 -16 97 -32.5t69 -49.5q112 -99 112 -269q0 -175 -114.5 -296t-280.5 -121h-872zM621 354h69q74 0 98 17q49 29 50 110q0 90 -58 113q-20 8 -39.5 10t-74.5 2h-45v-252z M621 893h55q74 0 105.5 27.5t31.5 95.5q0 74 -30.5 102.5t-114.5 28.5h-47v-254z" />
<glyph unicode="C" horiz-adv-x="1327" d="M59 741q0 326 227.5 549t561.5 223q127 0 242 -38q49 -16 101 -41t126 -68l-164 -459l-68 47q-109 61 -206 62q-119 0 -201 -78t-82 -195q0 -113 79 -191.5t193 -78.5q57 0 125 21q33 12 69 30.5t91 50.5l162 -466l-107 -60q-160 -80 -352 -80q-338 0 -567.5 221.5 t-229.5 550.5z" />
<glyph unicode="D" horiz-adv-x="1536" d="M74 0v1477h688q315 0 516 -207t201 -533q0 -330 -200 -533.5t-525 -203.5h-680zM621 469h24q256 0 256 281q0 135 -66.5 209.5t-187.5 74.5h-26v-565z" />
<glyph unicode="E" horiz-adv-x="1198" d="M74 0v1477h1116l-115 -414h-454v-125h411v-395h-411v-129h571l-121 -414h-997z" />
<glyph unicode="F" horiz-adv-x="1153" d="M74 0v1477h1108l-111 -414h-450v-125h466l-106 -399h-360v-539h-547z" />
<glyph unicode="G" horiz-adv-x="1744" d="M59 727q0 332 231.5 555t579.5 223q78 0 146.5 -10t140.5 -37q139 -43 226 -112.5t204 -229.5l-487 -186q-10 12 -29.5 33.5t-32.5 29.5q-25 23 -69.5 37t-85.5 14q-111 0 -189 -90t-78 -219q0 -145 82 -238.5t209 -93.5q147 0 191 138h-230v327h805q8 -51 10.5 -84.5 t2.5 -66.5q0 -315 -233.5 -532.5t-575.5 -217.5q-348 0 -583 218t-235 542z" />
<glyph unicode="H" horiz-adv-x="1576" d="M74 0v1477h547v-482h335v482h547v-1477h-547v512h-335v-512h-547z" />
<glyph unicode="I" horiz-adv-x="692" d="M74 0v1477h547v-1477h-547z" />
<glyph unicode="J" horiz-adv-x="1071" d="M-29 201l215 340q88 -100 158 -101q74 0 94 58q14 35 15 120v859h546v-994q0 -172 -16 -227t-92 -137q-139 -150 -365 -150q-111 0 -231 39q-84 29 -151 68t-173 125z" />
<glyph unicode="K" d="M74 0v1477h547v-566l319 566h637l-508 -721l477 -756h-628l-297 573v-573h-547z" />
<glyph unicode="L" horiz-adv-x="1157" d="M74 0v1477h547v-1055h565l-119 -422h-993z" />
<glyph unicode="M" horiz-adv-x="1894" d="M-37 0l236 1477h542l179 -625q16 -57 22 -104.5t6 -98.5q0 76 6.5 112t22.5 91l178 625h541l237 -1477h-534l-45 571q-2 16 -3 33t-1 43v29q0 45 2 90l4 90l-23 -121l-30 -160l-164 -575h-381l-162 575l-33 160l-22 121l6 -180l-4 -105l-47 -571h-533z" />
<glyph unicode="N" horiz-adv-x="1634" d="M74 0v1477h534l350 -584q31 -51 50.5 -97t85.5 -241q-31 125 -42.5 193.5t-11.5 146.5l-12 582h531v-1477h-541l-340 549l-94 219l-35 111q23 -102 29 -140q16 -92 16 -184l10 -555h-530z" />
<glyph unicode="O" horiz-adv-x="1751" d="M59 737q0 338 233.5 555t600.5 217q340 0 569.5 -221t229.5 -551q0 -332 -231.5 -551t-586.5 -219q-352 0 -583.5 219t-231.5 551zM596 737q0 -119 80 -198.5t198 -79.5q119 0 199 79.5t80 198.5q0 117 -79.5 199t-196.5 82q-119 0 -200 -81t-81 -200z" />
<glyph unicode="P" horiz-adv-x="1366" d="M74 0v1477h727q246 0 394 -150.5t148 -400.5q0 -227 -128 -365.5t-341 -138.5h-253v-422h-547zM621 801h88q133 0 133 137q0 80 -47 106q-10 8 -26.5 13.5t-70.5 5.5h-77v-262z" />
<glyph unicode="Q" horiz-adv-x="1751" d="M59 737q0 336 230.5 554t584.5 218q358 0 588 -221t230 -563q0 -168 -33 -262t-137 -221l166 -244l-357 -260l-190 266q-195 -37 -305 -37q-324 0 -550.5 224.5t-226.5 545.5zM596 737q0 -119 80 -198.5t198 -79.5q119 0 199 79.5t80 198.5q0 117 -79.5 199t-196.5 82 q-119 0 -200 -81t-81 -200z" />
<glyph unicode="R" horiz-adv-x="1421" d="M74 0v1477h710q154 0 252.5 -22.5t158.5 -75t98 -155t38 -210.5q0 -305 -268 -406l418 -608h-637l-223 446v-446h-547zM621 811h81q61 0 97.5 36t36.5 99q0 139 -146 139h-69v-274z" />
<glyph unicode="S" horiz-adv-x="1265" d="M23 139l141 436q59 -47 93 -70.5t81 -47.5q113 -63 205 -64q49 0 77.5 20.5t28.5 57.5q0 29 -24.5 45t-101.5 32.5t-103.5 25t-73.5 26.5q-280 96 -280 365q0 233 170 382.5t430 149.5q109 0 239 -33q76 -20 119 -37.5t139 -72.5l-121 -383q-102 66 -161 90 q-84 37 -148 37q-117 0 -117 -78q0 -23 24 -38t87 -32l113 -28q80 -23 120.5 -38.5t77.5 -35.5q84 -47 131.5 -135t47.5 -201q0 -236 -180.5 -391.5t-454.5 -155.5q-115 0 -225.5 27.5t-164.5 52t-169 94.5z" />
<glyph unicode="T" horiz-adv-x="1126" d="M-23 1004l17 473h1190l-137 -473h-240v-1004h-549v1004h-281z" />
<glyph unicode="U" horiz-adv-x="1511" d="M74 563v914h547v-869q0 -51 6 -76.5t24.5 -47t46 -34t60.5 -12.5q63 0 104 45q31 37 31 125v869h547v-914q0 -272 -183.5 -433t-498.5 -161t-499.5 160t-184.5 434z" />
<glyph unicode="V" horiz-adv-x="1452" d="M-59 1477h553l200 -711l21 -143l12 -160l10 160l21 143l200 711h553l-550 -1477h-467z" />
<glyph unicode="W" horiz-adv-x="2166" d="M-29 1477h518l148 -646q6 -18 11 -58t5 -62l19 -174l12 172q0 39 3 66.5t13 60.5l162 641h445l161 -641q2 -6 8.5 -45t6.5 -82l14 -172q0 133 12 208q16 63 21 86l151 646h519l-467 -1477h-476l-131 621q-14 55 -20 88q-23 109 -23 311q0 -176 -12 -262q-2 -20 -31 -137 l-131 -621h-475z" />
<glyph unicode="X" horiz-adv-x="1495" d="M-74 0l516 791l-454 686h585l132 -240q20 -33 30 -76t10 -112q8 78 16.5 116.5t26.5 71.5l134 240h583l-452 -686l514 -791h-621l-149 299q-20 43 -29.5 88t-19.5 152q-10 -98 -20.5 -150.5t-29.5 -89.5l-149 -299h-623z" />
<glyph unicode="Y" horiz-adv-x="1409" d="M-59 1477h583l154 -318q2 -6 6 -21.5t8 -60.5l15 -78l6 78l18 82l150 318h585l-493 -844v-633h-537v633z" />
<glyph unicode="Z" horiz-adv-x="1474" d="M-23 0l609 971q10 16 18 24q18 20 109 99q-66 -35 -104 -47.5t-68 -12.5h-547l127 443h1370l-588 -940q-16 -29 -41.5 -56.5t-77.5 -74.5q45 14 83 25t69 11h547l-137 -442h-1369z" />
<glyph unicode="[" horiz-adv-x="741" d="M133 -201v1878h520v-291h-110v-1296h110v-291h-520z" />
<glyph unicode="\" horiz-adv-x="727" d="M59 1475h295l258 -1475h-295z" />
<glyph unicode="]" horiz-adv-x="737" d="M88 90h111v1296h-111v291h516v-1878h-516v291z" />
<glyph unicode="^" horiz-adv-x="561" d="M-104 1305l383 280l383 -280l-70 -181l-313 148l-312 -148z" />
<glyph unicode="_" horiz-adv-x="925" d="M59 0h738v-88h-738v88z" />
<glyph unicode="`" horiz-adv-x="407" d="M-72 1452l258 139l222 -358l-197 -107z" />
<glyph unicode="a" horiz-adv-x="1372" d="M59 514q0 240 129 393.5t330 153.5q47 0 85 -6t82 -23.5t69.5 -35t70.5 -60.5v98h475v-1034h-475v106l-39 -43q-106 -90 -286 -90q-199 0 -320 147.5t-121 393.5zM569 524q0 -139 113 -139q51 0 82 40t31 110q0 66 -31 102.5t-82 36.5t-82 -41t-31 -109z" />
<glyph unicode="b" horiz-adv-x="1374" d="M74 0v1249l501 281v-586q78 63 145.5 90t147.5 27q199 0 323 -148.5t124 -386.5q0 -248 -124 -400.5t-325 -152.5q-86 0 -156.5 23.5t-98 42t-64.5 65.5v-104h-473zM575 530q0 -66 31 -104.5t84 -38.5q49 0 80 39t31 104q0 68 -31 107t-86 39q-47 0 -78 -40t-31 -106z " />
<glyph unicode="c" horiz-adv-x="1026" d="M59 514q0 242 164 401.5t414 159.5q90 0 163 -18.5t204 -73.5l-111 -367q-102 61 -178 62q-59 0 -100.5 -43t-41.5 -109q0 -70 41 -110.5t115 -40.5q33 0 61.5 7t102.5 36l100 -338q-135 -72 -213 -95.5t-172 -23.5q-229 0 -389 160t-160 393z" />
<glyph unicode="d" horiz-adv-x="1374" d="M59 524q0 236 126 386.5t323 150.5q39 0 77 -8.5t77 -22.5q57 -24 137 -94v311l501 283v-1530h-473v106q-33 -43 -61.5 -63t-87.5 -41q-88 -33 -182 -33q-195 0 -316 153.5t-121 401.5zM571 528q0 -66 31 -104.5t86 -38.5q49 0 80 41t31 111q0 61 -31 100t-84 39 q-51 0 -82 -39t-31 -109z" />
<glyph unicode="e" horiz-adv-x="1146" d="M59 498q0 244 158 405.5t395 161.5q109 0 209.5 -39t177.5 -113q57 -53 86 -102.5t68 -155.5l-573 -290q37 -45 75 -46q51 0 86 52l322 -195l-92 -94q-68 -55 -168.5 -90t-196.5 -35q-231 0 -389 155.5t-158 385.5zM485 580l7 -56l282 144q-55 63 -129 63 q-63 0 -111.5 -46t-48.5 -105z" />
<glyph unicode="f" horiz-adv-x="798" d="M-59 649l104 385h102v94q0 172 125 283t320 111q106 0 297 -45l-98 -367q-35 20 -74 20q-68 0 -68 -55l-2 -41h209l-100 -385h-105v-649h-504v649h-206z" />
<glyph unicode="g" horiz-adv-x="1374" d="M59 537q0 229 127 375.5t328 146.5q78 0 158 -29q41 -14 72.5 -35.5t72.5 -62.5v102h473v-907q0 -244 -189.5 -387t-514.5 -143q-102 0 -135 3t-112 17t-122 26.5t-143 57.5l178 322q31 -16 49 -27q37 -18 76 -29q81 -22 170 -22h8q125 0 193.5 41t68.5 118v60 q-37 -45 -60.5 -63.5t-62.5 -37.5q-88 -36 -189 -36h-5q-195 0 -318 141t-123 369zM569 524q0 -61 32 -99t81 -38q47 0 80 42t33 106q0 63 -31 102t-80 39t-82 -43t-33 -109z" />
<glyph unicode="h" horiz-adv-x="1306" d="M74 0v1245l501 279v-576q12 12 35 31.5t33 26.5q96 63 225 63q162 0 273 -104q55 -51 72.5 -99.5t17.5 -156.5v-709h-500v530q0 41 -2 52.5t-16 25.5q-16 25 -58 25q-80 0 -80 -105v-528h-501z" />
<glyph unicode="i" horiz-adv-x="649" d="M74 0v799l501 282v-1081h-501zM76 1315q0 111 78.5 187.5t189.5 76.5q109 0 184.5 -76t75.5 -188q0 -109 -75.5 -184.5t-184.5 -75.5q-113 0 -190.5 75.5t-77.5 184.5z" />
<glyph unicode="j" horiz-adv-x="649" d="M74 -371v1180l501 276v-1456h-501zM78 1305q0 113 73.5 193.5t178.5 80.5q115 0 194.5 -78t79.5 -190q0 -106 -74.5 -181t-181.5 -75q-113 0 -191.5 73t-78.5 177z" />
<glyph unicode="k" horiz-adv-x="1316" d="M74 0v1247l501 277v-840l185 350h586l-353 -483l412 -551h-629l-201 354v-354h-501z" />
<glyph unicode="l" horiz-adv-x="649" d="M74 0v1249l501 279v-1528h-501z" />
<glyph unicode="m" horiz-adv-x="1859" d="M74 0v809l487 276v-174q10 16 23.5 31.5t25.5 28.5q88 92 234 92q76 0 135 -29q45 -18 79 -53t81 -107q127 188 329 189q145 0 231.5 -96.5t86.5 -259.5v-707h-486v565q0 55 -10 73.5t-45 18.5q-72 0 -71 -100v-557h-488v553v57q-6 12 -8 19q-16 33 -55 33q-59 0 -60 -76 l-2 -33v-553h-487z" />
<glyph unicode="n" horiz-adv-x="1306" d="M74 809l471 278v-149q20 20 29.5 30.5t17.5 16.5q45 39 114.5 59.5t151.5 20.5q180 0 287 -109q47 -47 66.5 -108.5t19.5 -161.5v-686h-500v541q0 98 -72 98q-41 0 -61 -29.5t-20 -91.5l2 -518h-502z" />
<glyph unicode="o" horiz-adv-x="1259" d="M59 512q0 233 168 397t406 164q236 0 402.5 -165t166.5 -396q0 -233 -167 -398t-404 -165q-238 0 -405 165t-167 398zM522 512q0 -63 30 -101t77 -38t77.5 36.5t30.5 94.5q0 70 -28.5 108.5t-77.5 38.5t-79 -38t-30 -101z" />
<glyph unicode="p" horiz-adv-x="1372" d="M74 -428v1462h473v-116l18 18q18 20 25 25q47 41 125 67.5t157 26.5q201 0 322 -151.5t121 -401.5q0 -236 -127 -387.5t-324 -151.5q-84 0 -152.5 28.5t-136.5 96.5v-270zM571 494q0 -63 33 -104.5t86 -41.5q49 0 80 39t31 105q0 68 -31 106.5t-84 38.5q-49 0 -82 -39 t-33 -104z" />
<glyph unicode="q" horiz-adv-x="1372" d="M59 508q0 238 129 393.5t328 155.5q82 0 168 -35q47 -18 72.5 -35.5t70.5 -60.5v108h473v-1216l-503 -244v514l-37 -35q-98 -86 -252 -86q-201 0 -325 148.5t-124 392.5zM573 489q0 -61 31 -100t80 -39q115 0 115 146q0 141 -109 141q-117 0 -117 -148z" />
<glyph unicode="r" horiz-adv-x="966" d="M74 0v803l473 282v-161l49 47q51 39 115.5 63.5t128.5 24.5q33 0 88 -10.5t114 -26.5l-159 -475q-43 35 -72 47t-66 12q-49 0 -91 -24.5t-60.5 -69.5t-18.5 -137v-375h-501z" />
<glyph unicode="s" horiz-adv-x="1046" d="M6 70l111 333q70 -45 109.5 -66.5t92 -37.5t87.5 -16q33 0 55 14t22 37q0 18 -11 29.5t-32 13.5l-51 8l-127 29q-102 29 -158.5 102.5t-56.5 177.5q0 174 138.5 276.5t371.5 102.5q106 0 176 -13t111 -27.5t119 -51.5l-99 -305q-39 18 -82 40.5t-88 38t-76 15.5 q-75 0 -75 -48q0 -50 102 -67l70 -10q133 -25 211 -106.5t78 -200.5q0 -178 -134.5 -282.5t-367.5 -104.5q-53 0 -110.5 8t-98.5 14q-82 16 -135.5 34t-151.5 63z" />
<glyph unicode="t" horiz-adv-x="788" d="M-51 649l686 862v-477h242l-134 -385h-108v-649h-500v649h-186z" />
<glyph unicode="u" horiz-adv-x="1294" d="M74 383v651h501v-547q0 -104 72 -104t72 104v547h502v-651q0 -193 -155 -306.5t-419 -113.5t-418.5 113.5t-154.5 306.5z" />
<glyph unicode="v" horiz-adv-x="1222" d="M-59 1034h534l100 -389q10 -41 21.5 -96t11.5 -139q10 82 18.5 133t22.5 102l96 389h537l-414 -1034h-514z" />
<glyph unicode="w" horiz-adv-x="1757" d="M-45 1034h504l98 -379q4 -14 11 -56t18 -155q16 147 32 209l91 381h360l72 -381l18 -106l15 -103l8 99q0 33 7 67.5t9 44.5l102 379h502l-377 -1034h-450l-68 303l-12 131l-14 123q0 -106 -7.5 -150.5t-23.5 -103.5l-76 -303h-442z" />
<glyph unicode="x" horiz-adv-x="1327" d="M-45 0l393 537l-352 497h569l62 -123q12 -25 21 -59.5t16 -79.5q10 86 36 139l62 123h571l-352 -497l389 -537h-596l-69 137q-16 29 -26.5 78t-14.5 78q-14 -106 -39 -156l-74 -137h-596z" />
<glyph unicode="y" horiz-adv-x="1306" d="M-29 1034h547l113 -397q14 -51 20 -82t6 -88q6 68 13.5 106.5t15.5 71.5l109 389h555l-607 -1405h-561l221 432z" />
<glyph unicode="z" horiz-adv-x="1206" d="M-16 0l387 561q12 18 34.5 39t102.5 82q-90 -39 -125 -50t-57 -11h-295l135 413h1040l-375 -561q-16 -23 -43.5 -48.5t-82.5 -68.5l79 31q55 25 86 25h297l-137 -412h-1046z" />
<glyph unicode="{" horiz-adv-x="813" d="M59 737q59 0 98.5 41t39.5 107v635q0 98 53 151t149 53h293v-176h-26q-61 0 -88 -22.5t-27 -75.5v-520q0 -131 -127 -180l-55 -13l55 -12q57 -23 92 -72t35 -108v-520q0 -98 115 -99h26v-176h-293q-96 0 -149 53.5t-53 151.5v635q0 61 -39.5 104t-98.5 43z" />
<glyph unicode="|" horiz-adv-x="446" d="M59 0v1475h295v-1475h-295z" />
<glyph unicode="}" horiz-adv-x="813" d="M59 -74h27q61 0 88 22.5t27 76.5v520q0 59 34.5 107t94.5 73l53 12l-53 13q-59 25 -94 72.5t-35 107.5v520q0 53 -24.5 75.5t-90.5 22.5h-27v176h293q96 0 149.5 -53t53.5 -151v-635q0 -63 40 -105.5t97 -42.5q-57 0 -97 -42t-40 -105v-635q0 -98 -53 -151.5t-150 -53.5 h-293v176z" />
<glyph unicode="~" horiz-adv-x="630" d="M0 1583v275q63 23 101 30.5t85 7.5q49 0 105 -12l92 -20q41 -10 80 -14.5t76 -4.5q59 0 96 8.5t100 36.5v-272q-72 -20 -106.5 -26.5t-77.5 -6.5h-57q-25 6 -37 8l-90 21q-121 27 -187 26q-49 0 -81.5 -10t-98.5 -47z" />
<glyph unicode="&#xa1;" horiz-adv-x="712" d="M88 0l68 920h387l82 -920h-537zM98 1249q0 106 75 181t183 75q106 0 179 -74.5t73 -183.5q0 -104 -74.5 -179t-181.5 -75q-104 0 -179 75t-75 181z" />
<glyph unicode="&#xa2;" horiz-adv-x="1026" d="M59 514q0 246 179 412q61 61 118.5 88t159.5 47v113h256v-113q70 -12 100.5 -22.5t131.5 -55.5l-111 -367q-102 61 -178 62q-59 0 -100.5 -43t-41.5 -109q0 -70 41 -110.5t115 -40.5q33 0 61.5 7t102.5 36l100 -338q-147 -76 -233 -105v-122h-252v116q-111 27 -166 55.5 t-121 96.5q-162 168 -162 393z" />
<glyph unicode="&#xa3;" horiz-adv-x="1271" d="M74 39l82 381q55 -18 77 -19q41 0 72 33t31 78q0 27 -5 41t-22 37h-205v223h103q-43 70 -60.5 126t-17.5 128q0 199 137 317.5t369 118.5q100 0 190 -22q86 -18 137.5 -37t161.5 -76l-123 -356q-63 41 -106 63.5t-82 36.5q-53 14 -92 14q-55 0 -90 -28.5t-35 -77.5 q0 -35 18.5 -72t85.5 -137h342v-221h-284q0 -23 -7.5 -44.5t-23.5 -51t-51 -64.5q-27 -25 -86 -55q96 0 145 -4t115 -9q135 0 200.5 14.5t188.5 69.5l-86 -421q-156 -39 -239 -49.5t-220 -10.5h-76q-178 0 -319 25q-37 6 -225 49z" />
<glyph unicode="&#xa4;" horiz-adv-x="1017" d="M59 426l109 106q-59 92 -59 211q0 57 15 110.5t44 98.5l-105 105q20 29 41 52.5t48 43.5l112 -115q96 68 209 68t207 -66l111 115l28 -22q41 -37 64 -78l-107 -101q35 -47 51.5 -102t16.5 -115q0 -115 -70 -209l109 -106l-21 -25l-20 -20l-51 -51l-111 110 q-92 -68 -207 -67q-115 0 -207 67l-116 -108l-23 22l-21 23l-24 26zM236 737q0 -100 69.5 -169.5t169.5 -69.5t171 70.5t71 168.5t-71 169t-171 71q-98 0 -168.5 -71t-70.5 -169z" />
<glyph unicode="&#xa5;" horiz-adv-x="1632" d="M53 1477h584l151 -318q8 -18 19 -82l12 -78l6 78l19 82l149 318h586l-307 -529h250v-223h-381l-56 -92l-4 -84h447v-225h-447l4 -324h-538v324h-438v227l438 -2v84l-51 88h-385v231h249z" />
<glyph unicode="&#xa7;" horiz-adv-x="1509" d="M55 502q0 115 60 211q39 63 137 155q-84 109 -84 213q0 141 94 252q74 88 190.5 128t301.5 40q170 0 305 -45q41 -14 87 -40.5t87 -57.5q90 -76 127 -149.5t53 -219.5l-426 25q-29 94 -59.5 119.5t-74.5 38t-93 12.5q-55 0 -89 -17.5t-34 -44.5q0 -51 80 -86l500 -213 q106 -45 169.5 -132t63.5 -189q0 -115 -64 -219q-20 -35 -39.5 -58.5t-70.5 -72.5q39 -70 53 -117t14 -92q0 -188 -161.5 -307t-421.5 -119q-121 0 -260 34q-117 27 -221.5 90.5t-145.5 151.5t-41 260l424 -22l-2 -11q0 -61 12.5 -88.5t55.5 -56.5q31 -20 85 -32.5 t109 -12.5q39 0 64.5 21.5t25.5 54.5q0 51 -78 84l-520 203q-213 86 -213 309zM512 616q0 -51 23 -77q12 -14 37.5 -30.5t47 -29t46.5 -22.5l329 -127l-4 24l13 47l2 7q0 27 -30 58.5t-71 49.5l-383 166q4 0 8 -8l-14 -35z" />
<glyph unicode="&#xa8;" horiz-adv-x="788" d="M0 1311q0 78 49 135t119 57q74 0 125 -55t51 -137q0 -76 -49 -129.5t-123 -53.5q-70 0 -121 53.5t-51 129.5zM446 1311q0 78 51.5 135t123.5 57q70 0 118.5 -55t48.5 -135q0 -78 -49 -131.5t-123 -53.5q-72 0 -121 53.5t-49 129.5z" />
<glyph unicode="&#xa9;" horiz-adv-x="1908" d="M119 737q0 315 223 540.5t541 225.5q317 0 540.5 -223t223.5 -543q0 -317 -223.5 -540.5t-540.5 -223.5t-540.5 223.5t-223.5 540.5zM260 737q0 -258 184 -448q88 -88 204 -136.5t235 -48.5q123 0 236.5 46.5t201.5 138.5q184 188 184 448q0 127 -46 242t-136 207 t-202.5 138t-237.5 46q-123 0 -235.5 -46t-201 -136t-137.5 -208t-49 -243zM467 731q0 20 3 46t5 40q31 166 152 268.5t288 102.5q39 0 82 -6q121 -23 211 -95l-90 -133q-57 47 -107 56.5t-79 9.5q-104 0 -182 -66.5t-95 -171.5q-4 -37 -4 -53q0 -111 64.5 -188.5 t173.5 -94.5q33 -4 47 -4q55 0 111 23q18 10 35.5 20.5t35.5 26.5l88 -135q-82 -63 -182 -88q-59 -12 -115 -13q-164 0 -280.5 94.5t-149.5 258.5q-12 49 -12 102z" />
<glyph unicode="&#xaa;" horiz-adv-x="999" d="M57 1098q0 29 2 45t9 53q27 137 123 219t215 82q84 0 153 -43q57 -37 88 -86v107h215l2 -725h-219v112l-16 -26q-31 -45 -92.5 -75t-133.5 -30q-16 0 -36.5 3t-32.5 5q-121 23 -199 121t-78 238zM78 457v196h786v-196h-786zM283 1114q0 -78 39.5 -128t109.5 -62 q25 -4 35 -4q68 0 117 43t63 114q4 25 4 37t-4 37q-23 127 -141 154q-14 4 -43 4q-76 0 -128 -54.5t-52 -140.5z" />
<glyph unicode="&#xab;" horiz-adv-x="1347" d="M45 516l524 524l219 -217l-309 -309l307 -303l-219 -217zM561 516l524 524l220 -217l-312 -309l312 -303l-220 -217z" />
<glyph unicode="&#xac;" horiz-adv-x="1402" d="M59 737v295h1180v-590h-221v295h-959z" />
<glyph unicode="&#xad;" horiz-adv-x="675" d="M45 397v328h586v-328h-586z" />
<glyph unicode="&#xae;" horiz-adv-x="1908" d="M119 737q0 315 223 540.5t541 225.5q317 0 540.5 -223t223.5 -543q0 -317 -223.5 -540.5t-540.5 -223.5t-540.5 223.5t-223.5 540.5zM260 737q0 -258 184 -448q88 -88 204 -136.5t235 -48.5q123 0 236.5 46.5t201.5 138.5q184 188 184 448q0 127 -46 242t-136 207 t-202.5 138t-237.5 46q-123 0 -235.5 -46t-201 -136t-137.5 -208t-49 -243zM606 309v875h275q86 0 126 -10.5t83 -43.5q70 -51 88 -141q4 -14 6 -35.5t2 -38.5q0 -86 -45 -144t-131 -83l-17 -4l246 -375h-209l-246 396v-396h-178zM784 776h68q125 0 147 103q4 29 5 39 q0 57 -38 88.5t-108 31.5h-74v-262z" />
<glyph unicode="&#xaf;" horiz-adv-x="524" d="M0 1155v227h522v-227h-522z" />
<glyph unicode="&#xb1;" horiz-adv-x="1216" d="M90 39v139h946v-139h-946zM90 539v139h404v250h139v-250h403v-139h-403v-250h-139v250h-404z" />
<glyph unicode="&#xb4;" horiz-adv-x="473" d="M106 1227l222 360l256 -139l-285 -326z" />
<glyph unicode="&#xb5;" horiz-adv-x="1275" d="M150 -285l4 119l4 182l-2 207l-4 195v502h188v-607q0 -145 28.5 -194t102.5 -49q117 0 194.5 165.5t77.5 417.5v267h189v-672q0 -92 19.5 -135t58.5 -43q41 0 64.5 42t23.5 126v28h43l2 -18v-27q0 -113 -48 -176t-137 -63q-100 0 -154 88t-54 264q-47 -182 -126 -267 t-198 -85q-86 0 -150 53q-57 55 -81 158l-2 -58q0 -133 65.5 -290.5t65.5 -186.5q0 -41 -22.5 -63.5t-63.5 -22.5q-47 0 -67.5 35t-20.5 108z" />
<glyph unicode="&#xb6;" horiz-adv-x="1372" d="M59 1024q0 186 130.5 318.5t316.5 132.5h704v-162h-706q-119 0 -202 -85t-83 -206q0 -119 83 -202t202 -83h123v457h176v-1194h-176v575h-123q-184 0 -314.5 130.5t-130.5 318.5zM922 0v1194h176v-1194h-176z" />
<glyph unicode="&#xb7;" horiz-adv-x="659" d="M74 602q0 106 73.5 180t182.5 74q106 0 181 -74.5t75 -179.5q0 -104 -76 -180t-182 -76t-180 73.5t-74 182.5z" />
<glyph unicode="&#xb8;" horiz-adv-x="409" d="M0 -403l139 337l271 -16l-189 -332z" />
<glyph unicode="&#xba;" horiz-adv-x="999" d="M59 1114q0 166 117 278.5t283 112.5q18 0 38.5 -3t43.5 -5q145 -29 234 -134.5t89 -248.5q0 -166 -114.5 -278.5t-288.5 -112.5q-172 0 -287 112.5t-115 278.5zM72 457v196h782v-196h-782zM274 1114l5 -37q14 -68 64 -110.5t118 -42.5q78 0 132 54t54 136l-4 37 q-23 123 -145 149q-12 2 -37 3q-25 0 -37 -3q-119 -27 -145 -151z" />
<glyph unicode="&#xbb;" horiz-adv-x="1341" d="M45 823l217 215l518 -522l-522 -520l-211 217l305 305zM561 823l215 215l522 -522l-524 -520l-211 217l305 305z" />
<glyph unicode="&#xbf;" horiz-adv-x="1019" d="M43 391q0 68 29 144q20 53 50 91t91 85l59 47q33 25 59 63t34 99h391q-6 -59 -12.5 -94t-18.5 -71t-26.5 -56.5t-55.5 -63.5q-55 -53 -74.5 -74.5t-38.5 -50.5q-18 -37 -18 -70q0 -41 35 -67.5t86 -26.5q53 0 102 19q63 25 174 96l127 -357q-20 -10 -64 -30.5t-59 -24.5 q-180 -78 -356 -78q-227 0 -370.5 117t-143.5 303zM311 1253q0 106 77 181t183 75t179 -74.5t73 -183.5q0 -106 -74.5 -179t-181.5 -73q-104 0 -180 74t-76 180z" />
<glyph unicode="&#xc0;" horiz-adv-x="1499" d="M-59 0l524 1477h569l522 -1477h-585l-43 190h-357l-43 -190h-587zM473 1919l258 139l222 -358l-197 -107zM637 561h227l-80 352l-20 86l-10 99l-17 -103l-20 -82z" />
<glyph unicode="&#xc1;" horiz-adv-x="1499" d="M-59 0l524 1477h569l522 -1477h-585l-43 190h-357l-43 -190h-587zM618 1694l222 360l256 -139l-285 -326zM637 561h227l-80 352l-20 86l-10 99l-17 -103l-20 -82z" />
<glyph unicode="&#xc2;" horiz-adv-x="1499" d="M-59 0l524 1477h569l522 -1477h-585l-43 190h-357l-43 -190h-587zM365 1772l383 280l383 -280l-70 -181l-313 148l-312 -148zM637 561h227l-80 352l-20 86l-10 99l-17 -103l-20 -82z" />
<glyph unicode="&#xc3;" horiz-adv-x="1499" d="M-59 0l524 1477h569l522 -1477h-585l-43 190h-357l-43 -190h-587zM420 1614v246q92 35 165 34q43 0 95 -10l82 -20q45 -8 73.5 -12.5t65.5 -4.5q88 0 176 43v-245q-59 -18 -93 -24.5t-71 -6.5q-18 0 -45 3t-41 5l-78 19q-96 25 -168 24q-65 0 -161 -51zM637 561h227 l-80 352l-20 86l-10 99l-17 -103l-20 -82z" />
<glyph unicode="&#xc4;" horiz-adv-x="1499" d="M-59 0l469 1329q-113 57 -175.5 113.5t-62.5 103.5q0 92 66.5 159t160.5 67t161 -67t67 -159l-6 -69h305q-31 53 -31 69q0 92 66.5 159t160.5 67q96 0 164 -61.5t68 -151.5q0 -51 -70 -113t-192 -117l464 -1329h-585l-43 190h-357l-43 -190h-587zM637 561h227l-80 352 l-20 86l-10 99l-17 -103l-20 -82z" />
<glyph unicode="&#xc5;" horiz-adv-x="1499" d="M-59 0l524 1477h125q-106 111 -107 163q0 88 75 148.5t183 60.5q109 0 184.5 -61.5t75.5 -147.5q0 -51 -96 -163h129l522 -1477h-585l-43 190h-357l-43 -190h-587zM637 561h227l-80 352l-20 86l-10 99l-17 -103l-20 -82zM678 1640q0 -41 16.5 -67.5t44.5 -26.5 q27 0 47.5 28t20.5 64q0 41 -18.5 68t-49.5 27q-25 0 -43 -27t-18 -66z" />
<glyph unicode="&#xc6;" horiz-adv-x="2091" d="M-59 0l833 1477h1307l-111 -414h-459v-119h412v-399h-410v-123h570l-117 -422h-993v188h-369l-78 -188h-585zM760 557h213v485z" />
<glyph unicode="&#xc7;" horiz-adv-x="1327" d="M59 741q0 326 227.5 549t561.5 223q127 0 242 -38q49 -16 101 -41t126 -68l-164 -459l-68 47q-109 61 -206 62q-119 0 -201 -78t-82 -195q0 -113 79 -191.5t193 -78.5q57 0 125 21q33 12 69 30.5t91 50.5l162 -466l-107 -60q-160 -80 -352 -80q-338 0 -567.5 221.5 t-229.5 550.5zM555 -385l78 319h346l-141 -319h-283z" />
<glyph unicode="&#xc8;" horiz-adv-x="1198" d="M74 0v1477h1116l-115 -414h-454v-125h411v-395h-411v-129h571l-121 -414h-997zM323 1919l258 139l222 -358l-197 -107z" />
<glyph unicode="&#xc9;" horiz-adv-x="1198" d="M74 0v1477h1116l-115 -414h-454v-125h411v-395h-411v-129h571l-121 -414h-997zM468 1694l222 360l256 -139l-285 -326z" />
<glyph unicode="&#xca;" horiz-adv-x="1198" d="M74 0v1477h1116l-115 -414h-454v-125h411v-395h-411v-129h571l-121 -414h-997zM213 1772l383 280l383 -280l-70 -181l-313 148l-312 -148z" />
<glyph unicode="&#xcb;" horiz-adv-x="1198" d="M74 0v1477h1116l-115 -414h-454v-125h411v-395h-411v-129h571l-121 -414h-997zM205 1778q0 78 49 135t119 57q74 0 125 -55t51 -137q0 -76 -49 -129.5t-123 -53.5q-70 0 -121 53.5t-51 129.5zM651 1778q0 78 51.5 135t123.5 57q70 0 118.5 -55t48.5 -135 q0 -78 -49 -131.5t-123 -53.5q-72 0 -121 53.5t-49 129.5z" />
<glyph unicode="&#xcc;" horiz-adv-x="692" d="M69 1919l258 139l222 -358l-197 -107zM74 0v1477h547v-1477h-547z" />
<glyph unicode="&#xcd;" horiz-adv-x="692" d="M74 0v1477h547v-1477h-547zM215 1694l222 360l256 -139l-285 -326z" />
<glyph unicode="&#xce;" horiz-adv-x="692" d="M-38 1772l383 280l383 -280l-70 -181l-313 148l-312 -148zM74 0v1477h547v-1477h-547z" />
<glyph unicode="&#xcf;" horiz-adv-x="692" d="M-47 1778q0 78 49 135t119 57q74 0 125 -55t51 -137q0 -76 -49 -129.5t-123 -53.5q-70 0 -121 53.5t-51 129.5zM74 0v1477h547v-1477h-547zM399 1778q0 78 51.5 135t123.5 57q70 0 118.5 -55t48.5 -135q0 -78 -49 -131.5t-123 -53.5q-72 0 -121 53.5t-49 129.5z" />
<glyph unicode="&#xd1;" horiz-adv-x="1634" d="M74 0v1477h534l350 -584q31 -51 50.5 -97t85.5 -241q-31 125 -42.5 193.5t-11.5 146.5l-12 582h531v-1477h-541l-340 549l-94 219l-35 111q23 -102 29 -140q16 -92 16 -184l10 -555h-530zM488 1614v246q92 35 165 34q43 0 95 -10l82 -20q45 -8 73.5 -12.5t65.5 -4.5 q88 0 176 43v-245q-59 -18 -93 -24.5t-71 -6.5q-18 0 -45 3t-41 5l-78 19q-96 25 -168 24q-65 0 -161 -51z" />
<glyph unicode="&#xd2;" horiz-adv-x="1751" d="M59 737q0 338 233.5 555t600.5 217q340 0 569.5 -221t229.5 -551q0 -332 -231.5 -551t-586.5 -219q-352 0 -583.5 219t-231.5 551zM596 737q0 -119 80 -198.5t198 -79.5q119 0 199 79.5t80 198.5q0 117 -79.5 199t-196.5 82q-119 0 -200 -81t-81 -200zM600 1919l258 139 l222 -358l-197 -107z" />
<glyph unicode="&#xd3;" horiz-adv-x="1751" d="M59 737q0 338 233.5 555t600.5 217q340 0 569.5 -221t229.5 -551q0 -332 -231.5 -551t-586.5 -219q-352 0 -583.5 219t-231.5 551zM596 737q0 -119 80 -198.5t198 -79.5q119 0 199 79.5t80 198.5q0 117 -79.5 199t-196.5 82q-119 0 -200 -81t-81 -200zM745 1694l222 360 l256 -139l-285 -326z" />
<glyph unicode="&#xd4;" horiz-adv-x="1751" d="M59 737q0 338 233.5 555t600.5 217q340 0 569.5 -221t229.5 -551q0 -332 -231.5 -551t-586.5 -219q-352 0 -583.5 219t-231.5 551zM490 1772l383 280l383 -280l-70 -181l-313 148l-312 -148zM596 737q0 -119 80 -198.5t198 -79.5q119 0 199 79.5t80 198.5 q0 117 -79.5 199t-196.5 82q-119 0 -200 -81t-81 -200z" />
<glyph unicode="&#xd5;" horiz-adv-x="1751" d="M59 737q0 338 233.5 555t600.5 217q340 0 569.5 -221t229.5 -551q0 -332 -231.5 -551t-586.5 -219q-352 0 -583.5 219t-231.5 551zM547 1614v246q92 35 165 34q43 0 95 -10l82 -20q45 -8 73.5 -12.5t65.5 -4.5q88 0 176 43v-245q-59 -18 -93 -24.5t-71 -6.5q-18 0 -45 3 t-41 5l-78 19q-96 25 -168 24q-65 0 -161 -51zM596 737q0 -119 80 -198.5t198 -79.5q119 0 199 79.5t80 198.5q0 117 -79.5 199t-196.5 82q-119 0 -200 -81t-81 -200z" />
<glyph unicode="&#xd6;" horiz-adv-x="1751" d="M59 741q0 225 60.5 347t238.5 255q-137 133 -137 209q0 94 65.5 160t159.5 66q109 0 172.5 -68t63.5 -184l-2 -51q135 35 199 34q63 0 208 -34q-8 20 -12 42.5t-4 34.5q0 92 68.5 159t165.5 67q92 0 158.5 -64.5t66.5 -152.5q0 -43 -33 -99.5t-96 -122.5 q172 -135 231.5 -258t59.5 -340q0 -336 -231.5 -555t-586.5 -219q-352 0 -583.5 219.5t-231.5 554.5zM596 739q0 -121 80 -200.5t201 -79.5q117 0 196.5 79.5t79.5 198.5q0 121 -80 201t-199 80q-117 0 -197.5 -81t-80.5 -198z" />
<glyph unicode="&#xd8;" horiz-adv-x="1751" d="M55 788q0 276 234.5 500.5t521.5 224.5q106 0 275.5 -55t353.5 -151l178 166l72 -72l-179 -166q184 -344 185 -549q0 -276 -233.5 -499.5t-524.5 -223.5q-109 0 -264.5 49t-339.5 142l-199 -187l-74 82l195 184q-100 178 -150.5 316.5t-50.5 238.5zM604 750 q0 -52 43 -158l408 369q-123 53 -181 53q-45 0 -94 -22.5t-96 -65.5q-80 -76 -80 -176zM719 510q106 -53 174 -53q102 0 182 82t80 186q0 56 -35 154z" />
<glyph unicode="&#xd9;" horiz-adv-x="1511" d="M74 563v914h547v-869q0 -51 6 -76.5t24.5 -47t46 -34t60.5 -12.5q63 0 104 45q31 37 31 125v869h547v-914q0 -272 -183.5 -433t-498.5 -161t-499.5 160t-184.5 434zM479 1919l258 139l222 -358l-197 -107z" />
<glyph unicode="&#xda;" horiz-adv-x="1511" d="M74 563v914h547v-869q0 -51 6 -76.5t24.5 -47t46 -34t60.5 -12.5q63 0 104 45q31 37 31 125v869h547v-914q0 -272 -183.5 -433t-498.5 -161t-499.5 160t-184.5 434zM624 1694l222 360l256 -139l-285 -326z" />
<glyph unicode="&#xdb;" horiz-adv-x="1511" d="M74 563v914h547v-869q0 -51 6 -76.5t24.5 -47t46 -34t60.5 -12.5q63 0 104 45q31 37 31 125v869h547v-914q0 -272 -183.5 -433t-498.5 -161t-499.5 160t-184.5 434zM371 1772l383 280l383 -280l-70 -181l-313 148l-312 -148z" />
<glyph unicode="&#xdc;" horiz-adv-x="1511" d="M74 563v914h170q-14 57 -15 71q0 92 65.5 158t160.5 66q94 0 159.5 -63.5t65.5 -156.5q0 -57 -57 -159l-2 -785q0 -51 6 -76.5t24 -48.5q39 -45 105 -45t106 45q31 37 31 125l2 783q-68 100 -68 161q0 92 65.5 156t164.5 64q104 0 163.5 -61.5t59.5 -170.5l-4 -63h162 v-914q0 -272 -183.5 -433t-498.5 -161q-313 0 -497.5 160t-184.5 434z" />
<glyph unicode="&#xdf;" horiz-adv-x="1390" d="M74 0v1059q0 211 159 321q170 123 439 123q242 0 395.5 -104.5t153.5 -270.5q0 -68 -25 -119t-82 -102q-33 -29 -69.5 -50t-90.5 -40q104 -16 153.5 -37.5t104.5 -77.5q127 -119 127 -284q0 -190 -153.5 -317.5t-386.5 -127.5q-51 0 -77 4.5t-85 18.5l29 295h20 q74 0 125 45t51 113q0 158 -209 157l-32 -2v344q188 0 188 117q0 39 -28.5 63.5t-73.5 24.5q-14 0 -24.5 -1t-29.5 -7q-43 -16 -59 -53t-16 -119v-973h-504z" />
<glyph unicode="&#xe0;" horiz-adv-x="1372" d="M59 514q0 240 129 393.5t330 153.5q47 0 85 -6t82 -23.5t69.5 -35t70.5 -60.5v98h475v-1034h-475v106l-39 -43q-106 -90 -286 -90q-199 0 -320 147.5t-121 393.5zM409 1452l258 139l222 -358l-197 -107zM569 524q0 -139 113 -139q51 0 82 40t31 110q0 66 -31 102.5 t-82 36.5t-82 -41t-31 -109z" />
<glyph unicode="&#xe1;" horiz-adv-x="1372" d="M59 514q0 240 129 393.5t330 153.5q47 0 85 -6t82 -23.5t69.5 -35t70.5 -60.5v98h475v-1034h-475v106l-39 -43q-106 -90 -286 -90q-199 0 -320 147.5t-121 393.5zM555 1227l222 360l256 -139l-285 -326zM569 524q0 -139 113 -139q51 0 82 40t31 110q0 66 -31 102.5 t-82 36.5t-82 -41t-31 -109z" />
<glyph unicode="&#xe2;" horiz-adv-x="1372" d="M59 514q0 240 129 393.5t330 153.5q47 0 85 -6t82 -23.5t69.5 -35t70.5 -60.5v98h475v-1034h-475v106l-39 -43q-106 -90 -286 -90q-199 0 -320 147.5t-121 393.5zM302 1305l383 280l383 -280l-70 -181l-313 148l-312 -148zM569 524q0 -139 113 -139q51 0 82 40t31 110 q0 66 -31 102.5t-82 36.5t-82 -41t-31 -109z" />
<glyph unicode="&#xe3;" horiz-adv-x="1372" d="M59 514q0 240 129 393.5t330 153.5q47 0 85 -6t82 -23.5t69.5 -35t70.5 -60.5v98h475v-1034h-475v106l-39 -43q-106 -90 -286 -90q-199 0 -320 147.5t-121 393.5zM357 1147v246q92 35 165 34q43 0 95 -10l82 -20q45 -8 73.5 -12.5t65.5 -4.5q88 0 176 43v-245 q-59 -18 -93 -24.5t-71 -6.5q-18 0 -45 3t-41 5l-78 19q-96 25 -168 24q-65 0 -161 -51zM569 524q0 -139 113 -139q51 0 82 40t31 110q0 66 -31 102.5t-82 36.5t-82 -41t-31 -109z" />
<glyph unicode="&#xe4;" horiz-adv-x="1372" d="M59 514q0 240 129 393.5t330 153.5q47 0 85 -6t82 -23.5t69.5 -35t70.5 -60.5v98h475v-1034h-475v106l-39 -43q-106 -90 -286 -90q-199 0 -320 147.5t-121 393.5zM293 1311q0 80 48 136t120 56t123 -55t51 -137q0 -76 -49 -129.5t-121 -53.5q-70 0 -121 53.5t-51 129.5z M569 524q0 -139 113 -139q51 0 82 40t31 110q0 66 -31 102.5t-82 36.5t-82 -41t-31 -109zM739 1311q0 80 50.5 136t121.5 56q72 0 121 -55t49 -135q0 -76 -50 -130.5t-124 -54.5q-70 0 -119 53.5t-49 129.5z" />
<glyph unicode="&#xe5;" horiz-adv-x="1372" d="M59 514q0 240 129 393.5t330 153.5q47 0 85 -6t82 -23.5t69.5 -35t70.5 -60.5v98h475v-1034h-475v106l-39 -43q-106 -90 -286 -90q-199 0 -320 147.5t-121 393.5zM512 1333q0 86 70.5 146.5t173.5 60.5q100 0 169.5 -59.5t69.5 -145.5t-70.5 -146.5t-170.5 -60.5 t-171 60.5t-71 144.5zM569 524q0 -139 113 -139q51 0 82 40t31 110q0 66 -31 102.5t-82 36.5t-82 -41t-31 -109zM672 1335q0 -45 23.5 -74.5t58.5 -29.5t59.5 30.5t24.5 71.5q0 43 -24.5 74t-59.5 31q-33 0 -57.5 -31t-24.5 -72z" />
<glyph unicode="&#xe6;" horiz-adv-x="1880" d="M57 520q0 240 124 392.5t321 152.5q74 0 128 -17.5t128 -68.5v55h332v-41q66 47 115.5 63.5t133.5 16.5q63 0 129 -15.5t127 -45.5q113 -55 171.5 -125t119.5 -223l-575 -297q39 -45 78 -45q51 0 90 53l313 -189q-70 -80 -113 -114.5t-120 -67.5q-106 -43 -222 -43 q-82 0 -126 12.5t-121 57.5v-31h-334v63q-131 -88 -267 -88q-186 0 -309 154t-123 391zM573 528q0 -61 31 -100t84 -39q57 0 81 36t24 120q-1 135 -105 135q-53 0 -84 -39t-31 -113zM1204 573q0 -22 8 -53l283 142q-55 63 -131 63q-63 0 -111.5 -46t-48.5 -106z" />
<glyph unicode="&#xe7;" horiz-adv-x="1026" d="M59 514q0 242 164 401.5t414 159.5q90 0 163 -18.5t204 -73.5l-111 -367q-102 61 -178 62q-59 0 -100.5 -43t-41.5 -109q0 -70 41 -110.5t115 -40.5q33 0 61.5 7t102.5 36l100 -338q-135 -72 -213 -95.5t-172 -23.5q-229 0 -389 160t-160 393zM297 -403l139 337l271 -16 l-189 -332z" />
<glyph unicode="&#xe8;" horiz-adv-x="1146" d="M59 498q0 244 158 405.5t395 161.5q109 0 209.5 -39t177.5 -113q57 -53 86 -102.5t68 -155.5l-573 -290q37 -45 75 -46q51 0 86 52l322 -195l-92 -94q-68 -55 -168.5 -90t-196.5 -35q-231 0 -389 155.5t-158 385.5zM297 1452l258 139l222 -358l-197 -107zM485 580l7 -56 l282 144q-55 63 -129 63q-63 0 -111.5 -46t-48.5 -105z" />
<glyph unicode="&#xe9;" horiz-adv-x="1146" d="M59 498q0 244 158 405.5t395 161.5q109 0 209.5 -39t177.5 -113q57 -53 86 -102.5t68 -155.5l-573 -290q37 -45 75 -46q51 0 86 52l322 -195l-92 -94q-68 -55 -168.5 -90t-196.5 -35q-231 0 -389 155.5t-158 385.5zM442 1227l222 360l256 -139l-285 -326zM485 580l7 -56 l282 144q-55 63 -129 63q-63 0 -111.5 -46t-48.5 -105z" />
<glyph unicode="&#xea;" horiz-adv-x="1146" d="M59 498q0 244 158 405.5t395 161.5q109 0 209.5 -39t177.5 -113q57 -53 86 -102.5t68 -155.5l-573 -290q37 -45 75 -46q51 0 86 52l322 -195l-92 -94q-68 -55 -168.5 -90t-196.5 -35q-231 0 -389 155.5t-158 385.5zM189 1305l383 280l383 -280l-70 -181l-313 148 l-312 -148zM485 580l7 -56l282 144q-55 63 -129 63q-63 0 -111.5 -46t-48.5 -105z" />
<glyph unicode="&#xeb;" horiz-adv-x="1146" d="M59 498q0 244 158 405.5t395 161.5q109 0 209.5 -39t177.5 -113q57 -53 86 -102.5t68 -155.5l-573 -290q37 -45 75 -46q51 0 86 52l322 -195l-92 -94q-68 -55 -168.5 -90t-196.5 -35q-231 0 -389 155.5t-158 385.5zM178 1311q0 78 49 135t119 57q74 0 125 -55t51 -137 q0 -76 -49 -129.5t-123 -53.5q-70 0 -121 53.5t-51 129.5zM485 580l7 -56l282 144q-55 63 -129 63q-63 0 -111.5 -46t-48.5 -105zM624 1311q0 78 51.5 135t123.5 57q70 0 118.5 -55t48.5 -135q0 -78 -49 -131.5t-123 -53.5q-72 0 -121 53.5t-49 129.5z" />
<glyph unicode="&#xec;" horiz-adv-x="649" d="M49 1452l258 139l222 -358l-197 -107zM74 0v799l501 282v-1081h-501z" />
<glyph unicode="&#xed;" horiz-adv-x="649" d="M74 0v799l501 282v-1081h-501zM194 1227l222 360l256 -139l-285 -326z" />
<glyph unicode="&#xee;" horiz-adv-x="649" d="M-61 1305l383 280l383 -280l-70 -181l-313 148l-312 -148zM74 0v799l501 282v-1081h-501z" />
<glyph unicode="&#xef;" horiz-adv-x="649" d="M-70 1311q0 78 49 135t119 57q74 0 125 -55t51 -137q0 -76 -49 -129.5t-123 -53.5q-70 0 -121 53.5t-51 129.5zM74 0v799l501 282v-1081h-501zM376 1311q0 78 51.5 135t123.5 57q70 0 118.5 -55t48.5 -135q0 -78 -49 -131.5t-123 -53.5q-72 0 -121 53.5t-49 129.5z" />
<glyph unicode="&#xf1;" horiz-adv-x="1306" d="M74 809l471 278v-149q20 20 29.5 30.5t17.5 16.5q45 39 114.5 59.5t151.5 20.5q180 0 287 -109q47 -47 66.5 -108.5t19.5 -161.5v-686h-500v541q0 98 -72 98q-41 0 -61 -29.5t-20 -91.5l2 -518h-502zM324 1147v246q92 35 165 34q43 0 95 -10l82 -20q45 -8 73.5 -12.5 t65.5 -4.5q88 0 176 43v-245q-59 -18 -93 -24.5t-71 -6.5q-18 0 -45 3t-41 5l-78 19q-96 25 -168 24q-65 0 -161 -51z" />
<glyph unicode="&#xf2;" horiz-adv-x="1259" d="M59 512q0 233 168 397t406 164q236 0 402.5 -165t166.5 -396q0 -233 -167 -398t-404 -165q-238 0 -405 165t-167 398zM354 1452l258 139l222 -358l-197 -107zM522 512q0 -63 30 -101t77 -38t77.5 36.5t30.5 94.5q0 70 -28.5 108.5t-77.5 38.5t-79 -38t-30 -101z" />
<glyph unicode="&#xf3;" horiz-adv-x="1259" d="M59 512q0 233 168 397t406 164q236 0 402.5 -165t166.5 -396q0 -233 -167 -398t-404 -165q-238 0 -405 165t-167 398zM499 1227l222 360l256 -139l-285 -326zM522 512q0 -63 30 -101t77 -38t77.5 36.5t30.5 94.5q0 70 -28.5 108.5t-77.5 38.5t-79 -38t-30 -101z" />
<glyph unicode="&#xf4;" horiz-adv-x="1259" d="M59 512q0 233 168 397t406 164q236 0 402.5 -165t166.5 -396q0 -233 -167 -398t-404 -165q-238 0 -405 165t-167 398zM244 1305l383 280l383 -280l-70 -181l-313 148l-312 -148zM522 512q0 -63 30 -101t77 -38t77.5 36.5t30.5 94.5q0 70 -28.5 108.5t-77.5 38.5t-79 -38 t-30 -101z" />
<glyph unicode="&#xf5;" horiz-adv-x="1259" d="M59 512q0 233 168 397t406 164q236 0 402.5 -165t166.5 -396q0 -233 -167 -398t-404 -165q-238 0 -405 165t-167 398zM302 1147v246q92 35 165 34q43 0 95 -10l82 -20q45 -8 73.5 -12.5t65.5 -4.5q88 0 176 43v-245q-59 -18 -93 -24.5t-71 -6.5q-18 0 -45 3t-41 5l-78 19 q-96 25 -168 24q-65 0 -161 -51zM522 512q0 -63 30 -101t77 -38t77.5 36.5t30.5 94.5q0 70 -28.5 108.5t-77.5 38.5t-79 -38t-30 -101z" />
<glyph unicode="&#xf6;" horiz-adv-x="1259" d="M59 512q0 233 168 397t406 164q236 0 402.5 -165t166.5 -396q0 -233 -167 -398t-404 -165q-238 0 -405 165t-167 398zM262 1311q0 80 48 136t120 56t123 -55t51 -137q0 -76 -49 -129.5t-121 -53.5q-74 0 -123 53.5t-49 129.5zM522 512q0 -63 30 -101t77 -38t77.5 36.5 t30.5 94.5q0 70 -28.5 108.5t-77.5 38.5t-79 -38t-30 -101zM709 1311q0 80 50 136t122 56q70 0 119 -55t49 -135q0 -78 -49.5 -131.5t-122.5 -53.5q-70 0 -119 53.5t-49 129.5z" />
<glyph unicode="&#xf7;" horiz-adv-x="1216" d="M88 414v139h948v-139h-948zM446 207q0 49 33 82q39 35 84 35q49 0 82 -33t33 -84q0 -49 -35 -82q-31 -35 -80 -35t-83 36t-34 81zM446 758q0 49 33 82q39 35 84 34q49 0 80 -34q35 -35 35 -82q0 -49 -35 -82q-31 -35 -80 -35t-83 34t-34 83z" />
<glyph unicode="&#xf8;" horiz-adv-x="1275" d="M57 551q0 201 170 354q197 170 377 170q154 1 426 -153l121 114l51 -53l-121 -117q137 -252 138 -395q0 -94 -45.5 -185t-129.5 -167q-186 -170 -372 -170q-152 0 -420 155l-125 -120l-47 59l119 111q-141 252 -142 397zM526 524l4 -55l175 160q-43 29 -74 28 q-43 0 -74 -38.5t-31 -94.5zM571 403q43 -31 74 -30q41 0 69.5 36.5t28.5 92.5l-6 55z" />
<glyph unicode="&#xf9;" horiz-adv-x="1294" d="M74 383v651h501v-547q0 -104 72 -104t72 104v547h502v-651q0 -193 -155 -306.5t-419 -113.5t-418.5 113.5t-154.5 306.5zM370 1452l258 139l222 -358l-197 -107z" />
<glyph unicode="&#xfa;" horiz-adv-x="1294" d="M74 383v651h501v-547q0 -104 72 -104t72 104v547h502v-651q0 -193 -155 -306.5t-419 -113.5t-418.5 113.5t-154.5 306.5zM516 1227l222 360l256 -139l-285 -326z" />
<glyph unicode="&#xfb;" horiz-adv-x="1294" d="M74 383v651h501v-547q0 -104 72 -104t72 104v547h502v-651q0 -193 -155 -306.5t-419 -113.5t-418.5 113.5t-154.5 306.5zM263 1305l383 280l383 -280l-70 -181l-313 148l-312 -148z" />
<glyph unicode="&#xfc;" horiz-adv-x="1294" d="M74 383v651h501v-547q0 -104 72 -104t72 104v547h502v-651q0 -193 -155 -306.5t-419 -113.5t-418.5 113.5t-154.5 306.5zM256 1311q0 80 50 136t120 56q72 0 123 -55t51 -137q0 -76 -49 -129.5t-121 -53.5t-123 53.5t-51 129.5zM705 1311q0 80 50 136t122 56 q70 0 118.5 -55t48.5 -135q0 -78 -49 -131.5t-123 -53.5q-70 0 -118.5 53.5t-48.5 129.5z" />
<glyph unicode="&#xff;" horiz-adv-x="1306" d="M-29 1034h547l113 -397q14 -51 20 -82t6 -88q6 68 13.5 106.5t15.5 71.5l109 389h555l-607 -1405h-561l221 432zM258 1311q0 78 49 135t119 57q74 0 125 -55t51 -137q0 -76 -49 -129.5t-123 -53.5q-70 0 -121 53.5t-51 129.5zM704 1311q0 78 51.5 135t123.5 57 q70 0 118.5 -55t48.5 -135q0 -78 -49 -131.5t-123 -53.5q-72 0 -121 53.5t-49 129.5z" />
<glyph unicode="&#x152;" horiz-adv-x="2131" d="M59 719q0 354 265 581q119 104 259 151.5t328 47.5h49.5t47.5 -4l73 -12q43 -6 136 -6h905l-109 -420h-457v-123h414v-391h-411v-121h565l-113 -422h-770h-84l-61 -10q-74 -14 -120 -18.5t-104 -4.5q-174 0 -304 43t-246 144q-262 213 -263 565zM596 725 q0 -119 72.5 -191.5t193.5 -72.5q106 0 131 35q4 6 6.5 12t4.5 14l6 45v334q0 51 -21 70q-41 35 -125 35q-121 0 -194.5 -76t-73.5 -205z" />
<glyph unicode="&#x153;" horiz-adv-x="1839" d="M59 520q0 236 171 398.5t421 162.5q76 0 152 -20q45 -14 80 -34t98 -71l59 43q119 72 269 72q221 0 385 -151q59 -53 91 -106.5t64 -151.5l-575 -291q39 -49 80 -49q55 0 84 51l321 -193q-27 -33 -49 -54.5t-47 -41.5q-150 -123 -371 -123q-186 0 -317 109l-64 -43 q-121 -72 -290 -72q-236 0 -399 165t-163 400zM520 518q0 -66 29 -104.5t80 -38.5q47 0 75.5 39t28.5 104q0 61 -28.5 100t-75.5 39t-78 -38.5t-31 -100.5zM1165 571l6 -55l283 141q-51 63 -131 64q-63 0 -110.5 -45t-47.5 -105z" />
<glyph unicode="&#x178;" horiz-adv-x="1409" d="M-59 1477h583l154 -318q2 -6 6 -21.5t8 -60.5l15 -78l6 78l18 82l150 318h585l-493 -844v-633h-537v633zM309 1778q0 78 49 135t119 57q74 0 125 -55t51 -137q0 -76 -49 -129.5t-123 -53.5q-70 0 -121 53.5t-51 129.5zM755 1778q0 78 51.5 135t123.5 57q70 0 118.5 -55 t48.5 -135q0 -78 -49 -131.5t-123 -53.5q-72 0 -121 53.5t-49 129.5z" />
<glyph unicode="&#x2c6;" horiz-adv-x="561" d="M-104 1305l383 280l383 -280l-70 -181l-313 148l-312 -148z" />
<glyph unicode="&#x2dc;" horiz-adv-x="448" d="M-104 1147v246q92 35 165 34q43 0 95 -10l82 -20q45 -8 73.5 -12.5t65.5 -4.5q88 0 176 43v-245q-59 -18 -93 -24.5t-71 -6.5q-18 0 -45 3t-41 5l-78 19q-96 25 -168 24q-65 0 -161 -51z" />
<glyph unicode="&#x2000;" horiz-adv-x="1029" />
<glyph unicode="&#x2001;" horiz-adv-x="2058" />
<glyph unicode="&#x2002;" horiz-adv-x="1029" />
<glyph unicode="&#x2003;" horiz-adv-x="2058" />
<glyph unicode="&#x2004;" horiz-adv-x="686" />
<glyph unicode="&#x2005;" horiz-adv-x="514" />
<glyph unicode="&#x2006;" horiz-adv-x="343" />
<glyph unicode="&#x2007;" horiz-adv-x="343" />
<glyph unicode="&#x2008;" horiz-adv-x="257" />
<glyph unicode="&#x2009;" horiz-adv-x="411" />
<glyph unicode="&#x200a;" horiz-adv-x="114" />
<glyph unicode="&#x2010;" horiz-adv-x="675" d="M45 397v328h586v-328h-586z" />
<glyph unicode="&#x2011;" horiz-adv-x="675" d="M45 397v328h586v-328h-586z" />
<glyph unicode="&#x2012;" horiz-adv-x="675" d="M45 397v328h586v-328h-586z" />
<glyph unicode="&#x2013;" d="M238 649v338h1044v-338h-1044z" />
<glyph unicode="&#x2014;" horiz-adv-x="2039" d="M61 561v352h1917v-352h-1917z" />
<glyph unicode="&#x2018;" horiz-adv-x="604" d="M43 983q0 92 41 175t93 149.5t181 197.5l203 -102q-70 -66 -102.5 -104.5t-81.5 -116.5q31 -12 45 -19q25 -14 33 -18q45 -31 73.5 -86t28.5 -115q0 -109 -73.5 -184.5t-178.5 -75.5q-106 0 -184 88t-78 211z" />
<glyph unicode="&#x2019;" horiz-adv-x="604" d="M45 786q66 63 100.5 104.5t81.5 115.5q-16 8 -41.5 20t-33.5 18q-47 31 -76 86.5t-29 114.5q0 109 74 184.5t178 75.5q109 0 186.5 -88t77.5 -211q0 -86 -42 -172t-94 -152.5t-181 -197.5z" />
<glyph unicode="&#x201a;" horiz-adv-x="604" d="M45 -254q68 66 101.5 105.5t80.5 115.5q-25 8 -42 17.5t-33 19.5q-47 33 -76 87t-29 116q0 106 74 182t178 76q109 0 186.5 -88t77.5 -211q0 -86 -42 -172t-94 -152.5t-181 -197.5z" />
<glyph unicode="&#x201c;" horiz-adv-x="1165" d="M43 983q0 92 41 175t93 149.5t181 197.5l203 -102q-70 -66 -102.5 -104.5t-81.5 -116.5q31 -12 45 -19q25 -14 33 -18q45 -31 73.5 -86t28.5 -115q0 -109 -73.5 -184.5t-178.5 -75.5q-106 0 -184 88t-78 211zM602 983q0 86 41 173t92.5 151.5t184.5 197.5l200 -102 q-66 -63 -100.5 -105.5t-83.5 -115.5q29 -10 49.5 -21.5t28.5 -15.5q45 -31 74.5 -87.5t29.5 -113.5q0 -109 -73.5 -184.5t-178.5 -75.5q-109 0 -186.5 88t-77.5 211z" />
<glyph unicode="&#x201d;" horiz-adv-x="1165" d="M45 786q66 63 100.5 104.5t81.5 115.5q-16 8 -41.5 20t-33.5 18q-47 31 -76 86.5t-29 114.5q0 109 74 184.5t178 75.5q109 0 186.5 -88t77.5 -211q0 -86 -42 -172t-94 -152.5t-181 -197.5zM604 786q70 66 99.5 102t84.5 118q-29 12 -46 21t-31 17q-45 31 -75 87.5 t-30 113.5q0 109 74 184.5t178 75.5q109 0 186.5 -88t77.5 -211q0 -92 -41 -175t-93 -149.5t-181 -197.5z" />
<glyph unicode="&#x201e;" horiz-adv-x="1165" d="M45 -254q68 66 101.5 105.5t80.5 115.5q-25 8 -42 17.5t-33 19.5q-47 33 -76 87t-29 116q0 106 74 182t178 76q109 0 186.5 -88t77.5 -211q0 -86 -42 -172t-94 -152.5t-181 -197.5zM604 -254q72 68 100.5 102.5t83.5 118.5q-31 12 -45 19q-25 14 -32 18q-45 31 -75 88.5 t-30 114.5q0 106 74 182t178 76q109 0 186.5 -88t77.5 -211q0 -92 -41 -175t-93 -149.5t-181 -197.5z" />
<glyph unicode="&#x2022;" horiz-adv-x="659" d="M74 602q0 106 73.5 180t182.5 74q106 0 181 -74.5t75 -179.5q0 -104 -76 -180t-182 -76t-180 73.5t-74 182.5z" />
<glyph unicode="&#x2026;" horiz-adv-x="2039" d="M121 193q0 92 64.5 156.5t156.5 64.5q90 0 155.5 -65.5t65.5 -155.5q0 -92 -64.5 -157t-156.5 -65t-156.5 65t-64.5 157zM803 193q0 92 64.5 156.5t156.5 64.5q90 0 155.5 -65.5t65.5 -155.5q0 -92 -64.5 -157t-156.5 -65t-156.5 65t-64.5 157zM1485 193q0 92 64.5 156.5 t156.5 64.5q90 0 155.5 -65.5t65.5 -155.5q0 -92 -64.5 -157t-156.5 -65t-156.5 65t-64.5 157z" />
<glyph unicode="&#x202f;" horiz-adv-x="411" />
<glyph unicode="&#x2039;" horiz-adv-x="831" d="M45 516l524 524l219 -217l-309 -309l307 -303l-219 -217z" />
<glyph unicode="&#x203a;" horiz-adv-x="823" d="M45 823l217 215l518 -522l-522 -520l-211 217l305 305z" />
<glyph unicode="&#x205f;" horiz-adv-x="514" />
<glyph unicode="&#x2122;" horiz-adv-x="1554" d="M59 1335v140h455v-140l-152 2v-600h-153v600zM489 737l121 738h152l131 -357q27 -70 34 -103.5t7 -80.5q0 76 41 184l131 357h154l118 -738h-147l-62 391l-6 54v49t2 49l-26 -98l-11 -39l-6 -15l-141 -391h-94l-142 391l-4 15l-12 39l-27 98q2 -12 2.5 -36.5t0.5 -37.5 v-24l-7 -54l-61 -391h-148z" />
<glyph unicode="&#x25fc;" horiz-adv-x="1034" d="M0 0v1034h1034v-1034h-1034z" />
</font>
</defs>
</svg>
