<?xml version="1.0" standalone="no"?>
<!DOCTYPE svg PUBLIC "-//W3C//DTD SVG 1.1//EN" "http://www.w3.org/Graphics/SVG/1.1/DTD/svg11.dtd" >
<svg xmlns="http://www.w3.org/2000/svg" xmlns:xlink="http://www.w3.org/1999/xlink" version="1.1">
<metadata></metadata>
<defs>
<font id="ornitons-serialbold" horiz-adv-x="1392" >
<font-face units-per-em="2048" ascent="1638" descent="-410" />
<missing-glyph horiz-adv-x="593" />
<glyph horiz-adv-x="0" />
<glyph unicode="&#xd;" horiz-adv-x="593" />
<glyph unicode=" "  horiz-adv-x="593" />
<glyph unicode="&#x09;" horiz-adv-x="593" />
<glyph unicode="&#xa0;" horiz-adv-x="593" />
<glyph unicode="!" horiz-adv-x="600" d="M109 170q0 78 55 133t135 55q78 0 135.5 -55t57.5 -135t-57.5 -135.5t-137.5 -55.5t-134 56.5t-54 136.5zM113 1477h374l-55 -1020h-258z" />
<glyph unicode="&#x22;" horiz-adv-x="937" d="M45 901q61 66 90 107t72 118l-70 27q-35 20 -57.5 63.5t-22.5 88.5q0 80 55.5 137t135.5 57q84 0 140 -62.5t56 -158.5q0 -80 -35.5 -154.5t-75.5 -129t-149 -169.5zM494 901q68 74 93 108.5t68 116.5l-69 27q-33 20 -55.5 63.5t-22.5 86.5q0 82 55 139t135 57 q84 0 140.5 -62.5t56.5 -158.5q0 -74 -35 -149.5t-78 -133t-151 -170.5z" />
<glyph unicode="#" horiz-adv-x="1292" d="M78 438l26 123h236l76 352h-238l27 123h235l90 424h123l-90 -424h197l90 424h123l-90 -424h235l-24 -123h-236l-76 -352h236l-27 -123h-235l-90 -424h-123l90 424h-197l-90 -424h-123l90 424h-235zM463 561h196l76 352h-198z" />
<glyph unicode="$" horiz-adv-x="1163" d="M31 154l127 286q90 -76 150.5 -111.5t95 -47t104.5 -11.5v353q-104 23 -164.5 43t-107.5 51q-160 104 -160 305q0 209 164 350q70 61 116 82q61 27 154 27v157h135v-153q127 0 195.5 -18.5t191.5 -86.5l-88 -266q-57 35 -70 41q-29 14 -60.5 27.5t-69 26t-95.5 12.5v-326 q217 -53 293 -99t118 -128t42 -187q0 -231 -180 -379q-63 -53 -116.5 -75.5t-166.5 -46.5v-175h-139v168q-168 18 -248 49.5t-221 131.5zM453 1049q0 -33 11 -53.5t46 -45.5l-2 219l-16 -22q-25 -33 -32 -50.5t-7 -47.5zM643 303q35 20 59.5 61.5t24.5 84.5q0 39 -14.5 60 t-69.5 66v-272z" />
<glyph unicode="%" horiz-adv-x="1595" d="M59 1118q0 152 108.5 260.5t264.5 108.5q152 0 260.5 -108.5t108.5 -260.5q0 -154 -108.5 -262t-260.5 -108q-154 0 -263.5 107t-109.5 263zM186 0l1059 1477h166l-1055 -1477h-170zM262 1118q0 -88 49 -151.5t121 -63.5q70 0 119 63.5t49 151.5t-49 151.5t-119 63.5 q-72 0 -121 -63.5t-49 -151.5zM801 354q0 152 107.5 259.5t260.5 107.5q154 0 260.5 -106.5t106.5 -260.5q0 -152 -106.5 -258t-260.5 -106q-152 0 -260 106t-108 258zM999 354q0 -90 49.5 -153.5t120.5 -63.5q68 0 119 64.5t51 152.5q0 90 -49 153.5t-121 63.5t-121 -63.5 t-49 -153.5z" />
<glyph unicode="&#x26;" horiz-adv-x="1591" d="M59 422q0 88 41 168t117 137q41 31 77 48t112 42q-68 61 -110 143t-42 154q0 166 137 274.5t346 108.5q205 0 337 -109.5t132 -277.5q0 -131 -76.5 -220t-255.5 -159q72 -86 118 -136t126 -130q76 61 112 97t93 114l199 -217q-68 -80 -97.5 -108.5t-109.5 -86.5 q100 -102 143 -143t144 -121h-445l-102 98q-23 -12 -43 -22q-39 -20 -54 -27q-82 -37 -173 -57.5t-177 -20.5q-229 0 -389 131t-160 320zM410 449q0 -90 69.5 -151.5t169.5 -61.5q84 0 158 34l51 29l-293 330q-29 -14 -54.5 -27.5t-39.5 -26.5q-61 -51 -61 -126zM586 1130 q0 -45 26.5 -90t94.5 -120q55 25 87.5 44t55.5 42q55 53 55 122q0 68 -44 108t-116 40t-115.5 -40t-43.5 -106z" />
<glyph unicode="'" horiz-adv-x="489" d="M45 901q61 66 90 107t72 118l-70 27q-35 20 -57.5 63.5t-22.5 88.5q0 80 55.5 137t135.5 57q84 0 140 -62.5t56 -158.5q0 -80 -35.5 -154.5t-75.5 -129t-149 -169.5z" />
<glyph unicode="(" horiz-adv-x="673" d="M80 713q0 289 82 476t338 488l166 -184q-180 -231 -246 -388t-66 -347q0 -227 59.5 -377t252.5 -399l-166 -185q-246 289 -333 479.5t-87 436.5z" />
<glyph unicode=")" horiz-adv-x="675" d="M6 -18q184 236 252 393t68 350q0 215 -64.5 369.5t-255.5 400.5l160 182q252 -285 341 -474t89 -439q0 -291 -84 -480.5t-346 -484.5z" />
<glyph unicode="*" horiz-adv-x="796" d="M33 979q0 43 34.5 73.5t88.5 30.5l26 -2l45 -12l25 -2q57 0 57 37q0 41 -57 41l-25 -2l-45 -13l-26 -2q-49 0 -86 31t-37 76q0 51 32.5 86t79.5 35q37 0 70 -22.5t43 -55.5l18 -47q23 -53 54 -53q33 0 32 43q0 25 -24 53q-59 72 -59 119q0 53 32.5 79.5t94.5 26.5 q49 0 80.5 -29.5t31.5 -76.5q0 -51 -59 -119q-27 -33 -27 -53q0 -43 35 -43q33 0 53 53l19 47q10 33 41.5 55.5t70.5 22.5q47 0 80 -35t33 -86q0 -43 -36 -75t-85 -32l-27 2l-47 13l-24 2q-57 0 -58 -37q0 -41 58 -41l24 2l47 12l27 2q49 0 84 -30.5t35 -75.5q0 -51 -31 -86 t-80 -35q-37 0 -69.5 22.5t-42.5 55.5l-19 47q-20 53 -53 53q-35 0 -35 -43q0 -14 4 -22t23 -31q59 -72 59 -119q0 -49 -33.5 -77.5t-93.5 -28.5q-51 0 -81.5 28.5t-30.5 77.5q0 51 59 119q25 29 24 53q0 43 -32 43q-31 0 -54 -53l-18 -47q-10 -33 -42 -55.5t-71 -22.5 q-47 0 -79.5 35t-32.5 88z" />
<glyph unicode="+" d="M215 637v276h346v340h279v-340h338v-276h-338v-342h-283v342h-342z" />
<glyph unicode="," horiz-adv-x="483" d="M37 -250q63 68 91 108t71 119l-68 27q-37 20 -58.5 62.5t-21.5 89.5q0 80 55.5 137t135.5 57q84 0 140 -62.5t56 -158.5q0 -80 -33.5 -151.5t-78.5 -131t-150 -170.5z" />
<glyph unicode="-" horiz-adv-x="638" d="M45 459v246h551v-246h-551z" />
<glyph unicode="." horiz-adv-x="471" d="M45 170q0 78 55.5 133t135.5 55q78 0 135 -55t57 -135t-57.5 -135.5t-137.5 -55.5t-134 56.5t-54 136.5z" />
<glyph unicode="/" horiz-adv-x="679" d="M51 0l365 1513l213 -36l-363 -1514z" />
<glyph unicode="0" d="M66 737q0 332 180 553t448 221q272 0 452.5 -220t180.5 -552t-180 -553t-453 -221q-268 0 -448 221t-180 551zM422 737q0 -203 75.5 -329.5t196.5 -126.5t199 127t78 329q0 205 -76 331t-201 126q-121 0 -196.5 -127t-75.5 -330z" />
<glyph unicode="1" d="M393 1169l105 308h426v-1477h-355v1169h-176z" />
<glyph unicode="2" d="M35 0q160 141 237 215q63 59 170 164q129 131 156 160q59 63 133 149q168 205 168 332q0 80 -47 129t-127 49q-55 0 -98 -24.5t-65.5 -68.5t-35.5 -132h-350q16 154 49 230.5t111 152.5q156 143 389 143q227 0 378.5 -131t151.5 -332q0 -100 -47 -209.5t-123 -189.5 l-141 -143l-113 -111l-92 -86h518l-83 -297h-1139z" />
<glyph unicode="3" d="M113 504h352q0 -70 14.5 -110t46.5 -75q66 -72 168 -71q94 0 154.5 62.5t60.5 158.5q0 98 -66.5 158.5t-176.5 60.5l-60 -2v223q246 0 246 183q0 68 -47 112.5t-123 44.5t-120 -41t-62 -131h-334q16 123 45 185.5t98 121.5q147 123 377 123q223 0 369.5 -110.5 t146.5 -280.5q0 -145 -104 -233q-20 -18 -44 -30.5t-75 -35.5q135 -27 214 -126t79 -245q0 -203 -160 -340t-399 -137q-119 0 -236 39t-203 106.5t-123.5 152.5t-37.5 237z" />
<glyph unicode="4" d="M70 336v270l616 871h424v-875h150v-266h-148v-336h-352v336h-690zM385 602h377v440l8 86l14 107l-53 -98l-45 -82z" />
<glyph unicode="5" d="M127 102l61 289q174 -92 267 -117q27 -6 69.5 -12t69.5 -6q133 0 214 59.5t81 157.5q0 106 -89 167.5t-245 61.5q-39 0 -112.5 -10t-108.5 -18t-119 -31l107 834h860l-84 -295h-518l-35 -291q59 14 100 20.5t88 6.5q229 0 372.5 -121t143.5 -316q0 -221 -175 -367.5 t-441 -146.5q-109 0 -217 27q-76 18 -136.5 40.5t-152.5 67.5z" />
<glyph unicode="6" d="M78 524q0 90 31.5 183.5t93.5 181.5q33 45 113.5 143t129.5 154l271 291h457l-160 -164l-172 -174l-142 -150q86 14 146 15q186 0 321.5 -143.5t135.5 -338.5q0 -233 -173.5 -390t-435.5 -157q-260 0 -438 158t-178 391zM436 520q0 -104 75 -177t181 -73q109 0 182.5 76 t73.5 184q0 102 -75.5 176t-184.5 74q-104 0 -178 -75.5t-74 -184.5z" />
<glyph unicode="7" d="M84 1171l98 306h1155l-809 -1477h-411l643 1112q16 25 37 45q29 29 71 64q-76 -33 -101.5 -41.5t-47.5 -8.5h-635z" />
<glyph unicode="8" d="M115 428q0 102 55 197q39 63 84 95.5t139 67.5q-29 10 -47 18.5t-41 20.5q-59 35 -96 107t-37 153q0 174 150.5 293t371.5 119q223 0 375 -118.5t152 -295.5q0 -86 -45 -163q-29 -49 -66 -77t-111 -57q29 -12 58.5 -23t46.5 -22q78 -41 126 -128t48 -185 q0 -201 -164 -330t-420 -129q-252 0 -415.5 129t-163.5 328zM471 461q0 -94 65.5 -159.5t157.5 -65.5q96 0 161 64.5t65 160.5q0 94 -65 158.5t-157 64.5q-96 0 -161.5 -63.5t-65.5 -159.5zM516 1065q0 -76 51 -129t127 -53q78 0 130.5 52t52.5 130q0 74 -53.5 127 t-129.5 53q-74 0 -126 -52t-52 -128z" />
<glyph unicode="9" d="M90 950q0 236 173 390.5t437 154.5q258 0 435.5 -158.5t177.5 -388.5q0 -90 -33 -185t-91.5 -177t-111.5 -146q-16 -20 -131 -147l-262 -293h-465l160 160q74 74 147 149q51 51 166 176q-94 -20 -157 -20q-178 0 -311.5 143.5t-133.5 341.5zM444 936q0 -102 75 -175 t183 -73q104 0 178 76t74 184q0 102 -74 176t-178 74q-106 0 -182 -75.5t-76 -186.5z" />
<glyph unicode=":" horiz-adv-x="534" d="M74 866q0 80 55 135.5t137 55.5q80 0 136.5 -56.5t56.5 -134.5q0 -80 -56.5 -136t-134.5 -56q-82 0 -138 56t-56 136zM76 170q0 78 55 133t135 55q78 0 135.5 -55t57.5 -135q0 -82 -56.5 -136.5t-138.5 -54.5q-80 0 -134 56.5t-54 136.5z" />
<glyph unicode=";" horiz-adv-x="546" d="M74 -240q66 72 93.5 110t68.5 118q-49 14 -68 24q-33 18 -56.5 62.5t-23.5 89.5q0 80 55.5 137t135.5 57q86 0 141 -61t55 -160q0 -74 -36 -150.5t-78 -132t-148 -165.5zM86 864q0 78 55.5 135.5t134.5 57.5q80 0 135.5 -55.5t55.5 -137.5q0 -80 -55.5 -135t-135.5 -55 t-135 55t-55 135z" />
<glyph unicode="&#x3c;" horiz-adv-x="718" d="M45 510l471 498l160 -158l-322 -340l320 -338l-162 -156z" />
<glyph unicode="=" d="M213 492v239h967v-239h-967zM215 821v238h963v-238h-963z" />
<glyph unicode="&#x3e;" horiz-adv-x="710" d="M45 850l158 156l463 -494l-465 -492l-154 154l313 338z" />
<glyph unicode="?" horiz-adv-x="892" d="M-16 1376l102 54q162 76 315 75q195 0 318 -106.5t123 -278.5q0 -63 -24.5 -131.5t-63.5 -116.5q-25 -29 -88 -98l-70 -76q-47 -55 -60.5 -86.5t-13.5 -81.5l4 -73h-262q-8 59 -8 106q0 49 10 82q6 39 24.5 73t65.5 91q98 119 131 176t33 107q0 68 -48 113.5t-120 45.5 q-49 0 -101 -18.5t-83 -37.5t-94 -71zM199 170q0 78 55 133t135 55t135.5 -55t55.5 -135t-55.5 -135.5t-137.5 -55.5q-80 0 -134 56.5t-54 136.5z" />
<glyph unicode="@" horiz-adv-x="1744" d="M117 735q0 221 96 391t281 279q137 76 280 94q53 6 100 6q274 0 454.5 -178t180.5 -446q0 -45 -2 -70t-12 -74q-31 -158 -106.5 -265t-178.5 -150q-49 -20 -98 -21q-70 0 -117 39t-55 98v29q-16 -39 -41 -70q-76 -88 -170 -88q-43 0 -98 23q-166 72 -166 366l8 72 q18 121 74.5 221.5t134.5 155.5t162 55q63 0 112.5 -32.5t71.5 -90.5l16 105h105l-74 -430l-26 -170q-6 -43 -7 -72q0 -37 9 -55q8 -29 28.5 -43.5t50.5 -14.5q10 0 27 4q27 10 49.5 26.5t60.5 59.5t69.5 114t44 145.5t12.5 123.5q0 227 -145.5 373t-368.5 146 q-23 0 -51.5 -3.5t-45.5 -5.5q-227 -33 -375.5 -214t-148.5 -439q0 -14 1 -32.5t3 -43.5q0 -55 14.5 -106t42.5 -113q80 -172 222.5 -266t314.5 -94q119 0 232.5 46t220.5 142q31 27 57 57q18 20 51 64l31 -102l-49 -60q-238 -252 -555 -252q-289 0 -490.5 185.5 t-232.5 482.5q-2 25 -3 53.5t-1 44.5zM594 598q0 -92 32.5 -139t92.5 -56q8 -2 14 -2h8q55 0 96.5 47.5t86.5 167.5q6 20 19 73.5t15 70.5l9 37l10 69q2 16 3 44t3 48v25q-6 55 -43 90t-88 35q-27 0 -55 -12q-55 -20 -92 -69.5t-72 -154.5q-14 -41 -24.5 -95t-12.5 -91 t-2 -88z" />
<glyph unicode="A" horiz-adv-x="1355" d="M-33 0l518 1477h385l516 -1477h-399l-98 336h-424l-98 -336h-400zM518 596h320l-131 473q-14 51 -17.5 69.5t-9.5 82.5q-4 -43 -8.5 -64.5t-20.5 -87.5z" />
<glyph unicode="B" horiz-adv-x="1267" d="M113 0v1477h575q203 0 320.5 -102.5t117.5 -280.5q0 -147 -90 -244q-27 -27 -55.5 -44.5t-81.5 -37.5q68 -16 100.5 -29.5t71.5 -44.5q133 -104 133 -282q0 -180 -119.5 -296t-308.5 -116h-663zM483 252h142q121 0 175 48t54 153q0 102 -56.5 148t-185.5 46h-129v-395z M483 862h121q207 0 207 187q0 188 -203 188h-125v-375z" />
<glyph unicode="C" horiz-adv-x="1343" d="M72 737q0 319 227 544.5t553 225.5q59 0 118.5 -10t121.5 -31q84 -28 223 -112l-131 -301l-64 43q-119 75 -251 75h-3q-180 0 -305 -124.5t-125 -309.5q0 -180 125 -305t309 -125q74 0 146 23q41 14 79 32.5t95 55.5l123 -303l-111 -64q-164 -80 -350 -80 q-328 0 -554 222.5t-226 543.5z" />
<glyph unicode="D" horiz-adv-x="1415" d="M113 0v1477h495q315 0 524 -211t209 -529q0 -315 -208.5 -526t-522.5 -211h-497zM483 317h62q182 0 296.5 119t114.5 309q0 182 -116.5 305.5t-294.5 123.5h-62v-857z" />
<glyph unicode="E" horiz-adv-x="1116" d="M113 0v1477h962l-76 -285h-516v-309h475v-277h-475v-321h594l-82 -285h-882z" />
<glyph unicode="F" horiz-adv-x="1040" d="M113 0v1477h950l-78 -285h-502v-311h490l-74 -279h-416v-602h-370z" />
<glyph unicode="G" horiz-adv-x="1714" d="M74 729q0 324 229 549t561 225q74 0 140.5 -12t140.5 -37q119 -43 188.5 -95t175.5 -183l-311 -150q-16 16 -31 33q-27 29 -47 43q-49 41 -116.5 65.5t-135.5 24.5q-174 0 -296.5 -135t-122.5 -324q0 -190 124.5 -325.5t303.5 -135.5q143 0 246.5 89.5t138.5 244.5h-406 l2 238h789l2 -94q0 -336 -223.5 -557.5t-559.5 -221.5q-334 0 -563 219.5t-229 538.5z" />
<glyph unicode="H" horiz-adv-x="1476" d="M113 0v1477h370v-559h510v559h371v-1477h-371v592h-510v-592h-370z" />
<glyph unicode="I" horiz-adv-x="595" d="M113 0v1477h370v-1477h-370z" />
<glyph unicode="J" horiz-adv-x="919" d="M-29 152l154 237q70 -59 106.5 -79.5t77.5 -20.5q14 0 30.5 4t33.5 10q35 16 49 52t14 118v1004h371v-1084q0 -131 -14.5 -180t-71.5 -113q-113 -129 -307 -129q-94 0 -171 26t-128.5 54.5t-143.5 100.5z" />
<glyph unicode="K" horiz-adv-x="1265" d="M113 0v1477h370v-598l379 598h430l-506 -701l531 -776h-434l-400 653v-653h-370z" />
<glyph unicode="L" horiz-adv-x="1054" d="M113 0v1477h370v-1186h592l-82 -291h-880z" />
<glyph unicode="M" horiz-adv-x="1849" d="M25 0l211 1477h364l299 -920q8 -29 14.5 -60.5t14.5 -107.5q0 68 5 97.5t19 70.5l301 920h365l211 -1477h-361l-79 831q-4 37 -5 64v25l5 139l-21 -101q-6 -31 -10 -61q-8 -35 -17 -61l-270 -836h-289l-272 836q-6 14 -14.5 57t-12.5 65l-18 101l4 -148l-4 -80l-80 -831 h-360z" />
<glyph unicode="N" horiz-adv-x="1595" d="M113 0v1477h385l563 -875q29 -47 56.5 -117.5t49.5 -132.5q-39 178 -39 250l-6 875h361v-1477h-383l-561 862q-27 35 -41.5 72t-59.5 174q16 -100 22.5 -148.5t6.5 -95.5l6 -864h-360z" />
<glyph unicode="O" horiz-adv-x="1726" d="M74 737q0 332 227 549t578 217q326 0 551 -221t225 -545q0 -326 -227.5 -545t-563.5 -219q-338 0 -564 218t-226 546zM436 737q0 -182 125 -309t303 -127t301 127t123 309q0 184 -123 311.5t-303 127.5q-178 0 -302 -128t-124 -311z" />
<glyph unicode="P" horiz-adv-x="1224" d="M113 0v1477h587q231 0 368.5 -131.5t137.5 -356.5q0 -209 -120.5 -336t-321.5 -127h-281v-526h-370zM483 793h162q211 0 211 198q0 111 -63 162q-29 23 -61 31t-95 8h-154v-399z" />
<glyph unicode="Q" horiz-adv-x="1726" d="M74 737q0 328 225 547t565 219q336 0 563.5 -219t227.5 -547q0 -178 -41 -282t-170 -254l172 -199l-232 -192l-206 227q-227 -66 -359 -66q-303 0 -524 227.5t-221 538.5zM436 737q0 -182 125 -309t303 -127q176 0 300 126t124 310t-123 311.5t-301 127.5t-303 -127 t-125 -312z" />
<glyph unicode="R" horiz-adv-x="1253" d="M113 0v1477h555q244 0 354 -91q63 -49 100 -138t37 -189q0 -213 -143 -328q-45 -37 -90 -53t-125 -25l479 -653h-436l-361 578v-578h-370zM483 815h133q94 0 150.5 54.5t56.5 146.5q0 186 -213 186h-127v-387z" />
<glyph unicode="S" horiz-adv-x="1163" d="M31 154l127 286q45 -41 78.5 -65.5t70.5 -44.5q111 -61 201 -62q94 0 153.5 49.5t59.5 128.5q0 119 -156 156l-112 29q-86 23 -129 40t-88 46q-160 102 -160 305t152.5 340t379.5 137q47 0 95.5 -6t113 -23.5t100 -32t115.5 -57.5l-88 -266q-41 25 -72.5 41t-60.5 29 q-98 39 -168 39q-88 0 -143.5 -47.5t-55.5 -120.5q0 -66 56 -101q33 -23 96 -43l121 -32q84 -23 134 -41.5t89 -40.5q78 -47 120 -129t42 -187q0 -217 -163 -362.5t-409 -145.5q-55 0 -104 6.5t-113.5 25t-126 50t-155.5 99.5z" />
<glyph unicode="T" horiz-adv-x="983" d="M-20 1157l10 320h1040l-96 -320h-277v-1157h-368v1157h-309z" />
<glyph unicode="U" horiz-adv-x="1443" d="M113 516v961h370v-936q0 -74 10.5 -110t45.5 -69q71 -71 179 -71h3q53 0 100 18.5t84 52.5q55 53 56 179v936h370v-961q0 -250 -163.5 -395.5t-446.5 -145.5q-281 0 -444.5 145.5t-163.5 395.5z" />
<glyph unicode="V" horiz-adv-x="1255" d="M-27 1477h375l254 -940l16 -119l11 -121l8 121l16 119l254 940h375l-489 -1477h-330z" />
<glyph unicode="W" horiz-adv-x="1949" d="M4 1477h354l187 -875l16 -106l10 -138l11 138l16 108l217 873h322l217 -873l12 -108l14 -138q0 115 9 170q12 53 16 74l188 875h355l-404 -1477h-336l-200 870q-18 70 -23 97q-10 70 -10 202q0 -133 -10 -202q-14 -66 -21 -97l-203 -870h-331z" />
<glyph unicode="X" horiz-adv-x="1304" d="M-53 0l495 780l-452 697h401l221 -375q23 -35 31 -62.5t8 -85.5q10 100 39 148l221 375h404l-453 -697l496 -780h-424l-236 422q-18 33 -28.5 74t-18.5 110q0 -68 -10 -104.5t-35 -79.5l-235 -422h-424z" />
<glyph unicode="Y" horiz-adv-x="1232" d="M-59 1477h407l242 -459q10 -20 16 -70l10 -71q0 57 6.5 86.5t20.5 56.5l246 457h401l-493 -832v-645h-363v645z" />
<glyph unicode="Z" horiz-adv-x="1306" d="M-8 0l694 1120q20 31 43 51q8 8 57 48q-47 -25 -80.5 -35t-54.5 -10h-604l86 303h1176l-682 -1096q-27 -43 -43.5 -61.5t-55.5 -49.5q55 18 82 24.5t54 6.5h636l-94 -301h-1214z" />
<glyph unicode="[" horiz-adv-x="645" d="M145 -172v1821h441v-209h-144v-1403h144v-209h-441z" />
<glyph unicode="\" horiz-adv-x="686" d="M78 1475h221l258 -1475h-221z" />
<glyph unicode="]" horiz-adv-x="643" d="M55 37h144v1403h-144v209h441v-1821h-441v209z" />
<glyph unicode="^" horiz-adv-x="501" d="M-111 1260l363 258l360 -258l-57 -136l-303 154l-303 -154z" />
<glyph unicode="_" horiz-adv-x="964" d="M78 0h737v-74h-737v74z" />
<glyph unicode="`" horiz-adv-x="339" d="M-61 1411l188 113l266 -312l-141 -86z" />
<glyph unicode="a" horiz-adv-x="1294" d="M74 510q0 233 133 389t338 156q76 0 162 -27q55 -20 80.5 -37.5t70.5 -68.5v112h324v-1034h-324v115q-12 -18 -23.5 -29.5l-15.5 -15.5q-45 -45 -123 -72t-166 -27q-207 0 -331.5 147.5t-124.5 391.5zM420 518q0 -121 61.5 -194.5t163.5 -73.5q53 0 98 23.5t63.5 60.5 t27 81t8.5 115q0 74 -6.5 110t-26.5 67q-55 86 -166 86q-100 0 -161.5 -76t-61.5 -199z" />
<glyph unicode="b" horiz-adv-x="1290" d="M113 0v1343l340 177v-586q74 68 143.5 96.5t159.5 28.5q205 0 335 -148.5t130 -384.5q0 -248 -130 -400.5t-341 -152.5q-88 0 -175 31q-55 20 -78.5 37.5t-62.5 69.5v-111h-321zM449 510q0 -66 7 -98.5t29 -67.5q53 -92 166 -92q96 0 157.5 75.5t61.5 196.5t-61 197 t-166 76q-117 0 -164 -86q-16 -31 -23 -71t-7 -114v-16z" />
<glyph unicode="c" horiz-adv-x="1013" d="M74 514q0 233 162.5 394t398.5 161q90 0 155.5 -17.5t184.5 -72.5l-86 -254q-113 68 -209 68q-109 0 -184.5 -78t-75.5 -193t80 -194.5t194 -79.5q47 0 83 10t112 45l82 -233q-113 -57 -188.5 -81t-159.5 -24q-229 0 -389 160t-160 389z" />
<glyph unicode="d" horiz-adv-x="1292" d="M74 520q0 238 130 388.5t335 150.5q41 0 80.5 -8.5t80.5 -23.5t69 -33.5t73 -61.5v409l338 179v-1520h-322v115l-37 -43q-45 -43 -125 -72t-161 -29q-203 0 -332 154t-129 395zM420 528q0 -127 61.5 -201.5t165.5 -74.5q197 0 197 256q0 94 -8.5 136t-32.5 73 q-58 80 -164 80q-96 0 -157.5 -74t-61.5 -195z" />
<glyph unicode="e" horiz-adv-x="1189" d="M74 508q0 233 158.5 394t390.5 161q217 0 372 -143q55 -49 92 -110t80 -165l-680 -348q49 -43 88 -61.5t82 -18.5q111 0 201 121l225 -137l-84 -95q-70 -66 -171 -104.5t-205 -38.5q-231 0 -390 156.5t-159 388.5zM371 567q0 -22 10 -63l446 227q-61 92 -192 92 q-102 0 -183 -78.5t-81 -177.5z" />
<glyph unicode="f" horiz-adv-x="661" d="M-12 768l67 266h101v119q0 166 98 262t264 96q84 0 221 -38l-71 -256q-41 24 -83 24h-3q-90 0 -90 -125v-82h210l-69 -266h-139v-768h-338v768h-168z" />
<glyph unicode="g" horiz-adv-x="1284" d="M72 526q0 233 133 381t342 148q82 0 162 -29q53 -20 88 -47q10 -8 53 -49v104h321v-973q0 -119 -34.5 -196.5t-116.5 -143.5q-158 -127 -436 -127q-119 0 -209 21q-76 14 -126 33.5t-138 68.5l129 228q49 -35 75.5 -49.5t69.5 -28.5q92 -29 188 -29q129 0 203 55.5 t74 151.5v100q-35 -45 -59.5 -66.5t-65.5 -39.5q-45 -16 -94 -26.5t-96 -10.5q-207 0 -335 144.5t-128 379.5zM418 510q0 -119 61.5 -188.5t159.5 -69.5q53 0 99 22.5t66.5 58.5t28 72.5t7.5 102.5q0 94 -6.5 135t-29 75t-67.5 56.5t-92 22.5q-100 0 -163.5 -76t-63.5 -197 v-14z" />
<glyph unicode="h" horiz-adv-x="1263" d="M113 0v1341l340 172v-595q14 16 33.5 37.5t41.5 35.5q106 72 244 72q164 0 272 -92q55 -47 80 -106.5t25 -151.5v-713h-336v604q0 168 -164 168q-92 0 -144 -48t-52 -130v-594h-340z" />
<glyph unicode="i" horiz-adv-x="544" d="M92 1298q0 78 55.5 133.5t133.5 55.5q80 0 134 -54.5t54 -132.5t-54.5 -132t-131.5 -54q-78 0 -134.5 54t-56.5 130zM104 0v897l336 176v-1073h-336z" />
<glyph unicode="j" horiz-adv-x="542" d="M92 1292q0 80 53.5 137.5t126.5 57.5q82 0 138.5 -56.5t56.5 -136.5q0 -74 -53.5 -127t-130.5 -53q-78 0 -134.5 52t-56.5 126zM102 -371v1272l338 172v-1444h-338z" />
<glyph unicode="k" horiz-adv-x="1134" d="M113 0v1341l340 177v-859l276 375h399l-389 -461l463 -573h-430l-319 449v-449h-340z" />
<glyph unicode="l" horiz-adv-x="565" d="M113 0v1343l340 177v-1520h-340z" />
<glyph unicode="m" horiz-adv-x="1849" d="M113 0v901l329 174v-157q39 47 66 67.5t72 40.5q84 37 161 37q72 0 133 -27q51 -20 86 -50t87 -101q125 176 335 176q164 0 259.5 -95.5t95.5 -263.5v-702h-332v618q0 53 -6 77t-29 46q-41 45 -117 45q-166 0 -166 -174v-612h-327v606q0 180 -160 180q-158 0 -158 -176 v-610h-329z" />
<glyph unicode="n" horiz-adv-x="1261" d="M113 901l321 174v-164l55 60q47 41 123 65.5t154 24.5q178 0 291 -107q47 -47 69.5 -109.5t22.5 -156.5v-688h-338v594q0 178 -166 178q-86 0 -139 -57.5t-53 -147.5l2 -567h-340z" />
<glyph unicode="o" horiz-adv-x="1271" d="M74 512q0 229 164.5 392t398.5 163q233 0 398 -163t165 -392t-166 -393t-399 -164q-231 0 -396 163t-165 394zM393 512q0 -117 67.5 -192.5t174.5 -75.5q104 0 174 75.5t70 192.5q0 115 -69 191.5t-175 76.5q-104 0 -173 -76.5t-69 -191.5z" />
<glyph unicode="p" horiz-adv-x="1294" d="M113 -414v1448h321v-123l47 50q111 96 281 96q207 0 334 -149.5t127 -395.5q0 -238 -131 -389.5t-338 -151.5q-98 0 -169 33t-132 98v-360zM449 500q0 -86 6 -117t30.5 -67.5t68.5 -59.5t97 -23q100 0 160.5 73t60.5 194q0 123 -61 198.5t-162 75.5q-111 0 -164 -82 q-20 -31 -28 -68.5t-8 -109.5v-14z" />
<glyph unicode="q" horiz-adv-x="1292" d="M72 508q0 240 133 395.5t338 155.5q84 0 172 -33q47 -18 76.5 -40.5t66.5 -67.5v116h322v-1292l-338 -156v516l-35 -41q-47 -39 -122 -63.5t-148 -24.5q-205 0 -335 148.5t-130 386.5zM422 498q0 -119 61.5 -192t161.5 -73q106 0 156 68q25 35 35 82t10 131 q0 92 -7.5 123t-35.5 65q-54 72 -156 72t-163.5 -75.5t-61.5 -200.5z" />
<glyph unicode="r" horiz-adv-x="800" d="M113 0v899l321 176v-180q37 51 66.5 76.5t77.5 48.5q80 37 149 37q55 0 129 -15l-88 -323q-53 24 -89 24h-3q-74 0 -129 -38q-94 -68 -94 -232v-473h-340z" />
<glyph unicode="s" horiz-adv-x="962" d="M27 63l79 246q117 -82 193 -98q18 -6 47 -10t47 -4q74 0 119 32.5t45 85.5q0 41 -24.5 61.5t-94.5 39.5l-82 20l-86 27q-211 78 -211 268q0 150 124 244t321 94q78 0 155 -12q43 -10 74 -19q53 -16 135 -55l-75 -223q-53 29 -74 39q-49 25 -95 38t-94 13q-57 0 -93 -27.5 t-36 -72.5q0 -76 125 -107l86 -22q84 -23 168 -60q61 -35 95 -97.5t34 -139.5q0 -168 -123.5 -265.5t-336.5 -97.5q-86 0 -181 16q-76 16 -113.5 29.5t-127.5 56.5z" />
<glyph unicode="t" horiz-adv-x="651" d="M-8 768l495 672v-406h220l-89 -266h-131v-768h-340v768h-155z" />
<glyph unicode="u" horiz-adv-x="1251" d="M113 367v667h340v-606q0 -180 172 -180q176 0 176 180v606h338v-667q0 -193 -133.5 -297.5t-378.5 -104.5q-244 0 -379 104.5t-135 297.5z" />
<glyph unicode="v" horiz-adv-x="1093" d="M-47 1034h366l193 -577q18 -53 25.5 -89t7.5 -102q10 88 15 111.5t20 79.5l192 577h367l-418 -1034h-350z" />
<glyph unicode="w" horiz-adv-x="1654" d="M-4 1034h342l143 -563l15 -92l8 -82q14 125 31 174l165 563h263l155 -563q12 -35 18.5 -72t14.5 -102l6 82l14 92l144 563h344l-326 -1034h-329l-152 516q-6 27 -10 58.5t-4 52.5l-11 94l-10 -94l-18 -111l-162 -516h-313z" />
<glyph unicode="x" horiz-adv-x="1136" d="M-45 0l399 530l-372 504h395l149 -223q25 -33 43 -123q8 47 16.5 73.5t22.5 49.5l152 223h393l-371 -504l398 -530h-408l-164 240q-12 23 -21 51t-18 80q-12 -61 -19 -85t-24 -46l-164 -240h-407z" />
<glyph unicode="y" horiz-adv-x="1124" d="M-35 1034h367l203 -569q8 -25 15 -62.5t13 -99.5l12 78l19 88l207 565h375l-601 -1405h-380l194 404z" />
<glyph unicode="z" horiz-adv-x="1085" d="M-25 0l514 692q14 20 37 40t84 65q-66 -27 -100.5 -37t-56.5 -10h-390l95 284h929l-505 -690q-12 -18 -36 -39.5t-83 -66.5q104 43 153 43h418l-90 -281h-969z" />
<glyph unicode="{" horiz-adv-x="749" d="M78 737q23 0 49 11q84 37 84 137v657q0 82 48 128t134 46h223v-133h-26q-68 0 -92.5 -22.5t-24.5 -87.5v-558q0 -55 -28.5 -98t-79.5 -65q-25 -10 -56 -15q31 -2 56 -14q47 -20 77.5 -65.5t30.5 -98.5v-557q0 -61 24.5 -86t92.5 -25h26v-133h-223q-88 0 -135 45t-47 129 v658q0 63 -38 105t-95 42z" />
<glyph unicode="|" horiz-adv-x="407" d="M78 0v1475h221v-1475h-221z" />
<glyph unicode="}" horiz-adv-x="749" d="M78 -109h24q68 0 92.5 23t24.5 88v557q0 117 111 164q23 10 53 14q-31 4 -53 15q-49 20 -80 65t-31 98v558q0 61 -24.5 85.5t-92.5 24.5h-24v133h221q88 0 136 -46t48 -128v-657q0 -66 37 -107t96 -41q-25 0 -51 -10q-82 -37 -82 -137v-658q0 -82 -48 -128t-136 -46h-221 v133z" />
<glyph unicode="~" horiz-adv-x="573" d="M-6 1583v209q63 20 94 26.5t76 6.5q51 0 104 -13l84 -18q82 -20 142 -20q61 0 96 8t94 39v-209q-74 -20 -106.5 -26.5t-73.5 -6.5q-49 0 -82 6q-49 12 -86 21q-53 14 -97 20t-77 6q-68 0 -168 -49z" />
<glyph unicode="&#xa1;" horiz-adv-x="600" d="M109 1307q0 80 56 136t138 56q80 0 134.5 -56.5t54.5 -135.5q0 -80 -55.5 -135.5t-135.5 -55.5t-136 56.5t-56 134.5zM113 0l53 1020h260l61 -1020h-374z" />
<glyph unicode="&#xa2;" horiz-adv-x="1013" d="M74 514q0 238 166 397q57 57 115.5 88t160.5 62v119h162v-115q96 -8 147.5 -23.5t149.5 -62.5l-86 -254q-98 59 -207 70v-541h27q53 0 72.5 4t72.5 31l35 14l82 -233q-96 -53 -145.5 -69.5t-149.5 -31.5v-112h-162v116q-100 27 -153.5 53.5t-114.5 86.5 q-172 166 -172 401zM422 518q0 -59 18.5 -101.5t73.5 -97.5v410l-18 -24q-41 -47 -49.5 -63.5t-14.5 -47.5t-8 -44t-2 -32z" />
<glyph unicode="&#xa3;" horiz-adv-x="1118" d="M66 43l61 256q18 -6 48 -12t40 -6q59 0 97 42t38 105q0 61 -61 207h-185v164h113l-27 65q-33 74 -43 119t-10 111q0 182 121 294.5t317 112.5q82 0 168 -24q66 -16 106 -34t128 -71l-84 -250q-61 47 -99 69.5t-67 32t-57.5 15.5t-46.5 6q-72 0 -119 -47t-47 -121 q0 -51 18.5 -100t85.5 -180h334v-164h-289q14 -57 19.5 -88t5.5 -70q0 -59 -24.5 -106t-51.5 -70t-86 -47q86 -8 121 -10t88 -2l80 2q92 0 152.5 16t179.5 70l-60 -297q-147 -39 -234 -51.5t-214 -12.5q-162 0 -249 12.5t-267 63.5z" />
<glyph unicode="&#xa4;" horiz-adv-x="1011" d="M78 432l119 117q-59 88 -60 192q0 102 60 193l-117 113q33 45 76 81l120 -120q84 63 197 63q102 0 189 -61l118 120q51 -35 78 -86l-115 -110q33 -45 47.5 -91t14.5 -100q0 -109 -66 -198l119 -117l-16 -20l-19 -19l-45 -41l-116 119q-88 -66 -193 -66q-102 0 -190 66 l-125 -119l-19 21l-18 18l-21 23zM250 737q0 -92 64.5 -156.5t156.5 -64.5q90 0 155.5 65.5t65.5 155.5t-65.5 155.5t-155.5 65.5t-155.5 -65.5t-65.5 -155.5z" />
<glyph unicode="&#xa5;" horiz-adv-x="1456" d="M53 1477h408l239 -459q10 -14 17 -70l12 -71q0 57 6 86.5t21 56.5l243 457h404l-340 -576h287v-182h-396l-45 -74l-2 -63h443v-191h-443l2 -391h-364v391h-436v191h436v63l-43 70h-391v188h286z" />
<glyph unicode="&#xa7;" horiz-adv-x="1347" d="M61 524q0 113 66 205q29 43 56.5 68.5t95.5 68.5l-41 45q-66 82 -66 193q0 178 143.5 286.5t382.5 108.5q127 0 246 -47q76 -33 146 -90q74 -66 104.5 -132.5t42.5 -189.5l-301 15q-18 100 -66 147q-33 31 -82 50.5t-96 19.5q-76 0 -132 -43t-56 -103q0 -55 49 -104 q16 -14 28.5 -20.5t47.5 -20.5l428 -168q106 -41 165.5 -126t59.5 -198q0 -98 -57 -188q-27 -43 -51.5 -66.5t-88.5 -64.5l43 -61q49 -72 50 -170q0 -176 -142.5 -288t-367.5 -112q-49 0 -104.5 8.5t-108.5 20.5q-104 31 -187 88q-90 63 -123.5 137t-33.5 219l299 -12 q0 -70 14 -105.5t57 -68.5q76 -63 183 -64q80 0 130 42t50 108q0 100 -127 149l-438 162q-217 78 -218 301zM389 594q0 -127 160 -180l313 -109q102 29 103 131q0 111 -121 158l-348 135q-37 0 -54.5 -11t-31 -36t-17.5 -46.5t-4 -41.5z" />
<glyph unicode="&#xa8;" horiz-adv-x="655" d="M-6 1268q0 61 40 105t95 44t96 -45t41 -106q0 -55 -39 -96.5t-96 -41.5q-55 0 -96 41.5t-41 98.5zM389 1266q0 61 41 106t98 45q55 0 94.5 -43t39.5 -106q0 -57 -39 -98.5t-99 -41.5q-53 0 -94 41.5t-41 96.5z" />
<glyph unicode="&#xa9;" horiz-adv-x="1908" d="M119 739q0 152 57 291t167 249t249 166t291 56q150 0 289 -55t251 -168q223 -223 224 -539q0 -319 -223.5 -542.5t-540.5 -223.5t-540.5 223.5t-223.5 542.5zM240 739q0 -131 49 -250.5t140 -213t210 -141.5t244 -48q129 0 244.5 46t209 142.5t141.5 215t48 247.5 q0 131 -48 250t-141.5 213t-209 142.5t-244.5 48.5q-125 0 -242 -47.5t-210 -142.5t-142 -213t-49 -249zM438 721q0 45 8.5 94t26.5 96q49 135 170 217t270 82q43 0 86 -6q126 -20 226 -102l-76 -109q-68 55 -154 74q-37 6 -71 6q-123 0 -216.5 -79t-111.5 -203 q-6 -35 -6 -64q0 -127 77.5 -220t200.5 -114q37 -4 54 -4q98 0 184 51l41 33l76 -111q-66 -53 -139.5 -80.5t-159.5 -27.5q-207 0 -346.5 135t-139.5 332z" />
<glyph unicode="&#xaa;" horiz-adv-x="989" d="M78 1116v53q6 25 8 35q23 106 86 180q47 55 111.5 84t132.5 29q152 0 229 -115l10 -16l9 -16v125h172l2 -701h-176v133l-7 -14q-31 -61 -95 -98t-148 -37q-31 0 -66 6q-119 25 -193.5 122t-74.5 230zM98 518v158h740v-158h-740zM256 1126l4 -43q25 -143 164 -170 q14 -2 41 -2t39 4q131 27 158 168q4 14 4 43q0 31 -4 45q-12 66 -53.5 111t-102.5 59q-16 4 -45 5q-74 0 -130.5 -48.5t-70.5 -128.5z" />
<glyph unicode="&#xab;" horiz-adv-x="1136" d="M45 510l471 498l160 -158l-322 -340l320 -338l-162 -156zM463 510l471 498l158 -158l-320 -340l318 -338l-160 -156z" />
<glyph unicode="&#xac;" horiz-adv-x="1337" d="M78 737v221h1081v-516h-172v295h-909z" />
<glyph unicode="&#xad;" horiz-adv-x="638" d="M45 459v246h551v-246h-551z" />
<glyph unicode="&#xae;" horiz-adv-x="1908" d="M119 739q0 152 57 291t167 249t249 166t291 56q150 0 289 -55t251 -168q223 -223 224 -539q0 -319 -223.5 -542.5t-540.5 -223.5t-540.5 223.5t-223.5 542.5zM240 739q0 -131 49 -250.5t140 -213t210 -141.5t244 -48q129 0 244.5 46t209 142.5t141.5 215t48 247.5 q0 131 -48 250t-141.5 213t-209 142.5t-244.5 48.5q-125 0 -242 -47.5t-210 -142.5t-142 -213t-49 -249zM627 287v919h247q141 0 211 -53t89 -145q6 -35 6 -66q0 -94 -53.5 -159.5t-143.5 -82.5l-27 -2l275 -411h-174l-283 438v-438h-147zM774 780h76q178 0 178 150 q0 156 -170 155h-84v-305z" />
<glyph unicode="&#xaf;" horiz-adv-x="479" d="M-4 1153v178h489v-178h-489z" />
<glyph unicode="&#xb1;" horiz-adv-x="1216" d="M90 39v139h946v-139h-946zM90 539v139h404v250h139v-250h403v-139h-403v-250h-139v250h-404z" />
<glyph unicode="&#xb4;" horiz-adv-x="411" d="M70 1208l268 314l186 -117l-313 -283z" />
<glyph unicode="&#xb5;" horiz-adv-x="1275" d="M150 -285l4 119l4 182l-2 207l-4 195v502h188v-607q0 -145 28.5 -194t102.5 -49q117 0 194.5 165.5t77.5 417.5v267h189v-672q0 -92 19.5 -135t58.5 -43q41 0 64.5 42t23.5 126v28h43l2 -18v-27q0 -113 -48 -176t-137 -63q-100 0 -154 88t-54 264q-47 -182 -126 -267 t-198 -85q-86 0 -150 53q-57 55 -81 158l-2 -58q0 -133 65.5 -290.5t65.5 -186.5q0 -41 -22.5 -63.5t-63.5 -22.5q-47 0 -67.5 35t-20.5 108z" />
<glyph unicode="&#xb6;" horiz-adv-x="1341" d="M78 1051q0 176 122 300t298 124h665v-134h-667q-119 0 -203 -86t-84 -206q0 -119 84 -203t203 -84h133v477h141v-1239h-141v629h-133q-172 0 -295 122.5t-123 299.5zM899 0v1239h141v-1239h-141z" />
<glyph unicode="&#xb7;" horiz-adv-x="530" d="M74 606q0 80 55 135.5t135 55.5t136.5 -56.5t56.5 -134.5q0 -80 -56.5 -136t-138.5 -56q-80 0 -134 56t-54 136z" />
<glyph unicode="&#xb8;" horiz-adv-x="350" d="M-6 -375l164 316l198 -25l-202 -305z" />
<glyph unicode="&#xba;" horiz-adv-x="989" d="M78 1128v32t8 46q29 135 130 217t239 82q31 0 50 -4t27 -4q135 -27 220.5 -129t85.5 -238q0 -47 -9 -81q-27 -131 -130 -214t-242 -83q-162 0 -270.5 108t-108.5 268zM90 518v158h737v-158h-737zM252 1128q0 -27 4 -41q23 -141 160 -172q14 -4 43 -4q76 0 131 47.5 t69 126.5q4 33 5 45q0 78 -45.5 135.5t-118.5 73.5q-14 4 -45 4q-41 0 -80 -16q-100 -45 -119 -158q-4 -10 -4 -22.5v-18.5z" />
<glyph unicode="&#xbb;" horiz-adv-x="1128" d="M45 850l158 156l463 -494l-465 -492l-154 154l313 338zM463 174l317 338l-317 338l158 156l464 -494l-464 -492z" />
<glyph unicode="&#xbf;" horiz-adv-x="892" d="M51 360q0 76 24.5 137.5t46 92.5t103.5 117l72 79q45 51 59.5 84t14.5 82q0 43 -6 76h264l6 -108q0 -47 -8 -82q-6 -41 -23.5 -74t-66.5 -90q-98 -119 -131 -176.5t-33 -106.5q0 -68 47 -113t121 -45q35 0 51 2.5t56 15.5t76 35.5t95 71.5l88 -254l-100 -53 q-158 -74 -315 -74q-195 0 -318 106.5t-123 276.5zM311 1313q0 78 57.5 135t135.5 57q80 0 134 -56t54 -136t-55 -135.5t-135 -55.5t-135.5 55.5t-55.5 135.5z" />
<glyph unicode="&#xc0;" horiz-adv-x="1355" d="M-33 0l518 1477h385l516 -1477h-399l-98 336h-424l-98 -336h-400zM447 1886l188 113l266 -312l-141 -86zM518 596h320l-131 473q-14 51 -17.5 69.5t-9.5 82.5q-4 -43 -8.5 -64.5t-20.5 -87.5z" />
<glyph unicode="&#xc1;" horiz-adv-x="1355" d="M-33 0l518 1477h385l516 -1477h-399l-98 336h-424l-98 -336h-400zM518 596h320l-131 473q-14 51 -17.5 69.5t-9.5 82.5q-4 -43 -8.5 -64.5t-20.5 -87.5zM541 1683l268 314l186 -117l-313 -283z" />
<glyph unicode="&#xc2;" horiz-adv-x="1355" d="M-33 0l518 1477h385l516 -1477h-399l-98 336h-424l-98 -336h-400zM315 1735l363 258l360 -258l-57 -136l-303 154l-303 -154zM518 596h320l-131 473q-14 51 -17.5 69.5t-9.5 82.5q-4 -43 -8.5 -64.5t-20.5 -87.5z" />
<glyph unicode="&#xc3;" horiz-adv-x="1355" d="M-33 0l518 1477h385l516 -1477h-399l-98 336h-424l-98 -336h-400zM372 1622v184q49 18 80 24.5t70 6.5q45 0 92 -12l76 -17q66 -16 123 -16q59 0 86.5 6t81.5 35v-187q-63 -16 -94 -22t-64 -6q-41 0 -72 6q-43 12 -85 20.5t-78.5 14.5t-67.5 6q-62 0 -148 -43zM518 596 h320l-131 473q-14 51 -17.5 69.5t-9.5 82.5q-4 -43 -8.5 -64.5t-20.5 -87.5z" />
<glyph unicode="&#xc4;" horiz-adv-x="1355" d="M-33 0l518 1477h385l516 -1477h-399l-98 336h-424l-98 -336h-400zM262 1718q0 72 49 121t121 49q70 0 120 -50t50 -120q0 -68 -50 -116t-122 -48q-70 0 -119 47t-49 117zM518 596h320l-131 473q-14 51 -17.5 69.5t-9.5 82.5q-4 -43 -8.5 -64.5t-20.5 -87.5zM760 1718 q0 72 49 121t121 49q70 0 120 -50t50 -120q0 -68 -48 -116t-120 -48t-122 48t-50 116z" />
<glyph unicode="&#xc5;" horiz-adv-x="1355" d="M-33 0l518 1477h385l516 -1477h-399l-98 336h-424l-98 -336h-400zM449 1743q0 82 66.5 138t160.5 56q92 0 157.5 -55t65.5 -137q0 -80 -66.5 -136.5t-158.5 -56.5q-94 0 -159.5 55.5t-65.5 135.5zM518 596h320l-131 473q-14 51 -17.5 69.5t-9.5 82.5q-4 -43 -8.5 -64.5 t-20.5 -87.5zM596 1745q0 -39 22.5 -67.5t55.5 -28.5q31 0 53.5 26.5t22.5 67.5q0 39 -21.5 66.5t-54.5 27.5t-55.5 -26.5t-22.5 -65.5z" />
<glyph unicode="&#xc6;" horiz-adv-x="1943" d="M-33 0l840 1477h1100l-78 -285h-518v-307h475v-275h-475v-319h598l-82 -291h-881v332h-407l-168 -332h-404zM655 592h289v579z" />
<glyph unicode="&#xc7;" horiz-adv-x="1343" d="M72 737q0 319 227 544.5t553 225.5q59 0 118.5 -10t121.5 -31q84 -28 223 -112l-131 -301l-64 43q-121 76 -254 75q-180 0 -305 -124.5t-125 -309.5q0 -180 125 -305t309 -125q74 0 146 23q41 14 79 32.5t95 55.5l123 -303l-111 -64q-164 -80 -350 -80q-328 0 -554 222.5 t-226 543.5zM575 -365l132 306l239 -17l-176 -299z" />
<glyph unicode="&#xc8;" horiz-adv-x="1116" d="M113 0v1477h962l-76 -285h-516v-309h475v-277h-475v-321h594l-82 -285h-882zM326 1886l188 113l266 -312l-141 -86z" />
<glyph unicode="&#xc9;" horiz-adv-x="1116" d="M113 0v1477h962l-76 -285h-516v-309h475v-277h-475v-321h594l-82 -285h-882zM422 1683l268 314l186 -117l-313 -283z" />
<glyph unicode="&#xca;" horiz-adv-x="1116" d="M113 0v1477h962l-76 -285h-516v-309h475v-277h-475v-321h594l-82 -285h-882zM196 1735l363 258l360 -258l-57 -136l-303 154l-303 -154z" />
<glyph unicode="&#xcb;" horiz-adv-x="1116" d="M113 0v1477h962l-76 -285h-516v-309h475v-277h-475v-321h594l-82 -285h-882zM223 1743q0 61 40 105t95 44t96 -45t41 -106q0 -55 -39 -96.5t-96 -41.5q-55 0 -96 41.5t-41 98.5zM618 1741q0 61 41 106t98 45q55 0 94.5 -43t39.5 -106q0 -57 -39 -98.5t-99 -41.5 q-53 0 -94 41.5t-41 96.5z" />
<glyph unicode="&#xcc;" horiz-adv-x="595" d="M66 1886l188 113l266 -312l-141 -86zM113 0v1477h370v-1477h-370z" />
<glyph unicode="&#xcd;" horiz-adv-x="595" d="M113 0v1477h370v-1477h-370zM162 1683l268 314l186 -117l-313 -283z" />
<glyph unicode="&#xce;" horiz-adv-x="595" d="M-64 1735l363 258l360 -258l-57 -136l-303 154l-303 -154zM113 0v1477h370v-1477h-370z" />
<glyph unicode="&#xcf;" horiz-adv-x="595" d="M-35 1743q0 61 40 105t95 44t96 -45t41 -106q0 -55 -39 -96.5t-96 -41.5q-55 0 -96 41.5t-41 98.5zM113 0v1477h370v-1477h-370zM360 1741q0 61 41 106t98 45q55 0 94.5 -43t39.5 -106q0 -57 -39 -98.5t-99 -41.5q-53 0 -94 41.5t-41 96.5z" />
<glyph unicode="&#xd1;" horiz-adv-x="1595" d="M113 0v1477h385l563 -875q29 -47 56.5 -117.5t49.5 -132.5q-39 178 -39 250l-6 875h361v-1477h-383l-561 862q-27 35 -41.5 72t-59.5 174q16 -100 22.5 -148.5t6.5 -95.5l6 -864h-360zM493 1622v184q49 18 80 24.5t70 6.5q45 0 92 -12l76 -17q66 -16 123 -16q59 0 86.5 6 t81.5 35v-187q-63 -16 -94 -22t-64 -6q-41 0 -72 6q-43 12 -85 20.5t-78.5 14.5t-67.5 6q-62 0 -148 -43z" />
<glyph unicode="&#xd2;" horiz-adv-x="1726" d="M74 737q0 332 227 549t578 217q326 0 551 -221t225 -545q0 -326 -227.5 -545t-563.5 -219q-338 0 -564 218t-226 546zM436 737q0 -182 125 -309t303 -127t301 127t123 309q0 184 -123 311.5t-303 127.5q-178 0 -302 -128t-124 -311zM631 1886l188 113l266 -312l-141 -86z " />
<glyph unicode="&#xd3;" horiz-adv-x="1726" d="M74 737q0 332 227 549t578 217q326 0 551 -221t225 -545q0 -326 -227.5 -545t-563.5 -219q-338 0 -564 218t-226 546zM436 737q0 -182 125 -309t303 -127t301 127t123 309q0 184 -123 311.5t-303 127.5q-178 0 -302 -128t-124 -311zM727 1683l268 314l186 -117l-313 -283 z" />
<glyph unicode="&#xd4;" horiz-adv-x="1726" d="M74 737q0 332 227 549t578 217q326 0 551 -221t225 -545q0 -326 -227.5 -545t-563.5 -219q-338 0 -564 218t-226 546zM436 737q0 -182 125 -309t303 -127t301 127t123 309q0 184 -123 311.5t-303 127.5q-178 0 -302 -128t-124 -311zM501 1735l363 258l360 -258l-57 -136 l-303 154l-303 -154z" />
<glyph unicode="&#xd5;" horiz-adv-x="1726" d="M74 737q0 332 227 549t578 217q326 0 551 -221t225 -545q0 -326 -227.5 -545t-563.5 -219q-338 0 -564 218t-226 546zM436 737q0 -182 125 -309t303 -127t301 127t123 309q0 184 -123 311.5t-303 127.5q-178 0 -302 -128t-124 -311zM559 1622v184q49 18 80 24.5t70 6.5 q45 0 92 -12l76 -17q66 -16 123 -16q59 0 86.5 6t81.5 35v-187q-63 -16 -94 -22t-64 -6q-41 0 -72 6q-43 12 -85 20.5t-78.5 14.5t-67.5 6q-62 0 -148 -43z" />
<glyph unicode="&#xd6;" horiz-adv-x="1726" d="M74 737q0 332 227 549t578 217q326 0 551 -221t225 -545q0 -326 -227.5 -545t-563.5 -219q-338 0 -564 218t-226 546zM289 1726q0 72 48 120t120 48t122 -48t50 -120q0 -70 -49.5 -118.5t-122.5 -48.5q-70 0 -119 48.5t-49 118.5zM436 737q0 -182 125 -309t303 -127 t301 127t123 309q0 184 -123 311.5t-303 127.5q-178 0 -302 -128t-124 -311zM1098 1726q0 70 51 119t123 49q70 0 119 -47t49 -121q0 -70 -49.5 -118.5t-118.5 -48.5q-72 0 -123 48.5t-51 118.5z" />
<glyph unicode="&#xd8;" horiz-adv-x="1730" d="M70 795q0 133 59 260t170 229q242 223 510 223q217 1 588 -200l192 192l72 -69l-193 -191q92 -172 141.5 -312.5t49.5 -242.5q0 -133 -59.5 -261t-172.5 -230q-240 -223 -509 -224q-215 0 -570 183l-201 -199l-71 76l198 196q-98 172 -151 318.5t-53 251.5zM442 764 q1 -107 93 -295l606 604q-184 98 -291 98q-145 0 -285 -133q-123 -123 -123 -274zM606 397q178 -98 283 -98q152 0 285 137q117 121 116 273q0 104 -84 290z" />
<glyph unicode="&#xd9;" horiz-adv-x="1443" d="M113 516v961h370v-936q0 -74 10.5 -110t45.5 -69q72 -72 182 -71q53 0 100 18.5t84 52.5q55 53 56 179v936h370v-961q0 -250 -163.5 -395.5t-446.5 -145.5q-281 0 -444.5 145.5t-163.5 395.5zM490 1886l188 113l266 -312l-141 -86z" />
<glyph unicode="&#xda;" horiz-adv-x="1443" d="M113 516v961h370v-936q0 -74 10.5 -110t45.5 -69q72 -72 182 -71q53 0 100 18.5t84 52.5q55 53 56 179v936h370v-961q0 -250 -163.5 -395.5t-446.5 -145.5q-281 0 -444.5 145.5t-163.5 395.5zM586 1683l268 314l186 -117l-313 -283z" />
<glyph unicode="&#xdb;" horiz-adv-x="1443" d="M113 516v961h370v-936q0 -74 10.5 -110t45.5 -69q72 -72 182 -71q53 0 100 18.5t84 52.5q55 53 56 179v936h370v-961q0 -250 -163.5 -395.5t-446.5 -145.5q-281 0 -444.5 145.5t-163.5 395.5zM360 1735l363 258l360 -258l-57 -136l-303 154l-303 -154z" />
<glyph unicode="&#xdc;" horiz-adv-x="1441" d="M113 516v961h370v-936q0 -74 10.5 -110t45.5 -69q72 -72 182 -71q53 0 100 18.5t84 52.5q55 53 56 179v936h370v-961q0 -250 -163.5 -395.5t-446.5 -145.5q-281 0 -444.5 145.5t-163.5 395.5zM303 1712q0 70 49 119t119 49q72 0 120 -50t48 -120t-49 -117t-121 -47 q-70 0 -118 48t-48 118zM801 1710q0 70 50 120t120 50t119 -49t49 -119q0 -68 -49.5 -117t-116.5 -49q-74 0 -123 47t-49 117z" />
<glyph unicode="&#xdf;" horiz-adv-x="1275" d="M113 0v1081q0 109 28.5 178.5t98.5 124.5q150 117 376 117q209 0 341.5 -100.5t132.5 -259.5q0 -133 -115 -236q-31 -27 -68 -47t-88 -39q88 -10 131 -25.5t97 -56.5q160 -121 159 -315q0 -186 -145.5 -317.5t-351.5 -131.5q-59 0 -166 25l28 215q57 -10 84 -10 q90 0 157 68.5t67 166.5q0 109 -75 169.5t-212 60.5l-66 -2v247q127 0 197 49.5t70 137.5q0 66 -47.5 110.5t-116.5 44.5q-43 0 -78 -14q-57 -23 -77.5 -65.5t-20.5 -141.5v-1034h-340z" />
<glyph unicode="&#xe0;" horiz-adv-x="1294" d="M74 510q0 233 133 389t338 156q76 0 162 -27q55 -20 80.5 -37.5t70.5 -68.5v112h324v-1034h-324v115q-12 -18 -23.5 -29.5l-15.5 -15.5q-45 -45 -123 -72t-166 -27q-207 0 -331.5 147.5t-124.5 391.5zM416 1411l188 113l266 -312l-141 -86zM420 518q0 -121 61.5 -194.5 t163.5 -73.5q53 0 98 23.5t63.5 60.5t27 81t8.5 115q0 74 -6.5 110t-26.5 67q-55 86 -166 86q-100 0 -161.5 -76t-61.5 -199z" />
<glyph unicode="&#xe1;" horiz-adv-x="1294" d="M74 510q0 233 133 389t338 156q76 0 162 -27q55 -20 80.5 -37.5t70.5 -68.5v112h324v-1034h-324v115q-12 -18 -23.5 -29.5l-15.5 -15.5q-45 -45 -123 -72t-166 -27q-207 0 -331.5 147.5t-124.5 391.5zM420 518q0 -121 61.5 -194.5t163.5 -73.5q53 0 98 23.5t63.5 60.5 t27 81t8.5 115q0 74 -6.5 110t-26.5 67q-55 86 -166 86q-100 0 -161.5 -76t-61.5 -199zM510 1208l268 314l186 -117l-313 -283z" />
<glyph unicode="&#xe2;" horiz-adv-x="1294" d="M74 510q0 233 133 389t338 156q76 0 162 -27q55 -20 80.5 -37.5t70.5 -68.5v112h324v-1034h-324v115q-12 -18 -23.5 -29.5l-15.5 -15.5q-45 -45 -123 -72t-166 -27q-207 0 -331.5 147.5t-124.5 391.5zM284 1260l363 258l360 -258l-57 -136l-303 154l-303 -154zM420 518 q0 -121 61.5 -194.5t163.5 -73.5q53 0 98 23.5t63.5 60.5t27 81t8.5 115q0 74 -6.5 110t-26.5 67q-55 86 -166 86q-100 0 -161.5 -76t-61.5 -199z" />
<glyph unicode="&#xe3;" horiz-adv-x="1294" d="M74 510q0 233 133 389t338 156q76 0 162 -27q55 -20 80.5 -37.5t70.5 -68.5v112h324v-1034h-324v115q-12 -18 -23.5 -29.5l-15.5 -15.5q-45 -45 -123 -72t-166 -27q-207 0 -331.5 147.5t-124.5 391.5zM342 1147v184q49 18 80 24.5t70 6.5q45 0 92 -12l76 -17 q66 -16 123 -16q59 0 86.5 6t81.5 35v-187q-63 -16 -94 -22t-64 -6q-41 0 -72 6q-43 12 -85 20.5t-78.5 14.5t-67.5 6q-62 0 -148 -43zM420 518q0 -121 61.5 -194.5t163.5 -73.5q53 0 98 23.5t63.5 60.5t27 81t8.5 115q0 74 -6.5 110t-26.5 67q-55 86 -166 86 q-100 0 -161.5 -76t-61.5 -199z" />
<glyph unicode="&#xe4;" horiz-adv-x="1292" d="M74 510q0 233 133 389t338 156q76 0 162 -27q55 -20 80.5 -37.5t70.5 -68.5v112h324v-1034h-324v115q-12 -18 -23.5 -29.5l-15.5 -15.5q-45 -45 -123 -72t-166 -27q-207 0 -331.5 147.5t-124.5 391.5zM324 1274q0 61 38.5 104t96.5 43q57 0 97 -44t40 -105q0 -55 -39 -96 t-96 -41t-97 40t-40 99zM420 518q0 -121 61.5 -194.5t163.5 -73.5q53 0 98 23.5t63.5 60.5t27 81t8.5 115q0 74 -6.5 110t-26.5 67q-55 86 -166 86q-100 0 -161.5 -76t-61.5 -199zM719 1272q0 59 41 104t98 45q55 0 94 -43t39 -104q0 -57 -39 -98t-98 -41q-55 0 -95 40 t-40 97z" />
<glyph unicode="&#xe5;" horiz-adv-x="1292" d="M74 510q0 233 133 389t338 156q76 0 162 -27q55 -20 80.5 -37.5t70.5 -68.5v112h324v-1034h-324v115q-12 -18 -23.5 -29.5l-15.5 -15.5q-45 -45 -123 -72t-166 -27q-207 0 -331.5 147.5t-124.5 391.5zM420 518q0 -121 61.5 -194.5t163.5 -73.5q53 0 98 23.5t63.5 60.5 t27 81t8.5 115q0 74 -6.5 110t-26.5 67q-55 86 -166 86q-100 0 -161.5 -76t-61.5 -199zM485 1309q0 80 61.5 135t153.5 55q88 0 150.5 -55t62.5 -135q0 -78 -62.5 -133.5t-150.5 -55.5q-90 0 -152.5 54.5t-62.5 134.5zM610 1309q0 -39 26 -69t62 -30q35 0 61.5 29t26.5 70 t-25.5 70.5t-62.5 29.5q-35 0 -61.5 -28.5t-26.5 -71.5z" />
<glyph unicode="&#xe6;" horiz-adv-x="1968" d="M72 518q0 238 132 390.5t337 152.5q82 0 147 -25t133 -82v80h242v-96l49 43q98 86 272 86q125 0 233.5 -51t176.5 -129t152 -250l-691 -346q88 -72 162 -72q61 0 111.5 28.5t99.5 92.5l219 -129l-67 -84q-72 -76 -176.5 -119t-219.5 -43q-96 0 -158.5 23.5t-162.5 99.5 v-88h-244v84q-121 -109 -297 -109q-197 0 -323.5 152t-126.5 391zM420 522q0 -121 62.5 -193.5t164.5 -72.5q172 0 189 166l6 133q0 72 -6.5 102.5t-28.5 59.5q-60 82 -164 82q-98 0 -160.5 -77t-62.5 -200zM1124 569q1 -28 15 -69l452 229q-66 92 -194 92 q-109 0 -191 -75.5t-82 -176.5z" />
<glyph unicode="&#xe7;" horiz-adv-x="1013" d="M74 514q0 233 162.5 394t398.5 161q90 0 155.5 -17.5t184.5 -72.5l-86 -254q-113 68 -209 68q-109 0 -184.5 -78t-75.5 -193t80 -194.5t194 -79.5q47 0 83 10t112 45l82 -233q-113 -57 -188.5 -81t-159.5 -24q-229 0 -389 160t-160 389zM334 -375l164 316l200 -25 l-204 -305z" />
<glyph unicode="&#xe8;" horiz-adv-x="1189" d="M74 508q0 233 158.5 394t390.5 161q217 0 372 -143q55 -49 92 -110t80 -165l-680 -348q49 -43 88 -61.5t82 -18.5q111 0 201 121l225 -137l-84 -95q-70 -66 -171 -104.5t-205 -38.5q-231 0 -390 156.5t-159 388.5zM363 1411l188 113l266 -312l-141 -86zM371 567 q0 -22 10 -63l446 227q-61 92 -192 92q-102 0 -183 -78.5t-81 -177.5z" />
<glyph unicode="&#xe9;" horiz-adv-x="1189" d="M74 508q0 233 158.5 394t390.5 161q217 0 372 -143q55 -49 92 -110t80 -165l-680 -348q49 -43 88 -61.5t82 -18.5q111 0 201 121l225 -137l-84 -95q-70 -66 -171 -104.5t-205 -38.5q-231 0 -390 156.5t-159 388.5zM371 567q0 -22 10 -63l446 227q-61 92 -192 92 q-102 0 -183 -78.5t-81 -177.5zM459 1208l268 314l186 -117l-313 -283z" />
<glyph unicode="&#xea;" horiz-adv-x="1189" d="M74 508q0 233 158.5 394t390.5 161q217 0 372 -143q55 -49 92 -110t80 -165l-680 -348q49 -43 88 -61.5t82 -18.5q111 0 201 121l225 -137l-84 -95q-70 -66 -171 -104.5t-205 -38.5q-231 0 -390 156.5t-159 388.5zM233 1260l363 258l360 -258l-57 -136l-303 154 l-303 -154zM371 567q0 -22 10 -63l446 227q-61 92 -192 92q-102 0 -183 -78.5t-81 -177.5z" />
<glyph unicode="&#xeb;" horiz-adv-x="1189" d="M74 508q0 233 158.5 394t390.5 161q217 0 372 -143q55 -49 92 -110t80 -165l-680 -348q49 -43 88 -61.5t82 -18.5q111 0 201 121l225 -137l-84 -95q-70 -66 -171 -104.5t-205 -38.5q-231 0 -390 156.5t-159 388.5zM260 1268q0 61 40 105t95 44t96 -45t41 -106 q0 -55 -39 -96.5t-96 -41.5q-55 0 -96 41.5t-41 98.5zM371 567q0 -22 10 -63l446 227q-61 92 -192 92q-102 0 -183 -78.5t-81 -177.5zM655 1266q0 61 41 106t98 45q55 0 94.5 -43t39.5 -106q0 -57 -39 -98.5t-99 -41.5q-53 0 -94 41.5t-41 96.5z" />
<glyph unicode="&#xec;" horiz-adv-x="567" d="M-61 1411l188 113l266 -312l-141 -86zM113 0v897l342 176v-1073h-342z" />
<glyph unicode="&#xed;" horiz-adv-x="567" d="M113 0v897l342 176v-1073h-342zM148 1208l268 314l186 -117l-313 -283z" />
<glyph unicode="&#xee;" horiz-adv-x="567" d="M-78 1260l363 258l360 -258l-57 -136l-303 154l-303 -154zM113 0v897l342 176v-1073h-342z" />
<glyph unicode="&#xef;" horiz-adv-x="567" d="M-49 1268q0 61 40 105t95 44t96 -45t41 -106q0 -55 -39 -96.5t-96 -41.5q-55 0 -96 41.5t-41 98.5zM113 0v897l342 176v-1073h-342zM346 1266q0 61 41 106t98 45q55 0 94.5 -43t39.5 -106q0 -57 -39 -98.5t-99 -41.5q-53 0 -94 41.5t-41 96.5z" />
<glyph unicode="&#xf1;" horiz-adv-x="1261" d="M113 901l321 174v-164l55 60q47 41 123 65.5t154 24.5q178 0 291 -107q47 -47 69.5 -109.5t22.5 -156.5v-688h-338v594q0 178 -166 178q-86 0 -139 -57.5t-53 -147.5l2 -567h-340zM325 1147v184q49 18 80 24.5t70 6.5q45 0 92 -12l76 -17q66 -16 123 -16q59 0 86.5 6 t81.5 35v-187q-63 -16 -94 -22t-64 -6q-41 0 -72 6q-43 12 -85 20.5t-78.5 14.5t-67.5 6q-62 0 -148 -43z" />
<glyph unicode="&#xf2;" horiz-adv-x="1271" d="M74 512q0 229 164.5 392t398.5 163q233 0 398 -163t165 -392t-166 -393t-399 -164q-231 0 -396 163t-165 394zM393 512q0 -117 67.5 -192.5t174.5 -75.5q104 0 174 75.5t70 192.5q0 115 -69 191.5t-175 76.5q-104 0 -173 -76.5t-69 -191.5zM404 1411l188 113l266 -312 l-141 -86z" />
<glyph unicode="&#xf3;" horiz-adv-x="1271" d="M74 512q0 229 164.5 392t398.5 163q233 0 398 -163t165 -392t-166 -393t-399 -164q-231 0 -396 163t-165 394zM393 512q0 -117 67.5 -192.5t174.5 -75.5q104 0 174 75.5t70 192.5q0 115 -69 191.5t-175 76.5q-104 0 -173 -76.5t-69 -191.5zM500 1208l268 314l186 -117 l-313 -283z" />
<glyph unicode="&#xf4;" horiz-adv-x="1271" d="M74 512q0 229 164.5 392t398.5 163q233 0 398 -163t165 -392t-166 -393t-399 -164q-231 0 -396 163t-165 394zM274 1260l363 258l360 -258l-57 -136l-303 154l-303 -154zM393 512q0 -117 67.5 -192.5t174.5 -75.5q104 0 174 75.5t70 192.5q0 115 -69 191.5t-175 76.5 q-104 0 -173 -76.5t-69 -191.5z" />
<glyph unicode="&#xf5;" horiz-adv-x="1271" d="M74 512q0 229 164.5 392t398.5 163q233 0 398 -163t165 -392t-166 -393t-399 -164q-231 0 -396 163t-165 394zM331 1147v184q49 18 80 24.5t70 6.5q45 0 92 -12l76 -17q66 -16 123 -16q59 0 86.5 6t81.5 35v-187q-63 -16 -94 -22t-64 -6q-41 0 -72 6q-43 12 -85 20.5 t-78.5 14.5t-67.5 6q-62 0 -148 -43zM393 512q0 -117 67.5 -192.5t174.5 -75.5q104 0 174 75.5t70 192.5q0 115 -69 191.5t-175 76.5q-104 0 -173 -76.5t-69 -191.5z" />
<glyph unicode="&#xf6;" horiz-adv-x="1271" d="M74 512q0 229 164.5 392t398.5 163q233 0 398 -163t165 -392t-166 -393t-399 -164q-231 0 -396 163t-165 394zM315 1276q0 61 39 104t95 43q57 0 97 -44t40 -105q0 -55 -39 -96t-94 -41q-57 0 -97.5 40t-40.5 99zM393 512q0 -117 67.5 -192.5t174.5 -75.5q104 0 174 75.5 t70 192.5q0 115 -69 191.5t-175 76.5q-104 0 -173 -76.5t-69 -191.5zM711 1274q0 61 40 105t99 44q55 0 94 -43t39 -104q0 -57 -39 -98t-98 -41q-55 0 -95 40t-40 97z" />
<glyph unicode="&#xf7;" horiz-adv-x="1216" d="M88 414v139h948v-139h-948zM446 207q0 49 33 82q39 35 84 35q49 0 82 -33t33 -84q0 -49 -35 -82q-31 -35 -80 -35t-83 36t-34 81zM446 758q0 49 33 82q39 35 84 34q49 0 80 -34q35 -35 35 -82q0 -49 -35 -82q-31 -35 -80 -35t-83 34t-34 83z" />
<glyph unicode="&#xf8;" horiz-adv-x="1280" d="M72 549q0 94 43 186t125 166q180 168 366 168q144 0 406 -145l114 116l60 -53l-117 -121q139 -250 139 -395q0 -92 -43 -184t-125 -166q-184 -168 -366 -168q-143 0 -400 139l-116 -117l-58 62l115 108q-143 248 -143 404zM393 537q0 -31 11 -74t34 -98l353 360 q-111 55 -166 55q-92 0 -162 -73.5t-70 -169.5zM489 299q102 -55 164 -55q88 0 159 74.5t71 170.5q0 68 -43 166z" />
<glyph unicode="&#xf9;" horiz-adv-x="1251" d="M113 367v667h340v-606q0 -180 172 -180q176 0 176 180v606h338v-667q0 -193 -133.5 -297.5t-378.5 -104.5q-244 0 -379 104.5t-135 297.5zM394 1411l188 113l266 -312l-141 -86z" />
<glyph unicode="&#xfa;" horiz-adv-x="1251" d="M113 367v667h340v-606q0 -180 172 -180q176 0 176 180v606h338v-667q0 -193 -133.5 -297.5t-378.5 -104.5q-244 0 -379 104.5t-135 297.5zM490 1208l268 314l186 -117l-313 -283z" />
<glyph unicode="&#xfb;" horiz-adv-x="1251" d="M113 367v667h340v-606q0 -180 172 -180q176 0 176 180v606h338v-667q0 -193 -133.5 -297.5t-378.5 -104.5q-244 0 -379 104.5t-135 297.5zM264 1260l363 258l360 -258l-57 -136l-303 154l-303 -154z" />
<glyph unicode="&#xfc;" horiz-adv-x="1255" d="M113 367v667h342v-606q0 -180 172 -180q176 0 176 180v606h340v-667q0 -193 -133 -297.5t-381 -104.5q-246 0 -381 104.5t-135 297.5zM293 1274q0 61 39 104t96 43q55 0 96 -43t41 -106q0 -57 -40 -97t-95 -40q-57 0 -97 40t-40 99zM688 1272q0 61 40 105t99 44 q55 0 94.5 -43t39.5 -104q0 -57 -39 -98t-99 -41q-55 0 -95 40t-40 97z" />
<glyph unicode="&#xff;" horiz-adv-x="1124" d="M-35 1034h367l203 -569q8 -25 15 -62.5t13 -99.5l12 78l19 88l207 565h375l-601 -1405h-380l194 404zM227 1268q0 61 40 105t95 44t96 -45t41 -106q0 -55 -39 -96.5t-96 -41.5q-55 0 -96 41.5t-41 98.5zM622 1266q0 61 41 106t98 45q55 0 94.5 -43t39.5 -106 q0 -57 -39 -98.5t-99 -41.5q-53 0 -94 41.5t-41 96.5z" />
<glyph unicode="&#x152;" horiz-adv-x="2019" d="M72 729q0 344 264 574q219 193 541 192h75q31 -6 43 -8l70 -8l57 -4l76 2h778l-73 -291h-517v-303h478v-273h-478v-319h596l-79 -291h-691h-82l-57 -6l-74 -12q-49 -8 -127 -9q-348 0 -574 214t-226 542zM438 727q0 -180 124 -302t306 -122q49 0 84 8.5t49 22.5 q14 23 15 82v651q0 18 -1 35.5t-20 34.5q-43 29 -139 28q-178 0 -298 -126t-120 -312z" />
<glyph unicode="&#x153;" horiz-adv-x="2004" d="M74 514q0 233 164.5 394t404.5 161q102 0 193 -33q61 -23 104 -55t100 -104q47 47 74 69.5t53 38.5q109 74 263 74q172 0 311 -92q76 -49 125 -112.5t119 -203.5l-691 -350q84 -84 162 -84q53 0 113 31q39 20 56 35.5t44 56.5l225 -133l-75 -90q-72 -70 -175.5 -111 t-213.5 -41q-111 0 -203 39q-66 25 -99.5 51.5t-87.5 96.5q-16 -20 -40.5 -45t-28.5 -29q-135 -117 -344 -117q-233 0 -393 160t-160 393zM387 514q0 -115 69.5 -190.5t176.5 -75.5q106 0 173.5 73.5t67.5 194.5t-64 193.5t-173 72.5q-106 0 -178 -75.5t-72 -192.5z M1171 563l7 -61l467 233q-88 86 -207 86q-104 0 -185.5 -78.5t-81.5 -179.5z" />
<glyph unicode="&#x178;" horiz-adv-x="1232" d="M-59 1477h407l242 -459q10 -20 16 -70l10 -71q0 57 6.5 86.5t20.5 56.5l246 457h401l-493 -832v-645h-363v645zM283 1743q0 61 40 105t95 44t96 -45t41 -106q0 -55 -39 -96.5t-96 -41.5q-55 0 -96 41.5t-41 98.5zM678 1741q0 61 41 106t98 45q55 0 94.5 -43t39.5 -106 q0 -57 -39 -98.5t-99 -41.5q-53 0 -94 41.5t-41 96.5z" />
<glyph unicode="&#x2c6;" horiz-adv-x="501" d="M-111 1260l363 258l360 -258l-57 -136l-303 154l-303 -154z" />
<glyph unicode="&#x2dc;" horiz-adv-x="387" d="M-111 1147v184q49 18 80 24.5t70 6.5q45 0 92 -12l76 -17q66 -16 123 -16q59 0 86.5 6t81.5 35v-187q-63 -16 -94 -22t-64 -6q-41 0 -72 6q-43 12 -85 20.5t-78.5 14.5t-67.5 6q-62 0 -148 -43z" />
<glyph unicode="&#x2000;" horiz-adv-x="999" />
<glyph unicode="&#x2001;" horiz-adv-x="1999" />
<glyph unicode="&#x2002;" horiz-adv-x="999" />
<glyph unicode="&#x2003;" horiz-adv-x="1999" />
<glyph unicode="&#x2004;" horiz-adv-x="666" />
<glyph unicode="&#x2005;" horiz-adv-x="499" />
<glyph unicode="&#x2006;" horiz-adv-x="333" />
<glyph unicode="&#x2007;" horiz-adv-x="333" />
<glyph unicode="&#x2008;" horiz-adv-x="249" />
<glyph unicode="&#x2009;" horiz-adv-x="399" />
<glyph unicode="&#x200a;" horiz-adv-x="111" />
<glyph unicode="&#x2010;" horiz-adv-x="638" d="M45 459v246h551v-246h-551z" />
<glyph unicode="&#x2011;" horiz-adv-x="638" d="M45 459v246h551v-246h-551z" />
<glyph unicode="&#x2012;" horiz-adv-x="638" d="M45 459v246h551v-246h-551z" />
<glyph unicode="&#x2013;" d="M213 659v240h967v-240h-967z" />
<glyph unicode="&#x2014;" horiz-adv-x="2039" d="M61 608v244h1917v-244h-1917z" />
<glyph unicode="&#x2018;" horiz-adv-x="489" d="M43 1047q0 76 36 151.5t81 135t145 165.5l139 -74q-66 -72 -94 -111.5t-67 -113.5q43 -12 71.5 -28.5t52 -60.5t23.5 -89q0 -82 -55.5 -139.5t-134.5 -57.5q-84 0 -140.5 62.5t-56.5 159.5z" />
<glyph unicode="&#x2019;" horiz-adv-x="489" d="M45 901q61 66 90 107t72 118l-70 27q-35 20 -57.5 63.5t-22.5 88.5q0 80 55.5 137t135.5 57q84 0 140 -62.5t56 -158.5q0 -80 -35.5 -154.5t-75.5 -129t-149 -169.5z" />
<glyph unicode="&#x201a;" horiz-adv-x="483" d="M37 -250q63 68 91 108t71 119l-68 27q-37 20 -58.5 62.5t-21.5 89.5q0 80 55.5 137t135.5 57q84 0 140 -62.5t56 -158.5q0 -80 -33.5 -151.5t-78.5 -131t-150 -170.5z" />
<glyph unicode="&#x201c;" horiz-adv-x="937" d="M43 1047q0 76 36 151.5t81 135t145 165.5l139 -74q-66 -72 -94 -111.5t-67 -113.5q43 -12 71.5 -28.5t52 -60.5t23.5 -89q0 -82 -55.5 -139.5t-134.5 -57.5q-84 0 -140.5 62.5t-56.5 159.5zM492 1047q0 76 35.5 152.5t81 135t147.5 164.5l139 -74q-59 -63 -93 -109 t-71 -116q47 -12 75 -29.5t50.5 -60.5t22.5 -88q0 -82 -55.5 -139.5t-135.5 -57.5q-84 0 -140 62.5t-56 159.5z" />
<glyph unicode="&#x201d;" horiz-adv-x="937" d="M45 901q61 66 90 107t72 118l-70 27q-35 20 -57.5 63.5t-22.5 88.5q0 80 55.5 137t135.5 57q84 0 140 -62.5t56 -158.5q0 -80 -35.5 -154.5t-75.5 -129t-149 -169.5zM494 901q68 74 93 108.5t68 116.5l-69 27q-33 20 -55.5 63.5t-22.5 86.5q0 82 55 139t135 57 q84 0 140.5 -62.5t56.5 -158.5q0 -74 -35 -149.5t-78 -133t-151 -170.5z" />
<glyph unicode="&#x201e;" horiz-adv-x="931" d="M37 -250q63 68 91 108t71 119l-68 27q-37 20 -58.5 62.5t-21.5 89.5q0 80 55.5 137t135.5 57q84 0 140 -62.5t56 -158.5q0 -80 -33.5 -151.5t-78.5 -131t-150 -170.5zM487 -250q68 74 93.5 110t68.5 117l-69 27q-33 20 -56.5 63.5t-23.5 86.5q0 82 55 139t135 57 q84 0 141.5 -63.5t57.5 -157.5q0 -74 -35 -149.5t-81 -136t-148 -167.5z" />
<glyph unicode="&#x2022;" horiz-adv-x="530" d="M74 606q0 80 55 135.5t135 55.5t136.5 -56.5t56.5 -134.5q0 -80 -56.5 -136t-138.5 -56q-80 0 -134 56t-54 136z" />
<glyph unicode="&#x2026;" horiz-adv-x="2039" d="M197 147q0 74 51 121q51 51 121 51t121 -50t51 -122t-52 -120q-49 -51 -120 -52q-72 0 -121 52q-51 46 -51 120zM879 147q0 72 52 122t120 50q70 0 121 -50t51 -122t-52 -120q-49 -51 -120 -52q-72 0 -122 50t-50 122zM1534 147q0 72 50 122t122 50t122 -50t50 -122 t-50 -122t-122 -50q-74 0 -123 49t-49 123z" />
<glyph unicode="&#x202f;" horiz-adv-x="399" />
<glyph unicode="&#x2039;" horiz-adv-x="718" d="M45 510l471 498l160 -158l-322 -340l320 -338l-162 -156z" />
<glyph unicode="&#x203a;" horiz-adv-x="710" d="M45 850l158 156l463 -494l-465 -492l-154 154l313 338z" />
<glyph unicode="&#x205f;" horiz-adv-x="499" />
<glyph unicode="&#x2122;" horiz-adv-x="1583" d="M78 1356v119h448v-121l-157 2v-619h-136v619h-155zM502 737l131 748h104l170 -416q12 -31 24.5 -69.5t12.5 -84.5l4 43q8 51 33 111l170 416h104l131 -748h-131l-67 412l-2 22l-2 25v84l-23 -84l-10 -33l-4 -12l-170 -422h-64l-172 422l-4 14l-10 31l-22 84 q2 -10 2 -31.5v-31.5v-21l-2 -27l-5 -20l-67 -412h-131z" />
<glyph unicode="&#x25fc;" horiz-adv-x="1034" d="M0 0v1034h1034v-1034h-1034z" />
</font>
</defs>
</svg>
